# Blender 4.0.2
# www.blender.org
mtllib Arabesque (Biped).mtl
o Arabesque_(Biped)
v 0.000000 0.156250 -0.406250
v 0.343750 0.109375 0.156250
v -0.343750 0.109375 0.156250
v -0.656250 -0.406250 -0.187500
v -0.609375 -0.593750 0.500000
v -0.671875 -1.312500 0.640625
v 0.234375 -1.312500 -0.437500
v 0.671875 -1.312500 0.640625
v 0.656250 -0.406250 -0.187500
v 0.234375 -1.312500 -0.437500
v 0.656250 -0.406250 -0.187500
v 0.000000 -0.406250 -0.375000
v 0.000000 -1.734375 -0.109375
v -0.328125 -1.734375 0.640625
v 0.328125 -1.734375 0.640625
v 0.453125 0.156250 -0.218750
v -0.234375 -1.312500 -0.437500
v 0.000000 -1.734375 -0.109375
v -0.328125 -1.312500 0.953125
v -0.296875 -0.593750 0.812500
v 0.328125 -1.312500 0.953125
v 0.343750 0.109375 0.156250
v 0.609375 -0.593750 0.500000
v 0.296875 -0.593750 0.812500
v -0.453125 0.156250 -0.218750
v 0.453125 0.156250 -0.218750
v 0.000000 -1.734375 -0.109375
v -0.406250 2.515625 0.921875
v 0.000000 2.671875 0.921875
v 0.406250 2.515625 0.921875
v 0.140625 1.437500 1.437500
v 1.187500 0.812500 0.281250
v 0.390625 0.937500 0.703125
v -0.484375 0.140625 -0.328125
v -1.343750 1.375000 -0.250000
v -1.187500 0.812500 0.281250
v -1.234375 2.093750 0.312500
v -0.218750 1.937500 1.203125
v -0.250000 0.093750 0.296875
v -1.046875 1.843750 0.890625
v -0.140625 1.437500 1.437500
v -0.375000 0.484375 1.078125
v 0.375000 0.484375 1.078125
v 0.140625 1.437500 1.437500
v 1.046875 1.843750 0.890625
v 1.234375 2.093750 0.312500
v 0.218750 1.937500 1.203125
v 1.343750 1.375000 -0.250000
v 0.484375 0.140625 -0.328125
v -0.671875 1.515625 -0.625000
v -1.343750 1.375000 -0.250000
v -0.390625 0.937500 0.703125
v -0.406250 2.515625 0.921875
v -0.609375 2.328125 0.015625
v 0.484375 0.140625 -0.328125
v 1.343750 1.375000 -0.250000
v 0.671875 1.515625 -0.625000
v 0.250000 0.093750 0.296875
v 0.406250 2.515625 0.921875
v 0.609375 2.328125 0.015625
v 1.234375 2.093750 0.312500
v -0.140625 1.437500 1.437500
v 0.000000 1.546875 -0.781250
v 0.000000 0.125000 -0.453125
v 0.000000 2.484375 -0.015625
v 0.000000 2.437500 -0.328125
v 0.000000 2.843750 -1.171875
v 0.000000 2.562500 0.312500
v 0.000000 2.656250 0.906250
v 0.000000 2.750000 0.656250
v 0.000000 3.390625 0.234375
v 0.000000 2.687500 1.156250
v 0.000000 2.468750 -0.031250
v 1.234375 2.093750 0.312500
v 0.000000 2.671875 0.921875
v 0.406250 2.515625 0.921875
v -0.671875 1.515625 -0.625000
v 0.609375 2.328125 0.015625
v -0.859375 1.890625 0.921875
v -0.640625 2.359375 0.781250
v -0.359375 2.468750 1.546875
v -0.531250 1.984375 2.015625
v 0.359375 2.468750 1.546875
v 0.640625 2.359375 0.781250
v 0.859375 1.890625 0.921875
v 0.203125 1.531250 2.234375
v 0.265625 1.875000 2.343750
v 0.531250 1.984375 2.015625
v 0.000000 1.562500 1.390625
v -0.312500 2.203125 2.343750
v -0.265625 1.875000 2.343750
v -0.203125 1.531250 2.234375
v 0.312500 2.203125 2.343750
v 0.000000 2.125000 2.562500
v 0.000000 2.453125 2.328125
v 0.000000 1.187500 2.359375
v 0.203125 1.296875 2.187500
v -0.203125 1.296875 2.187500
v -0.406250 1.562500 1.937500
v 0.000000 1.656250 1.968750
v 0.203125 1.296875 2.187500
v 0.406250 1.562500 1.937500
v -0.203125 1.296875 2.187500
v 0.000000 1.468750 2.390625
v 0.000000 2.656250 1.734375
v 0.000000 2.765625 1.578125
v 0.000000 3.281250 1.390625
v 0.000000 2.593750 1.906250
v 0.000000 1.781250 2.562500
v 0.000000 2.656250 0.875000
v 0.000000 2.687500 1.546875
v -1.328125 1.812500 -0.000000
v -1.531250 1.031250 0.078125
v -0.984375 1.296875 0.250000
v -1.875000 1.484375 0.703125
v -1.328125 1.812500 0.937500
v -1.531250 1.031250 0.859375
v -1.875000 1.484375 0.234375
v -1.687500 -0.109375 0.421875
v -1.546875 -0.109375 0.640625
v -1.546875 -0.109375 0.171875
v -1.218750 1.000000 0.312500
v -0.953125 1.859375 0.703125
v -0.984375 1.296875 0.687500
v -1.328125 2.031250 0.625000
v -1.328125 2.031250 0.312500
v -0.953125 1.859375 0.234375
v -1.781250 0.921875 0.468750
v -1.218750 1.000000 0.625000
v -1.562500 0.125000 0.750000
v -1.265625 0.125000 0.531250
v -1.343750 -0.109375 0.500000
v -0.984375 1.296875 0.250000
v -0.984375 1.296875 0.687500
v -0.953125 1.859375 0.703125
v -0.953125 1.859375 0.703125
v -0.953125 1.859375 0.234375
v -1.343750 -0.109375 0.312500
v -1.343750 -0.109375 0.500000
v -1.265625 0.125000 0.531250
v -1.218750 1.000000 0.625000
v -1.265625 0.125000 0.265625
v -1.765625 0.125000 0.421875
v -1.562500 0.125000 0.062500
v -1.343750 -0.109375 0.500000
v -1.343750 -0.109375 0.312500
v -1.500000 0.046875 0.406250
v -1.281250 -0.187500 0.562500
v -1.484375 -0.187500 0.671875
v -1.515625 -0.578125 0.125000
v -1.484375 -0.187500 0.171875
v -1.765625 -0.781250 0.468750
v -1.765625 -0.140625 0.328125
v -1.765625 -0.140625 0.515625
v -1.515625 -0.578125 0.828125
v -1.640625 -1.765625 0.703125
v -1.640625 -1.765625 0.265625
v -1.281250 -0.187500 0.281250
v -1.281250 -0.187500 0.281250
v -1.562500 -2.531250 0.703125
v -1.343750 -1.390625 0.640625
v -1.281250 -2.500000 0.640625
v -1.156250 -0.515625 0.281250
v -1.156250 -0.515625 0.687500
v -1.156250 -0.515625 0.281250
v -1.343750 -1.390625 0.328125
v -1.343750 -1.390625 0.328125
v -1.281250 -2.500000 0.328125
v -1.281250 -2.500000 0.328125
v -1.562500 -2.531250 0.265625
v -0.953125 -3.937500 1.031250
v -1.015625 -3.890625 1.078125
v -0.875000 -4.250000 1.109375
v -1.468750 -2.921875 0.703125
v -1.593750 -2.546875 0.593750
v -1.312500 -2.375000 0.656250
v -1.468750 -2.921875 0.296875
v -1.187500 -2.921875 0.187500
v -1.312500 -2.375000 0.281250
v -1.468750 -4.015625 1.015625
v -1.437500 -4.453125 0.937500
v -1.625000 -4.078125 1.015625
v -1.406250 -3.671875 -0.046875
v -1.312500 -3.750000 0.656250
v -1.484375 -4.046875 0.828125
v -1.546875 -3.640625 0.671875
v -1.640625 -3.578125 0.125000
v -1.187500 -2.921875 0.718750
v -1.140625 -3.750000 0.828125
v -1.515625 -3.578125 0.875000
v -1.593750 -2.546875 0.343750
v -0.890625 -3.875000 1.093750
v -1.296875 -3.656250 0.953125
v -1.000000 -3.609375 0.984375
v -1.109375 -4.375000 0.359375
v -1.218750 -4.218750 -0.140625
v -1.437500 -4.062500 0.000000
v -1.359375 -4.171875 0.406250
v 0.984375 1.312500 0.250000
v 1.531250 1.046875 0.078125
v 1.328125 1.812500 -0.000000
v 1.531250 1.046875 0.859375
v 1.328125 1.812500 0.937500
v 1.890625 1.500000 0.703125
v 1.890625 1.500000 0.234375
v 1.546875 -0.109375 0.171875
v 1.546875 -0.109375 0.640625
v 1.703125 -0.109375 0.421875
v 1.218750 1.000000 0.312500
v 0.984375 1.312500 0.687500
v 0.968750 1.859375 0.703125
v 1.328125 2.031250 0.625000
v 1.328125 2.031250 0.312500
v 0.968750 1.859375 0.234375
v 1.781250 0.921875 0.468750
v 1.218750 1.000000 0.625000
v 1.562500 0.125000 0.750000
v 1.359375 -0.109375 0.500000
v 1.281250 0.125000 0.531250
v 0.984375 1.312500 0.687500
v 0.984375 1.312500 0.250000
v 0.968750 1.859375 0.703125
v 0.968750 1.859375 0.703125
v 0.968750 1.859375 0.234375
v 1.359375 -0.109375 0.312500
v 1.359375 -0.109375 0.500000
v 1.218750 1.000000 0.625000
v 1.281250 0.125000 0.531250
v 1.281250 0.125000 0.265625
v 1.562500 0.125000 0.062500
v 1.765625 0.125000 0.421875
v 1.359375 -0.109375 0.500000
v 1.359375 -0.109375 0.312500
v 1.500000 -0.187500 0.671875
v 1.296875 -0.187500 0.562500
v 1.515625 0.046875 0.406250
v 1.781250 -0.781250 0.468750
v 1.500000 -0.187500 0.171875
v 1.531250 -0.578125 0.125000
v 1.781250 -0.140625 0.328125
v 1.781250 -0.140625 0.515625
v 1.531250 -0.578125 0.828125
v 1.656250 -1.765625 0.703125
v 1.656250 -1.765625 0.265625
v 1.296875 -0.187500 0.281250
v 1.296875 -0.187500 0.281250
v 1.578125 -2.531250 0.703125
v 1.296875 -2.500000 0.640625
v 1.359375 -1.390625 0.640625
v 1.171875 -0.515625 0.281250
v 1.171875 -0.515625 0.687500
v 1.171875 -0.515625 0.281250
v 1.359375 -1.390625 0.328125
v 1.359375 -1.390625 0.328125
v 1.296875 -2.500000 0.328125
v 1.296875 -2.500000 0.328125
v 1.578125 -2.531250 0.265625
v 0.890625 -4.250000 1.109375
v 1.031250 -3.890625 1.078125
v 0.968750 -3.937500 1.031250
v 1.328125 -2.375000 0.656250
v 1.609375 -2.546875 0.593750
v 1.484375 -2.921875 0.703125
v 1.328125 -2.375000 0.281250
v 1.203125 -2.921875 0.187500
v 1.484375 -2.921875 0.296875
v 1.640625 -4.078125 1.015625
v 1.453125 -4.453125 0.937500
v 1.484375 -4.015625 1.015625
v 1.328125 -3.750000 0.656250
v 1.421875 -3.671875 -0.046875
v 1.500000 -4.046875 0.828125
v 1.656250 -3.578125 0.125000
v 1.562500 -3.640625 0.671875
v 1.156250 -3.750000 0.828125
v 1.203125 -2.921875 0.718750
v 1.531250 -3.578125 0.875000
v 1.609375 -2.546875 0.343750
v 0.906250 -3.875000 1.093750
v 1.015625 -3.609375 0.984375
v 1.312500 -3.656250 0.953125
v 1.234375 -4.218750 -0.140625
v 1.125000 -4.375000 0.359375
v 1.453125 -4.062500 0.000000
v 1.375000 -4.171875 0.406250
v -1.031250 -3.250000 1.031250
v -0.843750 -3.734375 0.421875
v -1.218750 -3.734375 0.421875
v -0.453125 -1.453125 0.609375
v -0.781250 -3.250000 0.734375
v -0.453125 -1.453125 0.609375
v -0.078125 -1.453125 -0.250000
v -0.843750 -3.203125 0.312500
v -1.203125 -1.453125 0.906250
v -0.843750 -3.203125 0.312500
v -1.203125 -0.593750 0.609375
v -1.500000 -1.453125 0.609375
v -1.281250 -3.250000 0.734375
v -0.609375 -0.843750 0.484375
v -0.359375 -0.703125 -0.250000
v -0.609375 -0.843750 0.484375
v -0.968750 -1.453125 -0.656250
v -0.656250 -0.421875 -0.656250
v -0.656250 -0.421875 -0.656250
v -0.359375 -0.703125 -0.250000
v -0.609375 -0.843750 0.484375
v -1.203125 -0.593750 0.609375
v -1.218750 -3.203125 0.312500
v -0.843750 -3.468750 0.062500
v -0.843750 -3.468750 0.062500
v -1.218750 -3.468750 0.062500
v -1.250000 -3.437500 -0.062500
v -1.015625 -3.906250 -0.406250
v -0.781250 -3.437500 -0.062500
v -0.703125 -3.906250 -0.234375
v -1.328125 -3.906250 -0.234375
v -1.015625 -6.156250 -0.421875
v -1.171875 -6.156250 -0.312500
v -0.781250 -3.437500 -0.062500
v -0.703125 -3.906250 -0.234375
v -0.781250 -3.906250 0.343750
v -0.828125 -3.609375 0.359375
v -1.250000 -3.906250 0.343750
v -1.203125 -3.609375 0.359375
v -0.859375 -6.156250 -0.312500
v -0.828125 -3.609375 0.359375
v -1.203125 -3.609375 0.359375
v -0.890625 -6.156250 -0.015625
v -0.859375 -6.156250 -0.312500
v -1.140625 -6.156250 -0.015625
v -0.796875 -7.203125 0.687502
v -1.000000 -6.843750 0.921877
v -0.859375 -6.453125 0.046875
v -0.734375 -6.812500 -0.249998
v -0.953125 -6.843750 -0.015623
v -1.250000 -6.812500 -0.343748
v -1.234375 -6.453125 -0.031250
v -1.125000 -6.843750 -0.046873
v -0.968750 -6.750000 -0.499998
v -1.406250 -6.843750 0.843752
v -1.515625 -7.203125 0.546877
v -1.125000 -6.843750 -0.046873
v -0.953125 -6.843750 -0.015623
v -0.812500 -6.171875 -0.203125
v -0.906250 -6.171875 -0.015625
v -1.187500 -6.171875 -0.062500
v -1.203125 -6.171875 -0.281250
v -0.984375 -6.171875 -0.406250
v -0.968750 -6.750000 -0.499998
v -1.718750 -7.203125 1.921877
v -1.546875 -6.953125 1.640625
v -1.125000 -6.953125 1.718750
v -1.046875 -7.203125 2.046875
v -0.968750 -6.750000 -0.499998
v -0.984375 -6.171875 -0.406250
v -0.796875 -7.203125 1.453127
v -1.765625 -7.203125 1.265627
v -1.578125 -6.984375 1.281250
v -0.984375 -6.984375 1.406250
v 1.218750 -3.734375 0.421875
v 0.843750 -3.734375 0.421875
v 1.031250 -3.250000 1.031250
v 0.781250 -3.250000 0.734375
v 0.453125 -1.453125 0.609375
v 0.843750 -3.203125 0.312500
v 0.078125 -1.453125 -0.250000
v 0.453125 -1.453125 0.609375
v 1.203125 -1.453125 0.906250
v 0.843750 -3.203125 0.312500
v 1.500000 -1.453125 0.609375
v 1.203125 -0.593750 0.609375
v 1.281250 -3.250000 0.734375
v 0.359375 -0.703125 -0.250000
v 0.609375 -0.843750 0.484375
v 0.609375 -0.843750 0.484375
v 0.656250 -0.421875 -0.656250
v 0.968750 -1.453125 -0.656250
v 0.359375 -0.703125 -0.250000
v 0.656250 -0.421875 -0.656250
v 1.203125 -0.593750 0.609375
v 0.609375 -0.843750 0.484375
v 1.218750 -3.203125 0.312500
v 0.843750 -3.468750 0.062500
v 0.843750 -3.468750 0.062500
v 1.218750 -3.468750 0.062500
v 0.781250 -3.453125 -0.062500
v 1.015625 -3.906250 -0.406250
v 1.250000 -3.453125 -0.062500
v 0.703125 -3.906250 -0.234375
v 1.328125 -3.906250 -0.234375
v 1.015625 -6.156250 -0.421875
v 1.171875 -6.156250 -0.312500
v 0.703125 -3.906250 -0.234375
v 0.781250 -3.453125 -0.062500
v 0.828125 -3.609375 0.359375
v 0.781250 -3.906250 0.343750
v 1.203125 -3.609375 0.359375
v 1.250000 -3.906250 0.343750
v 0.859375 -6.156250 -0.312500
v 1.203125 -3.609375 0.359375
v 0.828125 -3.609375 0.359375
v 0.890625 -6.156250 -0.015625
v 0.859375 -6.156250 -0.312500
v 1.140625 -6.156250 -0.015625
v 0.859375 -6.453125 0.046875
v 1.000000 -6.843750 0.921877
v 0.796875 -7.203125 0.687502
v 0.953125 -6.843750 -0.015623
v 0.734375 -6.812500 -0.249998
v 1.125000 -6.843750 -0.046873
v 1.234375 -6.453125 -0.031250
v 1.250000 -6.812500 -0.343748
v 0.968750 -6.750000 -0.499998
v 1.515625 -7.203125 0.546877
v 1.406250 -6.843750 0.843752
v 0.953125 -6.843750 -0.015623
v 1.125000 -6.843750 -0.046873
v 0.812500 -6.171875 -0.203125
v 0.906250 -6.171875 -0.015625
v 1.187500 -6.171875 -0.062500
v 1.203125 -6.171875 -0.281250
v 0.968750 -6.750000 -0.499998
v 0.984375 -6.171875 -0.406250
v 1.546875 -6.953125 1.640625
v 1.718750 -7.203125 1.921877
v 1.046875 -7.203125 2.046875
v 1.125000 -6.953125 1.718750
v 0.984375 -6.171875 -0.406250
v 0.968750 -6.750000 -0.499998
v 0.796875 -7.203125 1.453127
v 1.765625 -7.203125 1.265627
v 1.578125 -6.984375 1.281250
v 0.984375 -6.984375 1.406250
vn -0.0000 -0.9965 -0.0830
vn 0.9898 -0.1049 -0.0961
vn -0.8806 0.3113 0.3573
vn -0.2722 -0.1361 0.9526
vn -0.0000 1.0000 -0.0000
vn 0.0458 -0.9928 -0.1107
vn -0.0000 0.6139 0.7894
vn 0.5899 0.4806 -0.6489
vn 0.6029 -0.5225 -0.6029
vn -0.5899 0.4806 -0.6489
vn -0.6029 -0.5225 -0.6029
vn -0.9898 -0.1049 -0.0961
vn 0.8806 0.3113 0.3573
vn 0.2722 -0.1361 0.9526
vn -0.0000 -0.0688 0.9976
vn -0.0458 -0.9928 -0.1107
vn 0.3818 0.0513 0.9228
vn 0.2744 -0.0457 0.9605
vn -0.0000 -0.1920 -0.9814
vn 0.8894 -0.4219 -0.1757
vn 0.8911 -0.3386 -0.3022
vn 0.7395 0.6026 0.3001
vn 0.7082 0.6344 0.3098
vn 0.6592 -0.1992 -0.7251
vn 0.6972 -0.1667 -0.6972
vn -0.0000 -0.6823 -0.7311
vn -0.0000 0.5952 -0.8036
vn -0.6627 -0.1714 -0.7290
vn -0.6934 -0.1960 -0.6934
vn -0.9261 -0.3431 -0.1567
vn -0.8341 -0.4623 -0.3011
vn -0.7082 0.6344 0.3098
vn -0.7395 0.6026 0.3001
vn -0.2743 0.0533 0.9602
vn -0.3809 -0.0864 0.9206
vn -0.0000 -0.0000 -1.0000
vn -0.1935 0.7791 -0.5963
vn 0.7854 0.5261 0.3261
vn 0.6367 -0.1604 -0.7542
vn 0.6016 0.7811 -0.1670
vn 0.5631 0.1667 -0.8094
vn -0.5631 0.1667 -0.8094
vn -0.2676 -0.8497 -0.4542
vn -0.7854 0.5261 0.3261
vn 0.4326 0.2462 0.8673
vn 0.3607 0.4527 -0.8154
vn 0.3912 -0.9147 0.1016
vn 0.3652 -0.3477 -0.8635
vn -0.4326 0.2462 0.8673
vn -0.3607 0.4527 -0.8154
vn -0.3912 -0.9147 0.1016
vn -0.3652 -0.3477 -0.8635
vn 0.1935 0.7791 -0.5963
vn -0.7275 0.2728 -0.6295
vn 0.7275 0.2728 -0.6295
vn -0.6367 -0.1604 -0.7542
vn 0.2676 -0.8497 -0.4542
vn -0.6016 0.7811 -0.1670
vn -0.2505 0.2177 0.9433
vn -0.2099 0.2336 0.9494
vn 1.0000 -0.0000 -0.0000
vn -1.0000 -0.0000 -0.0000
vn 0.9575 0.0727 -0.2791
vn 0.9653 0.0222 -0.2604
vn -0.9556 0.0421 -0.2917
vn -0.9696 0.0414 -0.2414
vn 0.2011 -0.6182 0.7599
vn 0.2056 -0.6156 0.7608
vn -0.0000 -0.4375 -0.8992
vn 0.5169 -0.5750 0.6342
vn 0.4895 -0.5628 0.6660
vn -0.0000 -0.4244 -0.9055
vn -0.0000 0.4338 -0.9010
vn -0.4855 -0.5834 0.6511
vn -0.5175 -0.5540 0.6521
vn -0.2350 -0.9507 0.2026
vn -0.3567 -0.9275 0.1119
vn 0.2113 0.2198 0.9524
vn 0.2499 0.2368 0.9389
vn -0.0000 0.8266 -0.5628
vn 0.3521 -0.9154 0.1951
vn 0.2331 -0.9613 0.1466
vn -0.2053 -0.6176 0.7592
vn -0.2008 -0.6160 0.7617
vn 0.8485 -0.4693 -0.2446
vn 0.8401 -0.5005 -0.2091
vn -0.8485 -0.4693 -0.2446
vn -0.7866 0.3125 -0.5326
vn 0.4460 0.8704 -0.2084
vn 0.7903 0.1129 -0.6022
vn 0.7866 0.3125 -0.5326
vn -0.8340 -0.5069 -0.2180
vn -0.3906 -0.5351 -0.7491
vn -0.0000 0.8437 0.5369
vn 0.3906 -0.5351 -0.7491
vn -0.1961 0.5883 0.7845
vn -0.4460 0.8704 -0.2084
vn 0.1961 0.5883 0.7845
vn -0.7903 0.1129 -0.6022
vn 0.8340 -0.5069 -0.2180
vn -0.8256 0.1107 -0.5533
vn 0.7949 0.3298 -0.5092
vn 0.0314 -0.1910 0.9811
vn -0.0314 -0.1910 0.9811
vn -0.0000 0.5199 0.8542
vn -0.7949 0.3298 -0.5092
vn 0.8256 0.1107 -0.5533
vn -0.5117 0.8481 -0.1375
vn 0.5117 0.8481 -0.1375
vn -0.8401 -0.5005 -0.2091
vn 0.6691 0.0821 -0.7386
vn 0.6316 0.1520 -0.7602
vn -0.6357 -0.0000 -0.7719
vn -0.5854 0.0836 -0.8064
vn -0.4235 -0.9055 -0.0262
vn -0.5195 -0.8535 0.0397
vn 0.5195 -0.8535 0.0397
vn 0.4235 -0.9055 -0.0262
vn -0.6351 0.3722 -0.6768
vn -0.6667 0.3333 -0.6667
vn -0.4959 -0.8147 -0.3007
vn -0.6010 -0.7656 -0.2297
vn 0.5735 -0.0000 -0.8192
vn 0.6523 0.0932 -0.7522
vn 0.6655 0.3597 -0.6540
vn 0.6370 0.3365 -0.6935
vn 0.6010 -0.7656 -0.2297
vn 0.4959 -0.8147 -0.3007
vn -0.6831 0.1432 -0.7161
vn -0.6240 0.0863 -0.7767
vn -0.3767 0.1886 0.9069
vn 0.4002 -0.0124 -0.9164
vn 0.4002 -0.0124 0.9164
vn -0.4766 0.5247 0.7054
vn -0.5340 0.0531 -0.8438
vn 0.5934 -0.6594 -0.4616
vn 0.5934 -0.6594 0.4616
vn -0.2480 -0.7936 0.5555
vn -0.2480 -0.7936 -0.5555
vn 0.9864 0.1644 -0.0000
vn 0.7362 0.3612 -0.5723
vn 0.7362 0.3612 0.5723
vn -0.5340 0.0531 0.8438
vn -0.4766 0.5247 -0.7054
vn -0.3767 0.1886 -0.9069
vn -0.5623 0.3186 -0.7631
vn -0.5453 0.2868 -0.7877
vn -0.9985 0.0555 -0.0000
vn 0.7071 -0.7071 -0.0000
vn -0.4167 -0.9091 -0.0000
vn -0.9986 0.0535 -0.0000
vn 0.8441 -0.0150 0.5360
vn 0.8699 -0.0385 0.4917
vn 0.8498 0.0342 -0.5260
vn 0.8350 0.0486 -0.5480
vn -0.6006 -0.0106 0.7994
vn -0.5647 0.0052 0.8253
vn -0.5884 0.1169 -0.8001
vn -0.5891 0.1172 -0.7995
vn -0.7849 0.6196 -0.0000
vn 0.8366 0.2765 0.4729
vn 0.8370 0.2790 0.4708
vn 0.8180 0.2727 -0.5064
vn 0.8038 0.2947 -0.5167
vn -0.9487 0.3162 -0.0000
vn -0.5324 0.3331 0.7782
vn -0.5380 0.3268 0.7771
vn -0.3303 -0.7173 -0.6135
vn 0.8369 -0.1307 0.5314
vn 0.2712 -0.6715 0.6896
vn 0.8554 -0.2499 -0.4538
vn 0.8280 -0.0282 -0.5600
vn 0.8133 -0.0167 0.5816
vn 0.9920 0.1260 -0.0000
vn -0.7311 -0.6823 -0.0000
vn 0.2410 -0.7207 -0.6500
vn 0.5007 0.1856 0.8455
vn -0.3503 -0.6739 0.6505
vn 0.4927 0.0635 -0.8679
vn 0.5767 -0.8170 -0.0000
vn -0.1833 -0.0187 -0.9829
vn -0.2156 -0.0121 -0.9764
vn -0.9345 -0.3560 -0.0000
vn -0.2634 -0.4294 -0.8639
vn -0.4523 -0.2998 -0.8400
vn -0.3858 -0.0794 0.9191
vn -0.4666 -0.1777 0.8665
vn -0.9778 0.2095 -0.0000
vn -0.3536 0.1254 -0.9270
vn -0.3815 0.1364 -0.9143
vn -0.3536 0.1254 0.9270
vn -0.4160 0.1500 0.8969
vn -0.9984 -0.0562 -0.0000
vn -0.1928 -0.0109 0.9812
vn -0.2146 -0.0219 0.9765
vn 0.9948 0.1015 -0.0000
vn 0.7127 0.3326 0.6176
vn 0.3111 -0.1691 -0.9352
vn 0.3614 -0.0767 0.9293
vn -0.0683 0.1707 -0.9830
vn -0.9605 0.2321 0.1538
vn 0.7540 0.2505 0.6072
vn 0.9611 -0.2025 -0.1879
vn -0.7061 0.0533 0.7061
vn 0.9692 -0.2337 -0.0772
vn -0.9913 -0.0882 0.0973
vn 0.2406 -0.0410 0.9698
vn 0.0552 -0.1009 -0.9934
vn -0.9888 0.1493 -0.0000
vn 0.1284 -0.0359 -0.9911
vn 0.1491 -0.3207 -0.9354
vn 0.3015 0.9045 -0.3015
vn -0.7613 0.0424 0.6470
vn -0.7071 -0.0000 0.7071
vn 0.6016 0.7814 0.1660
vn 0.6249 0.7788 0.0543
vn -0.9749 -0.2228 -0.0000
vn 0.9487 0.3162 -0.0000
vn 0.5214 -0.8533 -0.0000
vn 0.0536 -0.2566 -0.9650
vn 0.2127 -0.3257 -0.9212
vn 0.9819 -0.1599 -0.1019
vn 0.9975 -0.0712 -0.0000
vn 0.3369 -0.3690 0.8662
vn 0.4657 -0.3363 0.8185
vn -0.9347 -0.3448 0.0863
vn -0.9359 -0.3379 0.0991
vn 0.6087 0.0732 0.7900
vn 0.5476 0.0138 0.8366
vn 0.9269 0.3669 -0.0795
vn 0.9064 0.4082 -0.1087
vn 0.6386 0.7632 0.0988
vn 0.6172 0.7815 0.0917
vn -0.9019 0.4319 0.0032
vn -0.8847 0.4558 -0.0974
vn 0.1591 0.4653 -0.8707
vn 0.2535 0.5027 -0.8265
vn 0.1170 -0.2925 -0.9491
vn 0.2350 -0.2745 -0.9324
vn 0.8035 -0.1287 0.5812
vn 0.3095 0.5527 0.7738
vn -0.7332 -0.0220 0.6797
vn -0.7211 0.0288 0.6922
vn 0.1490 -0.3201 -0.9356
vn 0.1568 -0.3201 -0.9343
vn 0.3782 0.1927 0.9054
vn -0.3889 -0.0092 -0.9212
vn -0.3889 -0.0092 0.9212
vn 0.4709 0.4987 0.7277
vn 0.5495 0.0395 -0.8346
vn -0.5702 -0.6730 -0.4711
vn -0.5702 -0.6730 0.4711
vn 0.2581 -0.7915 0.5540
vn 0.2581 -0.7915 -0.5540
vn -0.9826 0.1859 -0.0000
vn -0.7229 0.3727 -0.5819
vn -0.7229 0.3727 0.5819
vn 0.5495 0.0395 0.8346
vn 0.4709 0.4987 -0.7277
vn 0.3782 0.1927 -0.9054
vn 0.5692 0.3162 -0.7589
vn 0.5864 0.2960 -0.7540
vn 0.9996 0.0286 -0.0000
vn -0.6866 -0.7270 -0.0000
vn 0.4315 -0.9021 -0.0000
vn 0.9975 0.0712 -0.0000
vn -0.8471 -0.0377 0.5301
vn -0.8705 -0.0119 0.4920
vn -0.8364 0.0365 -0.5470
vn -0.8493 0.0476 -0.5258
vn 0.5855 -0.0016 0.8107
vn 0.5993 0.0067 0.8005
vn 0.6100 0.1137 -0.7842
vn 0.5828 0.1276 -0.8026
vn 0.8000 0.6000 -0.0000
vn -0.8114 0.2907 0.5071
vn -0.8480 0.2261 0.4793
vn -0.7952 0.2121 -0.5680
vn -0.8139 0.2894 -0.5038
vn 0.5645 0.3387 0.7527
vn 0.5544 0.3213 0.7677
vn 0.3303 -0.7173 -0.6135
vn -0.8369 -0.1307 0.5314
vn -0.2712 -0.6715 0.6896
vn -0.8554 -0.2499 -0.4538
vn -0.8280 -0.0282 -0.5600
vn -0.8133 -0.0167 0.5816
vn -0.9920 0.1260 -0.0000
vn 0.7311 -0.6823 -0.0000
vn -0.2410 -0.7207 -0.6500
vn -0.5007 0.1856 0.8455
vn 0.3503 -0.6739 0.6505
vn -0.4927 0.0635 -0.8679
vn -0.5767 -0.8170 -0.0000
vn 0.2146 -0.0219 -0.9765
vn 0.1928 -0.0109 -0.9812
vn 0.9345 -0.3560 -0.0000
vn 0.4213 -0.4586 -0.7824
vn 0.2923 -0.3349 -0.8958
vn 0.4730 -0.0676 0.8785
vn 0.3737 -0.1424 0.9165
vn 0.9778 0.2095 -0.0000
vn 0.3809 0.1307 -0.9153
vn 0.3649 0.1354 -0.9211
vn 0.3793 0.1481 0.9133
vn 0.4149 0.1371 0.8995
vn 0.9984 -0.0562 -0.0000
vn 0.2156 -0.0121 0.9764
vn 0.1833 -0.0187 0.9829
vn -0.9948 0.1015 -0.0000
vn -0.7127 0.3326 0.6176
vn -0.3111 -0.1691 -0.9352
vn -0.3614 -0.0767 0.9293
vn 0.0683 0.1707 -0.9830
vn 0.9605 0.2321 0.1538
vn -0.7540 0.2505 0.6072
vn -0.9611 -0.2025 -0.1879
vn 0.7061 0.0533 0.7061
vn -0.9692 -0.2337 -0.0772
vn 0.9913 -0.0882 0.0973
vn -0.2406 -0.0410 0.9698
vn -0.0552 -0.1009 -0.9934
vn 0.9888 0.1493 -0.0000
vn -0.1284 -0.0359 -0.9911
vn -0.1491 -0.3207 -0.9354
vn -0.3015 0.9045 -0.3015
vn 0.7613 0.0424 0.6470
vn 0.7071 -0.0000 0.7071
vn -0.6452 0.7570 0.1032
vn -0.5934 0.7911 0.1483
vn 0.9749 -0.2228 -0.0000
vn -0.5215 -0.8533 -0.0000
vn -0.2403 -0.2620 -0.9347
vn -0.0527 -0.3107 -0.9490
vn -0.9874 -0.1021 -0.1205
vn -0.9941 -0.1081 -0.0000
vn -0.4420 -0.3825 0.8114
vn -0.3433 -0.3211 0.8827
vn -0.9376 0.3365 -0.0876
vn -0.9325 0.3483 -0.0952
vn -0.5667 0.0533 0.8222
vn -0.6029 0.0473 0.7964
vn -0.9176 0.3808 -0.1138
vn -0.9137 0.4007 -0.0678
vn -0.6378 0.7657 0.0835
vn -0.6223 0.7756 0.1062
vn 0.8680 0.4965 -0.0104
vn 0.9045 0.4179 -0.0844
vn -0.1708 0.4882 -0.8559
vn -0.2288 0.4773 -0.8484
vn -0.0838 -0.2095 -0.9742
vn -0.2203 -0.3085 -0.9254
vn -0.7235 0.3419 0.5996
vn -0.2371 0.3803 0.8940
vn 0.7391 -0.0094 0.6736
vn -0.1562 -0.3123 -0.9370
vn -0.1494 -0.3233 -0.9344
vn -0.0000 0.7828 -0.6222
vn -0.7615 0.0944 -0.6413
vn -0.8843 0.2629 -0.3859
vn -0.3662 -0.0994 -0.9252
vn -0.6802 0.4573 -0.5728
vn -0.9683 0.1882 0.1644
vn 0.6869 -0.2373 -0.6869
vn 0.6802 0.4573 -0.5728
vn 0.7066 0.0369 -0.7066
vn 0.7646 0.0283 -0.6439
vn -0.8735 -0.3276 -0.3601
vn -0.8737 -0.3022 -0.3812
vn -0.3539 -0.2742 -0.8942
vn -0.3189 -0.3095 -0.8958
vn 0.8786 -0.3035 0.3688
vn 0.8963 -0.2716 0.3504
vn -0.4118 0.1248 0.9027
vn -0.8567 -0.3213 0.4036
vn -0.4037 -0.8634 -0.3027
vn -0.4231 -0.8553 -0.2990
vn -0.3750 0.4283 0.8221
vn -0.0000 0.4843 0.8749
vn -0.9882 0.0308 0.1498
vn -0.0000 -0.6854 0.7282
vn 0.9835 -0.1241 0.1319
vn 0.9941 0.0869 0.0642
vn 0.9786 0.1302 0.1594
vn 0.9189 0.0823 0.3857
vn -0.0000 -0.5914 0.8064
vn -0.4472 -0.3727 0.8131
vn 0.4472 -0.3727 0.8131
vn 0.4819 -0.0061 0.8762
vn 0.5734 0.0114 0.8192
vn -0.9844 -0.1153 -0.1330
vn -0.9751 -0.1452 -0.1675
vn -0.0000 0.0526 -0.9986
vn 0.9801 -0.1478 -0.1324
vn 0.9823 -0.1076 -0.1530
vn -0.5735 -0.0057 0.8192
vn -0.4819 0.0030 0.8762
vn -0.0000 -0.9261 -0.3773
vn -0.9886 0.0694 -0.1336
vn -0.9919 0.0725 -0.1044
vn -0.0000 0.1577 -0.9875
vn 0.9883 0.0733 -0.1336
vn 0.9924 0.0649 -0.1045
vn -0.9019 -0.3216 -0.2885
vn -0.7209 0.2748 -0.6362
vn 0.8982 0.2655 -0.3503
vn -0.0524 0.9561 0.2882
vn 0.9457 -0.3224 0.0418
vn -0.9377 0.1772 0.2989
vn 0.7638 0.1892 0.6170
vn -0.0206 0.9934 0.1132
vn -0.9535 -0.0953 -0.2860
vn -0.8680 -0.2411 -0.4340
vn 0.2006 -0.1805 -0.9629
vn 0.1629 -0.1357 -0.9773
vn 0.9810 -0.1498 0.1232
vn 0.9953 -0.0659 -0.0711
vn -0.7393 -0.1272 0.6613
vn -0.7560 -0.1390 0.6397
vn 0.1148 -0.7763 -0.6199
vn 0.1152 -0.7767 -0.6192
vn 0.4922 -0.1264 0.8613
vn 0.5024 -0.1203 0.8562
vn 0.0818 -0.9160 -0.3928
vn 0.0762 -0.9150 -0.3962
vn -0.0852 0.8794 0.4684
vn -0.0921 0.8775 0.4706
vn 0.8245 -0.4878 0.2868
vn 0.7534 -0.6519 0.0864
vn 0.0550 -0.9567 -0.2859
vn 0.0590 -0.9582 -0.2801
vn -0.8926 -0.4400 -0.0989
vn -0.7593 -0.6508 -0.0000
vn 0.7600 -0.6476 -0.0543
vn 0.8132 -0.5817 -0.0201
vn -0.0186 -0.9959 0.0882
vn -0.0170 -0.9956 0.0919
vn -0.7073 -0.6603 -0.2523
vn -0.7206 -0.6234 -0.3034
vn 0.7615 0.0944 -0.6413
vn 0.8843 0.2629 -0.3859
vn 0.3662 -0.0994 -0.9252
vn 0.9683 0.1882 0.1644
vn -0.6869 -0.2373 -0.6869
vn -0.7640 0.0483 -0.6434
vn -0.7070 0.0184 -0.7070
vn 0.8840 -0.3002 -0.3584
vn 0.8668 -0.3250 -0.3782
vn 0.3044 -0.2657 -0.9147
vn 0.3504 -0.3058 -0.8853
vn -0.8882 -0.3068 0.3421
vn -0.8880 -0.2691 0.3728
vn 0.7113 0.2155 0.6690
vn 0.4101 -0.1538 0.8990
vn 0.4124 -0.8618 -0.2952
vn 0.4235 -0.8522 -0.3074
vn -0.0000 0.3060 0.9520
vn 0.3616 0.4906 0.7928
vn -0.9133 0.1378 0.3833
vn -0.9882 -0.0641 0.1393
vn -0.0000 -0.6044 0.7967
vn 0.4450 -0.3837 0.8092
vn -0.4450 -0.3837 0.8092
vn 0.9822 -0.1122 -0.1507
vn -0.9759 -0.1456 -0.1623
vn -0.9839 -0.1192 -0.1330
vn -0.0000 -0.9377 -0.3473
vn 0.9019 -0.3216 -0.2885
vn 0.7209 0.2748 -0.6362
vn -0.8982 0.2655 -0.3503
vn 0.0524 0.9561 0.2882
vn -0.9457 -0.3224 0.0418
vn 0.9377 0.1772 0.2989
vn -0.7638 0.1892 0.6170
vn 0.0206 0.9934 0.1132
vn 0.8918 -0.0761 -0.4459
vn 0.9659 -0.1981 -0.1669
vn -0.1615 -0.1884 -0.9687
vn -0.2019 -0.1413 -0.9692
vn -0.9827 -0.1716 -0.0702
vn -0.9963 -0.0766 0.0383
vn 0.7575 -0.1244 0.6409
vn 0.7395 -0.1384 0.6587
vn -0.1153 -0.7764 -0.6197
vn -0.1147 -0.7768 -0.6192
vn -0.5029 -0.1251 0.8552
vn -0.4925 -0.1201 0.8620
vn -0.0758 -0.9160 -0.3940
vn -0.0823 -0.9149 -0.3952
vn 0.0918 0.8783 0.4693
vn 0.0861 0.8764 0.4738
vn -0.7257 -0.6400 0.2524
vn -0.8766 -0.4356 0.2044
vn -0.0598 -0.9569 -0.2841
vn -0.0538 -0.9585 -0.2800
vn 0.7302 -0.6621 -0.1687
vn 0.8706 -0.4921 -0.0000
vn -0.7919 -0.6081 -0.0566
vn -0.7596 -0.6504 -0.0095
vn 0.0163 -0.9960 0.0880
vn 0.0191 -0.9957 0.0910
vn 0.7507 -0.5993 -0.2779
vn 0.6942 -0.6577 -0.2923
vt 0.531250 0.337891
vt 0.421875 0.373047
vt 0.640625 0.373047
vt 0.609375 0.259766
vt 0.687500 0.232422
vt 0.695312 0.103516
vt 0.988281 0.111328
vt 0.863281 0.103516
vt 0.949219 0.259766
vt 0.503906 0.095703
vt 0.449219 0.259766
vt 0.531250 0.275391
vt 0.781250 0.013672
vt 0.722656 0.033203
vt 0.835938 0.033203
vt 0.468750 0.337891
vt 0.558594 0.095703
vt 0.531250 0.009766
vt 0.746094 0.103516
vt 0.742188 0.236328
vt 0.816406 0.103516
vt 0.921875 0.373047
vt 0.871094 0.232422
vt 0.820312 0.236328
vt 0.593750 0.337891
vt 0.964844 0.337891
vt 0.988281 0.009766
vt 0.703125 0.681641
vt 0.781250 0.697266
vt 0.863281 0.681641
vt 0.828125 0.462891
vt 0.957031 0.462891
vt 0.835938 0.419922
vt 0.574219 0.380859
vt 0.574219 0.494141
vt 0.621094 0.466797
vt 0.578125 0.638672
vt 0.753906 0.626953
vt 0.683594 0.376953
vt 0.621094 0.603516
vt 0.769531 0.583984
vt 0.757812 0.466797
vt 0.796875 0.466797
vt 0.792969 0.583984
vt 0.945312 0.607422
vt 0.976562 0.642578
vt 0.808594 0.626953
vt 0.988281 0.494141
vt 0.984375 0.376953
vt 0.488281 0.490234
vt 0.570312 0.490234
vt 0.722656 0.419922
vt 0.562500 0.685547
vt 0.492188 0.638672
vt 0.574219 0.384766
vt 0.492188 0.490234
vt 0.886719 0.376953
vt 0.574219 0.638672
vt 0.726562 0.462891
vt 0.414062 0.486328
vt 0.484375 0.380859
vt 0.664062 0.615234
vt 0.683594 0.611328
vt 0.687500 0.599609
vt 0.656250 0.607422
vt 0.656250 0.642578
vt 0.687500 0.654297
vt 0.718750 0.677734
vt 0.667969 0.662109
vt 0.414062 0.634766
vt 0.453125 0.701172
vt 0.562500 0.681641
vt 0.496094 0.638672
vt 0.941406 0.814453
vt 0.980469 0.919922
vt 0.769531 0.943359
vt 0.644531 0.837891
vt 0.589844 0.736328
vt 0.554688 0.810547
vt 0.812500 0.744141
vt 0.558594 0.888672
vt 0.507812 0.869141
vt 0.562500 0.943359
vt 0.582031 0.677734
vt 0.597656 0.685547
vt 0.625000 0.701172
vt 0.664062 0.744141
vt 0.707031 0.751953
vt 0.550781 0.724609
vt 0.707031 0.865234
vt 0.734375 0.888672
vt 0.746094 0.912109
vt 0.667969 0.869141
vt 0.500000 0.794922
vt 0.957031 0.986328
vt 0.773438 0.994141
vt 0.070312 0.943359
vt 0.078125 0.810547
vt 0.035156 0.865234
vt 0.144531 0.888672
vt 0.167969 0.943359
vt 0.160156 0.810547
vt 0.097656 0.888672
vt 0.121094 0.619141
vt 0.144531 0.619141
vt 0.093750 0.619141
vt 0.035156 0.814453
vt 0.222656 0.990234
vt 0.210938 0.861328
vt 0.136719 0.982422
vt 0.105469 0.982422
vt 0.031250 0.990234
vt 0.121094 0.791016
vt 0.210938 0.810547
vt 0.156250 0.658203
vt 0.203125 0.662109
vt 0.191406 0.615234
vt 0.035156 0.869141
vt 0.000000 0.865234
vt 0.000000 0.990234
vt 0.144531 1.001953
vt 0.097656 1.001953
vt 0.109375 0.619141
vt 0.128906 0.619141
vt 0.003906 0.654297
vt 0.000000 0.810547
vt 0.039062 0.658203
vt 0.121094 0.658203
vt 0.085938 0.658203
vt 0.015625 0.615234
vt 0.058594 0.619141
vt 0.121094 0.630859
vt 0.046875 0.607422
vt 0.074219 0.607422
vt 0.164062 0.564453
vt 0.164062 0.607422
vt 0.121094 0.541016
vt 0.128906 0.611328
vt 0.109375 0.611328
vt 0.078125 0.564453
vt 0.093750 0.435547
vt 0.144531 0.435547
vt 0.007812 0.607422
vt 0.191406 0.607422
vt 0.085938 0.349609
vt 0.054688 0.474609
vt 0.046875 0.357422
vt 0.007812 0.568359
vt 0.046875 0.568359
vt 0.195312 0.568359
vt 0.000000 0.474609
vt 0.187500 0.474609
vt 0.007812 0.357422
vt 0.191406 0.357422
vt 0.152344 0.349609
vt 0.007812 0.189453
vt 0.035156 0.181641
vt 0.015625 0.138672
vt 0.082031 0.310547
vt 0.097656 0.361328
vt 0.031250 0.369141
vt 0.148438 0.310547
vt 0.191406 0.310547
vt 0.199219 0.369141
vt 0.062500 0.158203
vt 0.089844 0.119141
vt 0.074219 0.158203
vt 0.203125 0.212891
vt 0.089844 0.205078
vt 0.089844 0.162109
vt 0.093750 0.220703
vt 0.175781 0.228516
vt 0.042969 0.310547
vt 0.019531 0.228516
vt 0.074219 0.224609
vt 0.140625 0.361328
vt 0.019531 0.189453
vt 0.046875 0.216797
vt 0.035156 0.220703
vt 0.117188 0.123047
vt 0.214844 0.142578
vt 0.195312 0.166016
vt 0.125000 0.142578
vt 0.265625 0.537109
vt 0.265625 0.458984
vt 0.300781 0.458984
vt 0.218750 0.814453
vt 0.242188 0.537109
vt 0.480469 0.814453
vt 0.437500 0.814453
vt 0.363281 0.544922
vt 0.273438 0.814453
vt 0.222656 0.544922
vt 0.285156 0.951172
vt 0.296875 0.814453
vt 0.296875 0.537109
vt 0.480469 0.919922
vt 0.449219 0.955078
vt 0.226562 0.912109
vt 0.382812 0.814453
vt 0.398438 0.974609
vt 0.398438 0.978516
vt 0.363281 0.998047
vt 0.281250 0.994141
vt 0.285156 0.947266
vt 0.328125 0.544922
vt 0.218750 0.482422
vt 0.367188 0.501953
vt 0.332031 0.501953
vt 0.316406 0.474609
vt 0.347656 0.431641
vt 0.382812 0.474609
vt 0.371094 0.431641
vt 0.324219 0.431641
vt 0.347656 0.255859
vt 0.304688 0.255859
vt 0.230469 0.474609
vt 0.218750 0.431641
vt 0.257812 0.431641
vt 0.261719 0.458984
vt 0.285156 0.431641
vt 0.281250 0.458984
vt 0.390625 0.255859
vt 0.382812 0.494141
vt 0.339844 0.490234
vt 0.261719 0.255859
vt 0.238281 0.255859
vt 0.281250 0.255859
vt 0.367188 0.134766
vt 0.339844 0.111328
vt 0.347656 0.185547
vt 0.375000 0.216797
vt 0.394531 0.181641
vt 0.253906 0.212891
vt 0.273438 0.185547
vt 0.238281 0.185547
vt 0.320312 0.224609
vt 0.273438 0.111328
vt 0.250000 0.134766
vt 0.300781 0.197266
vt 0.332031 0.197266
vt 0.375000 0.248047
vt 0.347656 0.251953
vt 0.281250 0.251953
vt 0.253906 0.251953
vt 0.402344 0.248047
vt 0.402344 0.220703
vt 0.234375 0.005859
vt 0.269531 0.033203
vt 0.343750 0.033203
vt 0.367188 0.005859
vt 0.222656 0.216797
vt 0.226562 0.248047
vt 0.386719 0.064453
vt 0.226562 0.064453
vt 0.265625 0.068359
vt 0.347656 0.068359
s 0
usemtl Arabesque_(Biped)
f 1/1/1 2/2/1 3/3/1
f 4/4/2 5/5/2 6/6/2
f 7/7/3 8/8/3 9/9/3
f 10/10/4 11/11/4 12/12/4
f 13/13/5 14/14/5 15/15/5
f 1/1/6 16/16/6 2/2/6
f 10/10/7 17/17/7 18/18/7
f 14/14/8 6/6/8 19/19/8
f 3/3/9 20/20/9 5/5/9
f 15/15/10 21/21/10 8/8/10
f 22/22/11 23/23/11 24/24/11
f 8/8/12 23/23/12 9/9/12
f 4/4/13 6/6/13 17/17/13
f 12/12/14 4/4/14 17/17/14
f 17/17/15 10/10/15 12/12/15
f 3/3/16 25/25/16 1/1/16
f 12/12/17 1/1/17 25/25/17
f 25/25/18 4/4/18 12/12/18
f 19/19/19 20/20/19 24/24/19
f 24/24/19 21/21/19 19/19/19
f 3/3/20 5/5/20 4/4/20
f 4/4/21 25/25/21 3/3/21
f 17/17/22 6/6/22 14/14/22
f 14/14/23 18/18/23 17/17/23
f 19/19/24 6/6/24 5/5/24
f 5/5/25 20/20/25 19/19/25
f 22/22/26 24/24/26 20/20/26
f 20/20/26 3/3/26 22/22/26
f 14/14/27 19/19/27 21/21/27
f 21/21/27 15/15/27 14/14/27
f 8/8/28 21/21/28 24/24/28
f 24/24/29 23/23/29 8/8/29
f 26/26/30 9/9/30 23/23/30
f 23/23/31 22/22/31 26/26/31
f 7/7/32 27/27/32 15/15/32
f 15/15/33 8/8/33 7/7/33
f 1/1/34 12/12/34 11/11/34
f 11/11/35 16/16/35 1/1/35
f 28/28/36 29/29/36 30/30/36
f 31/31/37 32/32/37 33/33/37
f 34/34/38 35/35/38 36/36/38
f 37/37/39 28/28/39 38/38/39
f 36/36/40 39/39/40 34/34/40
f 40/40/41 41/41/41 42/42/41
f 43/43/42 44/44/42 45/45/42
f 46/46/43 45/45/43 47/47/43
f 32/32/44 48/48/44 49/49/44
f 34/34/45 50/50/45 51/51/45
f 39/39/46 36/36/46 52/52/46
f 53/53/47 37/37/47 54/54/47
f 38/38/48 41/41/48 40/40/48
f 55/55/49 56/51/49 57/56/49
f 58/57/50 33/33/50 32/32/50
f 59/53/51 60/54/51 61/58/51
f 47/47/52 45/45/52 44/44/52
f 62/59/53 52/52/53 36/36/53
f 45/45/54 32/32/54 43/43/54
f 42/42/55 36/36/55 40/40/55
f 47/47/56 30/30/56 46/46/56
f 38/38/57 40/40/57 37/37/57
f 49/49/58 58/57/58 32/32/58
f 63/60/59 64/61/59 55/55/59
f 55/55/60 57/56/60 63/60/60
f 65/62/61 66/63/61 67/64/61
f 67/64/61 68/65/61 65/62/61
f 68/65/62 67/64/62 66/63/62
f 66/63/62 65/62/62 68/65/62
f 69/66/61 70/67/61 71/68/61
f 71/68/61 72/69/61 69/66/61
f 72/69/62 71/68/62 70/67/62
f 70/67/62 69/66/62 72/69/62
f 35/35/63 37/37/63 40/40/63
f 40/40/64 36/36/64 35/35/64
f 32/32/65 45/45/65 46/46/65
f 46/46/66 48/48/66 32/32/66
f 63/60/67 73/70/67 54/54/67
f 54/54/68 50/50/68 63/60/68
f 28/28/69 30/30/69 47/47/69
f 47/47/69 38/38/69 28/28/69
f 54/54/70 37/37/70 51/51/70
f 51/51/71 50/50/71 54/54/71
f 47/47/72 44/44/72 41/41/72
f 41/41/72 38/38/72 47/47/72
f 58/57/73 39/39/73 52/52/73
f 52/52/73 33/33/73 58/57/73
f 57/56/74 56/51/74 74/37/74
f 74/37/75 60/54/75 57/56/75
f 75/71/76 73/70/76 60/54/76
f 60/54/77 76/72/77 75/71/77
f 64/61/78 63/60/78 77/56/78
f 77/56/79 34/34/79 64/61/79
f 62/59/80 31/31/80 33/33/80
f 33/33/80 52/52/80 62/59/80
f 73/70/81 75/71/81 53/53/81
f 53/53/82 54/54/82 73/70/82
f 73/70/83 63/60/83 57/56/83
f 57/56/84 78/73/84 73/70/84
f 79/74/85 80/75/85 81/76/85
f 81/76/86 82/77/86 79/74/86
f 83/76/87 84/75/87 85/74/87
f 86/78/88 87/79/88 88/77/88
f 89/80/89 79/74/89 82/77/89
f 90/81/90 91/79/90 82/77/90
f 82/77/91 91/79/91 92/78/91
f 93/81/92 83/76/92 88/77/92
f 93/81/93 94/82/93 95/83/93
f 96/84/94 97/85/94 98/86/94
f 94/82/95 90/81/95 95/83/95
f 99/87/96 98/86/96 100/88/96
f 88/77/97 85/74/97 89/80/97
f 101/86/98 102/87/98 100/88/98
f 88/77/99 87/79/99 93/81/99
f 82/77/100 81/76/100 90/81/100
f 102/87/101 101/86/101 86/78/101
f 99/87/102 82/77/102 92/78/102
f 102/87/103 88/77/103 100/88/103
f 100/88/104 82/77/104 99/87/104
f 100/88/105 103/85/105 101/86/105
f 86/78/106 88/77/106 102/87/106
f 92/78/107 98/86/107 99/87/107
f 89/80/108 100/88/108 88/77/108
f 82/77/109 100/88/109 89/80/109
f 85/74/110 88/77/110 83/76/110
f 104/89/111 96/84/111 98/86/111
f 98/86/112 92/78/112 104/89/112
f 105/90/61 106/91/61 107/92/61
f 107/92/61 108/93/61 105/90/61
f 108/93/62 107/92/62 106/91/62
f 106/91/62 105/90/62 108/93/62
f 87/79/113 109/94/113 94/82/113
f 94/82/114 93/81/114 87/79/114
f 110/95/115 84/75/115 83/76/115
f 83/76/116 111/96/116 110/95/116
f 110/95/117 111/96/117 81/76/117
f 81/76/118 80/75/118 110/95/118
f 86/78/119 104/89/119 109/94/119
f 109/94/120 87/79/120 86/78/120
f 111/96/121 83/76/121 93/81/121
f 93/81/122 95/83/122 111/96/122
f 90/81/123 94/82/123 109/94/123
f 109/94/124 91/79/124 90/81/124
f 91/79/125 109/94/125 104/89/125
f 104/89/126 92/78/126 91/79/126
f 111/96/127 95/83/127 90/81/127
f 90/81/128 81/76/128 111/96/128
f 86/78/129 101/86/129 96/84/129
f 96/84/130 104/89/130 86/78/130
f 112/97/131 113/98/131 114/99/131
f 115/100/132 116/101/132 117/102/132
f 113/98/133 112/97/133 118/103/133
f 119/104/5 120/105/5 121/106/5
f 113/98/134 122/107/134 114/99/134
f 116/101/135 123/108/135 124/109/135
f 115/100/136 125/110/136 116/101/136
f 126/111/137 118/103/137 112/97/137
f 112/97/138 127/112/138 126/111/138
f 123/108/139 116/101/139 125/110/139
f 128/113/140 118/103/140 115/100/140
f 117/102/141 128/113/141 115/100/141
f 118/103/142 128/113/142 113/98/142
f 114/99/143 127/112/143 112/97/143
f 124/109/144 129/114/144 117/102/144
f 124/109/145 117/102/145 116/101/145
f 120/105/146 130/115/146 131/116/146
f 131/116/147 132/117/147 120/105/147
f 133/118/148 134/119/148 135/120/148
f 135/120/148 127/112/148 133/118/148
f 118/103/149 126/111/149 125/110/149
f 125/110/149 115/100/149 118/103/149
f 136/121/150 125/110/150 126/111/150
f 126/111/150 137/122/150 136/121/150
f 138/123/5 121/106/5 120/105/5
f 120/105/5 139/124/5 138/123/5
f 140/125/151 141/126/151 122/107/151
f 122/107/151 142/127/151 140/125/151
f 113/98/152 128/113/152 143/128/152
f 143/128/153 144/129/153 113/98/153
f 117/102/154 130/115/154 143/128/154
f 143/128/155 128/113/155 117/102/155
f 142/127/156 122/107/156 113/98/156
f 113/98/157 144/129/157 142/127/157
f 130/115/158 117/102/158 129/114/158
f 129/114/159 131/116/159 130/115/159
f 134/119/160 133/118/160 122/107/160
f 122/107/160 141/126/160 134/119/160
f 121/106/161 144/129/161 143/128/161
f 143/128/162 119/104/162 121/106/162
f 119/104/163 143/128/163 130/115/163
f 130/115/164 120/105/164 119/104/164
f 145/130/165 140/125/165 142/127/165
f 142/127/165 146/131/165 145/130/165
f 146/131/166 142/127/166 144/129/166
f 144/129/167 121/106/167 146/131/167
f 147/132/168 148/133/168 149/134/168
f 150/135/169 151/136/169 152/137/169
f 147/132/170 153/138/170 151/136/170
f 154/139/61 152/137/61 153/138/61
f 149/134/171 155/140/171 152/137/171
f 152/137/172 155/140/172 156/141/172
f 157/142/173 150/135/173 152/137/173
f 152/137/174 156/141/174 157/142/174
f 158/143/175 148/133/175 147/132/175
f 149/134/176 154/139/176 147/132/176
f 151/136/177 153/138/177 152/137/177
f 151/136/178 159/144/178 147/132/178
f 149/134/179 152/137/179 154/139/179
f 153/138/180 147/132/180 154/139/180
f 160/145/181 156/141/181 161/146/181
f 161/146/182 162/147/182 160/145/182
f 158/143/183 163/148/183 164/149/183
f 164/149/183 148/133/183 158/143/183
f 148/133/184 164/149/184 155/140/184
f 155/140/185 149/134/185 148/133/185
f 151/136/186 150/135/186 165/150/186
f 165/150/187 159/144/187 151/136/187
f 161/146/188 164/149/188 163/148/188
f 163/148/188 166/151/188 161/146/188
f 164/149/189 161/146/189 156/141/189
f 156/141/190 155/140/190 164/149/190
f 157/142/191 167/152/191 165/150/191
f 165/150/192 150/135/192 157/142/192
f 162/147/193 161/146/193 166/151/193
f 166/151/193 168/153/193 162/147/193
f 169/154/194 167/152/194 157/142/194
f 157/142/195 170/155/195 169/154/195
f 157/142/196 156/141/196 160/145/196
f 160/145/196 170/155/196 157/142/196
f 171/156/197 172/157/197 173/158/197
f 174/159/198 175/160/198 176/161/198
f 177/162/199 178/163/199 179/164/199
f 180/165/200 181/166/200 182/167/200
f 178/163/201 183/168/201 184/169/201
f 182/167/202 181/166/202 185/170/202
f 186/171/203 187/172/203 177/162/203
f 188/173/204 184/169/204 189/174/204
f 182/167/205 186/171/205 190/175/205
f 185/170/206 181/166/206 180/165/206
f 179/164/207 191/176/207 177/162/207
f 176/161/208 188/173/208 174/159/208
f 188/173/209 178/163/209 184/169/209
f 172/157/210 192/177/210 173/158/210
f 193/178/211 188/173/211 194/179/211
f 189/174/212 184/169/212 193/178/212
f 189/174/213 194/179/213 188/173/213
f 192/177/214 171/156/214 173/158/214
f 171/156/215 189/174/215 193/178/215
f 193/178/216 172/157/216 171/156/216
f 179/164/217 178/163/217 188/173/217
f 188/173/217 176/161/217 179/164/217
f 175/160/218 174/159/218 177/162/218
f 177/162/218 191/176/218 175/160/218
f 191/176/219 179/164/219 176/161/219
f 176/161/219 175/160/219 191/176/219
f 190/175/220 174/159/220 188/173/220
f 188/173/221 193/178/221 190/175/221
f 190/175/222 186/171/222 177/162/222
f 177/162/223 174/159/223 190/175/223
f 183/168/224 178/163/224 177/162/224
f 177/162/225 187/172/225 183/168/225
f 195/180/226 184/169/226 183/168/226
f 183/168/227 196/181/227 195/180/227
f 196/181/228 183/168/228 187/172/228
f 187/172/229 197/182/229 196/181/229
f 186/171/230 198/183/230 197/182/230
f 197/182/231 187/172/231 186/171/231
f 198/183/232 195/180/232 196/181/232
f 196/181/233 197/182/233 198/183/233
f 185/170/234 180/165/234 193/178/234
f 193/178/235 184/169/235 185/170/235
f 186/171/236 184/169/236 195/180/236
f 195/180/237 198/183/237 186/171/237
f 180/165/238 182/167/238 190/175/238
f 190/175/239 193/178/239 180/165/239
f 182/167/240 185/170/240 184/169/240
f 184/169/241 186/171/241 182/167/241
f 192/177/242 194/179/242 189/174/242
f 189/174/243 171/156/243 192/177/243
f 172/157/244 193/178/244 194/179/244
f 194/179/245 192/177/245 172/157/245
f 199/99/246 200/98/246 201/97/246
f 202/102/247 203/101/247 204/100/247
f 205/103/248 201/97/248 200/98/248
f 206/106/5 207/105/5 208/104/5
f 199/99/249 209/107/249 200/98/249
f 210/109/250 211/108/250 203/101/250
f 203/101/251 212/110/251 204/100/251
f 201/97/252 205/103/252 213/111/252
f 213/111/253 214/112/253 201/97/253
f 212/110/254 203/101/254 211/108/254
f 204/100/255 205/103/255 215/113/255
f 204/100/256 215/113/256 202/102/256
f 200/98/257 215/113/257 205/103/257
f 201/97/258 214/112/258 199/99/258
f 202/102/259 216/114/259 210/109/259
f 203/101/260 202/102/260 210/109/260
f 217/115/261 207/105/261 218/117/261
f 218/117/262 219/116/262 217/115/262
f 220/119/263 221/118/263 214/112/263
f 214/112/263 222/120/263 220/119/263
f 213/111/264 205/103/264 204/100/264
f 204/100/264 212/110/264 213/111/264
f 212/110/265 223/121/265 224/122/265
f 224/122/265 213/111/265 212/110/265
f 206/106/5 225/123/5 226/124/5
f 226/124/5 207/105/5 206/106/5
f 227/126/266 228/125/266 229/127/266
f 229/127/266 209/107/266 227/126/266
f 215/113/267 200/98/267 230/129/267
f 230/129/268 231/128/268 215/113/268
f 217/115/269 202/102/269 215/113/269
f 215/113/270 231/128/270 217/115/270
f 209/107/271 229/127/271 230/129/271
f 230/129/272 200/98/272 209/107/272
f 202/102/273 217/115/273 219/116/273
f 219/116/274 216/114/274 202/102/274
f 221/118/275 220/119/275 227/126/275
f 227/126/275 209/107/275 221/118/275
f 230/129/276 206/106/276 208/104/276
f 208/104/277 231/128/277 230/129/277
f 231/128/278 208/104/278 207/105/278
f 207/105/279 217/115/279 231/128/279
f 228/125/218 232/130/218 233/131/218
f 233/131/218 229/127/218 228/125/218
f 229/127/280 233/131/280 206/106/280
f 206/106/281 230/129/281 229/127/281
f 234/134/282 235/133/282 236/132/282
f 237/137/283 238/136/283 239/135/283
f 238/136/284 240/138/284 236/132/284
f 240/138/62 237/137/62 241/139/62
f 237/137/285 242/140/285 234/134/285
f 243/141/286 242/140/286 237/137/286
f 237/137/287 239/135/287 244/142/287
f 244/142/288 243/141/288 237/137/288
f 236/132/289 235/133/289 245/143/289
f 236/132/290 241/139/290 234/134/290
f 237/137/291 240/138/291 238/136/291
f 236/132/292 246/144/292 238/136/292
f 241/139/293 237/137/293 234/134/293
f 241/139/294 236/132/294 240/138/294
f 243/141/295 247/145/295 248/147/295
f 248/147/296 249/146/296 243/141/296
f 250/148/297 245/143/297 235/133/297
f 235/133/297 251/149/297 250/148/297
f 251/149/298 235/133/298 234/134/298
f 234/134/299 242/140/299 251/149/299
f 239/135/300 238/136/300 246/144/300
f 246/144/301 252/150/301 239/135/301
f 251/149/302 249/146/302 253/151/302
f 253/151/302 250/148/302 251/149/302
f 249/146/303 251/149/303 242/140/303
f 242/140/304 243/141/304 249/146/304
f 254/152/305 244/142/305 239/135/305
f 239/135/306 252/150/306 254/152/306
f 249/146/307 248/147/307 255/153/307
f 255/153/307 253/151/307 249/146/307
f 254/152/308 256/154/308 257/155/308
f 257/155/309 244/142/309 254/152/309
f 243/141/310 244/142/310 257/155/310
f 257/155/310 247/145/310 243/141/310
f 258/158/311 259/157/311 260/156/311
f 261/161/312 262/160/312 263/159/312
f 264/164/313 265/163/313 266/162/313
f 267/167/314 268/166/314 269/165/314
f 270/169/315 271/168/315 265/163/315
f 272/170/316 268/166/316 267/167/316
f 266/162/317 273/172/317 274/171/317
f 275/174/318 270/169/318 276/173/318
f 277/175/319 274/171/319 267/167/319
f 269/165/320 268/166/320 272/170/320
f 266/162/321 278/176/321 264/164/321
f 263/159/322 276/173/322 261/161/322
f 270/169/323 265/163/323 276/173/323
f 258/158/324 279/177/324 259/157/324
f 280/179/325 276/173/325 281/178/325
f 281/178/326 270/169/326 275/174/326
f 276/173/327 280/179/327 275/174/327
f 258/158/328 260/156/328 279/177/328
f 275/174/329 260/156/329 259/157/329
f 259/157/330 281/178/330 275/174/330
f 265/163/331 264/164/331 261/161/331
f 261/161/331 276/173/331 265/163/331
f 263/159/165 262/160/165 278/176/165
f 278/176/165 266/162/165 263/159/165
f 264/164/332 278/176/332 262/160/332
f 262/160/332 261/161/332 264/164/332
f 263/159/333 277/175/333 281/178/333
f 281/178/334 276/173/334 263/159/334
f 274/171/335 277/175/335 263/159/335
f 263/159/336 266/162/336 274/171/336
f 265/163/337 271/168/337 273/172/337
f 273/172/338 266/162/338 265/163/338
f 270/169/339 271/168/339 282/181/339
f 282/181/340 283/180/340 270/169/340
f 271/168/341 282/181/341 284/182/341
f 284/182/342 273/172/342 271/168/342
f 285/183/343 274/171/343 273/172/343
f 273/172/344 284/182/344 285/183/344
f 283/180/345 285/183/345 284/182/345
f 284/182/346 282/181/346 283/180/346
f 269/165/347 272/170/347 270/169/347
f 270/169/348 281/178/348 269/165/348
f 270/169/349 274/171/349 285/183/349
f 285/183/350 283/180/350 270/169/350
f 267/167/351 269/165/351 281/178/351
f 281/178/352 277/175/352 267/167/352
f 272/170/353 267/167/353 274/171/353
f 274/171/354 270/169/354 272/170/354
f 280/179/328 279/177/328 260/156/328
f 260/156/355 275/174/355 280/179/355
f 281/178/356 259/157/356 279/177/356
f 279/177/357 280/179/357 281/178/357
f 286/184/358 287/185/358 288/186/358
f 289/187/359 290/188/359 286/184/359
f 291/189/360 292/190/360 293/191/360
f 286/184/361 294/192/361 289/187/361
f 286/184/362 290/188/362 287/185/362
f 295/193/363 290/188/363 289/187/363
f 296/194/364 294/192/364 297/195/364
f 288/186/365 298/196/365 286/184/365
f 298/196/366 297/195/366 294/192/366
f 294/192/367 286/184/367 298/196/367
f 299/197/368 300/198/368 292/190/368
f 292/190/369 291/189/369 299/197/369
f 301/199/370 289/187/370 294/192/370
f 294/192/371 296/194/371 301/199/371
f 296/194/372 297/195/372 302/200/372
f 302/200/373 303/201/373 296/194/373
f 303/201/374 302/200/374 292/190/374
f 292/190/375 300/198/375 303/201/375
f 304/202/376 305/203/376 306/204/376
f 306/204/377 307/205/377 304/202/377
f 293/191/378 292/190/378 302/200/378
f 302/200/379 308/206/379 293/191/379
f 287/185/380 290/188/380 295/193/380
f 295/193/62 309/207/62 287/185/62
f 310/208/381 293/191/381 308/206/381
f 308/206/381 311/209/381 310/208/381
f 311/209/382 308/206/382 298/196/382
f 298/196/383 288/186/383 311/209/383
f 297/195/384 298/196/384 308/206/384
f 308/206/385 302/200/385 297/195/385
f 312/210/386 313/211/386 314/212/386
f 315/213/387 314/212/387 313/211/387
f 312/210/388 316/214/388 313/211/388
f 317/215/389 313/211/389 316/214/389
f 316/214/390 318/216/390 317/215/390
f 319/217/391 320/218/391 321/219/391
f 321/219/392 322/220/392 319/217/392
f 322/220/393 321/219/393 323/221/393
f 323/221/393 324/222/393 322/220/393
f 324/222/394 323/221/394 316/214/394
f 316/214/395 312/210/395 324/222/395
f 313/211/396 317/215/396 325/223/396
f 325/223/397 315/213/397 313/211/397
f 312/210/398 314/212/398 326/224/398
f 326/224/398 327/225/398 312/210/398
f 328/226/399 321/219/399 320/218/399
f 320/218/400 329/227/400 328/226/400
f 330/228/401 323/221/401 321/219/401
f 321/219/401 328/226/401 330/228/401
f 318/216/402 316/214/402 323/221/402
f 323/221/403 330/228/403 318/216/403
f 331/229/404 332/230/404 333/231/404
f 333/231/405 334/232/405 335/233/405
f 336/234/406 337/235/406 338/236/406
f 334/232/407 339/237/407 336/234/407
f 337/235/408 340/238/408 341/239/408
f 333/231/409 335/233/409 331/229/409
f 341/239/410 338/236/410 337/235/410
f 334/232/411 336/234/411 342/240/411
f 342/240/411 343/241/411 334/232/411
f 344/242/412 334/232/412 333/231/412
f 333/231/413 345/243/413 344/242/413
f 345/243/414 333/231/414 337/235/414
f 337/235/415 346/244/415 345/243/415
f 346/244/416 337/235/416 336/234/416
f 336/234/417 347/245/417 346/244/417
f 348/246/418 349/247/418 334/232/418
f 334/232/419 344/242/419 348/246/419
f 350/248/420 351/249/420 352/250/420
f 352/250/421 353/251/421 350/248/421
f 354/252/422 355/253/422 347/245/422
f 347/245/423 336/234/423 354/252/423
f 340/238/424 337/235/424 333/231/424
f 333/231/425 332/230/425 340/238/425
f 331/229/426 343/241/426 342/240/426
f 342/240/427 341/239/427 331/229/427
f 356/254/5 331/229/5 341/239/5
f 341/239/5 357/255/5 356/254/5
f 357/255/428 341/239/428 340/238/428
f 340/238/429 358/256/429 357/255/429
f 358/256/430 340/238/430 332/230/430
f 332/230/431 359/257/431 358/256/431
f 359/257/432 332/230/432 331/229/432
f 331/229/433 356/254/433 359/257/433
f 353/251/5 356/254/5 357/255/5
f 357/255/5 350/248/5 353/251/5
f 350/248/434 357/255/434 358/256/434
f 358/256/435 351/249/435 350/248/435
f 351/249/436 358/256/436 359/257/436
f 359/257/437 352/250/437 351/249/437
f 352/250/438 359/257/438 356/254/438
f 356/254/439 353/251/439 352/250/439
f 360/186/358 361/185/358 362/184/358
f 362/184/440 363/188/440 364/187/440
f 365/191/441 366/190/441 367/189/441
f 364/187/442 368/192/442 362/184/442
f 361/185/365 363/188/365 362/184/365
f 364/187/443 363/188/443 369/193/443
f 370/195/444 368/192/444 371/194/444
f 362/184/362 372/196/362 360/186/362
f 370/195/445 372/196/445 362/184/445
f 362/184/446 368/192/446 370/195/446
f 373/198/447 374/197/447 367/189/447
f 367/189/448 366/190/448 373/198/448
f 364/187/449 375/199/449 371/194/449
f 371/194/450 368/192/450 364/187/450
f 370/195/451 371/194/451 376/201/451
f 376/201/452 377/200/452 370/195/452
f 377/200/453 376/201/453 373/198/453
f 373/198/454 366/190/454 377/200/454
f 378/203/455 379/202/455 380/205/455
f 380/205/456 381/204/456 378/203/456
f 366/190/457 365/191/457 382/206/457
f 382/206/458 377/200/458 366/190/458
f 363/188/383 361/185/383 383/207/383
f 383/207/382 369/193/382 363/188/382
f 365/191/381 384/208/381 385/209/381
f 385/209/381 382/206/381 365/191/381
f 382/206/62 385/209/62 360/186/62
f 360/186/380 372/196/380 382/206/380
f 372/196/459 370/195/459 377/200/459
f 377/200/460 382/206/460 372/196/460
f 386/212/461 387/211/461 388/210/461
f 387/211/462 386/212/462 389/213/462
f 387/211/463 390/214/463 388/210/463
f 387/211/396 391/215/396 392/216/396
f 392/216/397 390/214/397 387/211/397
f 393/218/464 394/217/464 395/220/464
f 395/220/394 396/219/394 393/218/394
f 396/219/393 395/220/393 397/222/393
f 397/222/393 398/221/393 396/219/393
f 398/221/465 397/222/465 388/210/465
f 388/210/466 390/214/466 398/221/466
f 391/215/389 387/211/389 389/213/389
f 389/213/390 399/223/390 391/215/390
f 386/212/467 388/210/467 400/225/467
f 400/225/467 401/224/467 386/212/467
f 396/219/403 402/226/403 403/227/403
f 403/227/402 393/218/402 396/219/402
f 398/221/401 404/228/401 402/226/401
f 402/226/401 396/219/401 398/221/401
f 390/214/400 392/216/400 404/228/400
f 404/228/399 398/221/399 390/214/399
f 405/231/468 406/230/468 407/229/468
f 408/233/469 409/232/469 405/231/469
f 410/236/470 411/235/470 412/234/470
f 412/234/471 413/237/471 409/232/471
f 414/239/472 415/238/472 411/235/472
f 407/229/473 408/233/473 405/231/473
f 411/235/474 410/236/474 414/239/474
f 412/234/475 409/232/475 416/241/475
f 416/241/475 417/240/475 412/234/475
f 409/232/476 418/242/476 419/243/476
f 419/243/477 405/231/477 409/232/477
f 405/231/478 419/243/478 420/244/478
f 420/244/479 411/235/479 405/231/479
f 411/235/480 420/244/480 421/245/480
f 421/245/481 412/234/481 411/235/481
f 422/247/482 423/246/482 418/242/482
f 418/242/483 409/232/483 422/247/483
f 424/249/484 425/248/484 426/251/484
f 426/251/485 427/250/485 424/249/485
f 428/253/486 429/252/486 412/234/486
f 412/234/487 421/245/487 428/253/487
f 411/235/488 415/238/488 406/230/488
f 406/230/489 405/231/489 411/235/489
f 416/241/490 407/229/490 414/239/490
f 414/239/491 417/240/491 416/241/491
f 407/229/5 430/254/5 431/255/5
f 431/255/5 414/239/5 407/229/5
f 414/239/492 431/255/492 432/256/492
f 432/256/493 415/238/493 414/239/493
f 415/238/494 432/256/494 433/257/494
f 433/257/495 406/230/495 415/238/495
f 406/230/496 433/257/496 430/254/496
f 430/254/497 407/229/497 406/230/497
f 430/254/5 426/251/5 425/248/5
f 425/248/5 431/255/5 430/254/5
f 431/255/498 425/248/498 424/249/498
f 424/249/499 432/256/499 431/255/499
f 432/256/500 424/249/500 427/250/500
f 427/250/501 433/257/501 432/256/501
f 433/257/502 427/250/502 426/251/502
f 426/251/503 430/254/503 433/257/503
