# Blender 3.3.1
# www.blender.org
mtllib hypnos-t1.mtl
o object0
v 0.390766 3.959657 0.342911
v 0.251449 3.651778 0.262964
v 0.564062 4.088270 0.171775
v -0.251449 3.651778 0.262964
v -0.387368 3.959657 0.342911
v -0.577654 4.088270 0.171775
v 0.530082 4.281848 0.178434
v 0.530082 4.294254 -0.154370
v 0.000000 4.455654 -0.053106
v 0.275235 4.183926 0.343291
v -0.275235 4.183926 0.343291
v -0.530082 4.281848 0.178434
v -0.530082 4.294254 -0.154370
v -0.193684 4.263659 -0.355374
v 0.193684 4.263659 -0.355374
v 0.526684 4.010361 -0.447992
v 0.000000 3.958627 0.404059
v 0.000000 3.633874 0.317032
v -0.183490 3.454553 0.069348
v 0.186888 3.454553 0.069348
v -0.067959 3.524649 -0.259087
v -0.248051 3.735653 -0.479806
v 0.000000 3.699964 -0.378464
v 0.078153 3.524592 -0.255690
v 0.248051 3.735653 -0.479806
v 0.248051 4.017157 -0.447878
v 0.000000 3.937991 -0.388046
v 0.604837 4.096761 -0.130513
v -0.519888 4.040766 -0.437286
v -0.248051 4.017157 -0.447878
v -0.608235 4.096761 -0.130513
v -0.506297 3.769568 -0.475836
v 0.506297 3.769568 -0.475836
v 0.309742 3.981292 0.321960
v 0.067264 3.845720 0.229003
v 0.166469 2.856882 0.043638
v 0.624580 2.468617 -0.302727
v 0.516421 2.952627 -0.374955
v 0.697012 2.851244 -0.111589
v 0.519475 2.145368 0.178589
v 0.490925 2.030049 0.119170
v 0.670094 2.208625 0.005835
v 0.174947 3.432911 -0.329797
v 0.248947 2.908582 -0.335560
v 0.198597 2.372277 0.020737
v 0.297811 2.181033 0.061207
v 0.253827 2.203165 -0.251400
v 0.284583 2.479626 -0.251575
v 0.404758 3.243117 0.333667
v 0.479302 2.459802 0.196530
v 0.673293 2.448382 0.088232
v 0.429224 3.469660 -0.367329
v 0.713325 3.479983 -0.073021
v 0.626896 3.467859 0.197449
v 0.540331 3.970809 0.228807
v 0.647828 4.000500 -0.034232
v 0.622634 2.234025 -0.306199
v 0.413322 1.775606 -0.512392
v 0.683664 1.159842 -0.377255
v 0.323482 1.030959 -0.335630
v 0.419225 0.012025 -0.390388
v 0.647579 0.020610 -0.424486
v 0.449349 0.005855 -0.051394
v 0.680920 0.517514 -0.074466
v 0.754718 0.229928 -0.021423
v 0.753679 0.364886 -0.293989
v 0.603503 0.548512 -0.378482
v 0.425434 0.501184 -0.039860
v 0.296844 1.602832 0.069254
v 0.503199 1.655764 0.152557
v 0.731012 1.741732 -0.003918
v 0.415683 0.534653 -0.350546
v 0.780800 1.750029 -0.313626
v 0.612849 2.196416 -0.312208
v 0.785163 0.018480 -0.101538
v 0.176867 1.547040 -0.219466
v 0.250170 2.182781 -0.258051
v 0.659069 2.177913 -0.006750
v 0.296507 2.160883 0.047335
v 0.508251 0.165869 -0.445935
v 0.311375 0.402711 -0.230505
v 0.420903 0.227720 0.021717
v 0.459488 -0.001611 0.476125
v 0.919172 0.012312 0.565490
v 0.557981 -0.002947 0.698427
v 0.940225 0.017850 0.339076
v 0.476936 0.134705 0.489441
v 0.702250 0.416205 -0.072417
v 0.403258 0.408362 -0.027716
v 0.909771 0.149113 0.352621
v 0.915018 0.117592 0.564366
v 0.561313 0.109266 0.703164
v -0.248947 2.908582 -0.335560
v -0.198597 2.372277 0.020737
v -0.284583 2.479626 -0.251575
v -0.673293 2.448382 0.088232
v -0.697012 2.851244 -0.111589
v -0.624580 2.468617 -0.302727
v -0.670094 2.208625 0.005835
v -0.519475 2.145368 0.178589
v -0.490925 2.030049 0.119170
v -0.429224 3.469660 -0.367329
v -0.516421 2.952627 -0.374955
v -0.713325 3.479983 -0.073021
v -0.479302 2.459802 0.196530
v -0.166469 2.856882 0.043638
v -0.306384 3.981166 0.322461
v -0.404758 3.243117 0.333667
v -0.050858 3.848431 0.234942
v -0.174947 3.432911 -0.329797
v -0.297811 2.181033 0.061207
v -0.253827 2.203165 -0.251400
v -0.540331 3.970809 0.228807
v -0.626896 3.467859 0.197449
v -0.647828 4.000500 -0.034232
v -0.619275 2.233899 -0.305698
v -0.647697 0.017215 -0.424558
v -0.419343 0.008630 -0.390460
v -0.449467 0.002460 -0.051466
v -0.785281 0.015086 -0.101611
v -0.421021 0.224325 0.021645
v -0.311493 0.399316 -0.230577
v -0.425552 0.497789 -0.039932
v -0.415801 0.531258 -0.350618
v -0.603621 0.545118 -0.378554
v -0.753797 0.361491 -0.294061
v -0.681038 0.514119 -0.074538
v -0.754836 0.226533 -0.021495
v -0.683782 1.156448 -0.377327
v -0.413440 1.772212 -0.512464
v -0.323600 1.027565 -0.335703
v -0.731130 1.738337 -0.003990
v -0.780918 1.746635 -0.313698
v -0.176984 1.543646 -0.219538
v -0.296962 1.599437 0.069182
v -0.508369 0.162475 -0.446008
v -0.612967 2.193021 -0.312280
v -0.250288 2.179386 -0.258124
v -0.296625 2.157489 0.047262
v -0.659187 2.174519 -0.006822
v -0.503317 1.652369 0.152485
v -0.922648 0.009044 0.564916
v -0.564789 0.105998 0.702591
v -0.918494 0.114324 0.563792
v -0.561457 -0.006215 0.697854
v -0.480412 0.131437 0.488867
v -0.462964 -0.004879 0.475551
v -0.943701 0.014582 0.338503
v -0.913248 0.145845 0.352047
v -0.705726 0.412936 -0.072991
v -0.406733 0.405094 -0.028290
vn 0.2954 0.0941 0.9507
vn 0.4163 -0.5410 0.7308
vn 0.7119 0.3761 0.5931
vn -0.3890 -0.5196 0.7607
vn -0.3456 0.1066 0.9323
vn -0.7718 0.3084 0.5561
vn 0.5161 0.7166 0.4692
vn 0.6137 0.7366 -0.2843
vn -0.0000 0.9989 0.0464
vn 0.1433 0.4900 0.8599
vn -0.1797 0.4765 0.8606
vn -0.5989 0.6775 0.4270
vn -0.6206 0.7195 -0.3117
vn -0.5988 0.6775 0.4271
vn -0.0386 0.5785 -0.8148
vn 0.0415 0.5739 -0.8178
vn 0.6137 0.7366 -0.2842
vn 0.0415 0.5739 -0.8179
vn 0.5197 0.4751 -0.7101
vn 0.0117 -0.0359 0.9993
vn 0.1433 0.4899 0.8599
vn 0.0124 -0.5997 0.8001
vn -0.3889 -0.5196 0.7608
vn -0.0652 -0.9202 0.3859
vn 0.0520 -0.9706 0.2351
vn 0.0124 -0.5998 0.8001
vn 0.4550 -0.6580 -0.6000
vn 0.2021 -0.2576 -0.9449
vn 0.0286 -0.3781 -0.9253
vn 0.4550 -0.6579 -0.6001
vn -0.5296 -0.5560 -0.6406
vn 0.0125 -0.5998 0.8001
vn -0.1933 -0.2377 -0.9519
vn -0.1421 0.2141 -0.9664
vn 0.0222 0.1497 -0.9885
vn 0.8034 0.5868 -0.1007
vn -0.5319 0.4907 -0.6901
vn -0.5320 0.4907 -0.6901
vn 0.1657 0.1851 -0.9687
vn -0.3457 0.1066 0.9323
vn 0.4550 -0.6579 -0.6000
vn -0.8324 0.5375 -0.1348
vn 0.0415 0.5740 -0.8178
vn -0.0385 0.5785 -0.8148
vn 0.1658 0.1850 -0.9687
vn 0.4162 -0.5410 0.7308
vn 0.7119 0.3760 0.5932
vn 0.5197 0.4752 -0.7100
vn 0.2953 0.0941 0.9507
vn 0.8034 0.5868 -0.1008
vn 0.2021 -0.2575 -0.9449
vn 0.0285 -0.3781 -0.9253
vn -0.1933 -0.2376 -0.9519
vn -0.1421 0.2140 -0.9664
vn 0.1658 0.1851 -0.9686
vn -0.6604 -0.0993 -0.7443
vn 0.1658 0.1850 -0.9686
vn 0.6584 -0.1171 -0.7435
vn -0.7717 0.3083 0.5562
vn -0.7718 0.3083 0.5562
vn -0.8324 0.5375 -0.1347
vn -0.5988 0.6775 0.4270
vn -0.0484 0.0678 0.9965
vn -0.7473 -0.1920 0.6361
vn -0.9493 -0.1751 0.2609
vn 0.6748 -0.0489 -0.7364
vn 0.4882 0.0162 -0.8726
vn 0.9692 -0.0117 -0.2462
vn 0.1186 -0.3136 0.9421
vn 0.3000 -0.2513 0.9202
vn 0.9363 -0.2745 0.2192
vn -0.6296 -0.2390 -0.7392
vn -0.7501 -0.1219 -0.6500
vn -0.9494 -0.1751 0.2609
vn -0.9426 -0.1497 0.2984
vn -0.9493 -0.1751 0.2610
vn -0.7984 -0.2992 0.5226
vn -0.9426 -0.1498 0.2984
vn -0.8332 -0.0387 -0.5516
vn -0.6502 -0.0560 -0.7577
vn -0.2323 -0.0863 0.9688
vn 0.0055 -0.0887 0.9960
vn -0.6502 -0.0561 -0.7577
vn 0.8855 -0.0858 0.4567
vn 0.1187 -0.3136 0.9421
vn 0.8855 -0.0858 0.4566
vn 0.8855 -0.0857 0.4566
vn 0.0056 -0.0886 0.9960
vn 0.2552 -0.1974 -0.9465
vn 0.9471 0.0113 -0.3208
vn -0.0484 0.0679 0.9965
vn 0.7537 0.0115 0.6571
vn 0.7237 0.1445 0.6749
vn 0.7237 0.1444 0.6749
vn 0.9801 0.1727 -0.0979
vn 0.7537 0.0114 0.6571
vn 0.4882 0.0161 -0.8726
vn 0.5896 -0.0480 -0.8062
vn -0.8332 -0.0386 -0.5516
vn 0.6748 -0.0490 -0.7364
vn 0.2552 -0.1973 -0.9465
vn 0.2551 -0.1974 -0.9465
vn 0.0056 -0.0887 0.9960
vn 0.9691 -0.0117 -0.2462
vn 0.5897 -0.0480 -0.8062
vn 0.5896 -0.0479 -0.8063
vn -0.1579 0.0914 -0.9832
vn 0.7250 -0.1242 -0.6774
vn -0.8529 -0.2124 -0.4768
vn -0.6569 -0.3971 -0.6409
vn 0.4080 -0.5176 -0.7521
vn -0.5499 -0.7799 0.2990
vn 0.8749 0.1297 0.4666
vn 0.7274 0.1035 0.6783
vn 0.9435 0.2129 -0.2540
vn 0.9435 0.2129 -0.2541
vn 0.4815 0.1874 -0.8562
vn -0.7156 0.0805 0.6938
vn -0.8315 -0.0792 0.5498
vn -0.8529 -0.2125 -0.4768
vn -0.7156 0.0804 0.6938
vn 0.1257 -0.0529 0.9907
vn -0.8315 -0.0792 0.5499
vn 0.9402 0.0612 0.3351
vn 0.8749 0.1296 0.4666
vn 0.7250 -0.1242 -0.6775
vn -0.7054 0.1678 -0.6887
vn -0.8530 -0.2125 -0.4768
vn 0.1257 -0.0528 0.9907
vn 0.8861 0.1168 -0.4485
vn 0.6839 0.1588 -0.7121
vn 0.7274 0.1034 0.6783
vn 0.8208 -0.5679 0.0616
vn -0.9869 -0.0629 -0.1486
vn -0.8967 0.1817 -0.4035
vn 0.9394 -0.1114 0.3243
vn 0.8861 0.1169 -0.4485
vn -0.8315 -0.0791 0.5498
vn -0.8132 -0.1506 0.5622
vn -0.9869 -0.0628 -0.1486
vn -0.8967 0.1818 -0.4035
vn 0.6839 0.1589 -0.7121
vn -0.1638 0.0329 -0.9859
vn -0.9951 0.0763 0.0625
vn -0.5044 -0.0517 0.8619
vn -0.7157 0.0804 0.6938
vn -0.1638 0.0328 -0.9859
vn -0.6569 -0.3972 -0.6409
vn -0.5498 -0.7799 0.2990
vn 0.4079 -0.5176 -0.7522
vn -0.1638 0.0328 -0.9860
vn -0.1638 0.0329 -0.9860
vn 0.4079 -0.5176 -0.7521
vn -0.5498 -0.7799 0.2991
vn 0.7275 0.1034 0.6783
vn 0.7275 0.1035 0.6783
vn -0.7054 0.1678 -0.6886
vn 0.4814 0.1875 -0.8562
vn 0.8207 -0.5680 0.0616
vn -0.5043 -0.0517 0.8620
vn -0.6867 -0.6999 0.1964
vn 0.6883 -0.5187 0.5071
vn -0.3136 -0.5962 0.7390
vn -0.6867 -0.6999 0.1963
vn 0.7410 -0.6632 -0.1052
vn 0.6883 -0.5187 0.5072
vn -0.6189 0.6736 0.4040
vn 0.6655 0.7407 0.0916
vn -0.6102 0.6564 0.4436
vn 0.6806 0.7200 0.1353
vn 0.6655 0.7408 0.0915
vn -0.6190 0.6736 0.4040
vn 0.6634 0.4655 0.5858
vn 0.6807 0.7200 0.1354
vn -0.3097 0.5171 0.7979
vn 0.7410 -0.6632 -0.1053
vn 0.6634 0.4656 0.5858
vn -0.3136 -0.5963 0.7390
vn 0.6884 -0.5186 0.5071
vn -0.3097 0.5171 0.7980
vn 0.6635 0.4655 0.5858
vn 0.7436 -0.1294 -0.6560
vn 0.9428 -0.1570 0.2941
vn 0.6411 -0.0642 -0.7648
vn -0.9083 -0.0662 0.4130
vn -0.9607 0.0072 -0.2775
vn -0.6781 -0.0430 -0.7337
vn -0.9392 -0.2672 0.2154
vn -0.1137 -0.3236 0.9393
vn -0.2871 -0.2465 0.9256
vn -0.1137 -0.3237 0.9393
vn -0.2564 -0.1978 -0.9461
vn -0.4976 0.0098 -0.8674
vn -0.9348 0.0351 -0.3534
vn -0.0277 -0.1084 0.9937
vn -0.1136 -0.3236 0.9393
vn 0.9482 -0.1841 0.2589
vn 0.0622 0.0377 0.9974
vn 0.2308 -0.1065 0.9672
vn 0.0622 0.0378 0.9973
vn 0.9482 -0.1840 0.2589
vn 0.7351 -0.2081 0.6452
vn 0.6140 -0.2458 -0.7501
vn 0.7998 -0.3102 0.5139
vn 0.8330 -0.0392 -0.5519
vn 0.6411 -0.0642 -0.7647
vn 0.2308 -0.1066 0.9671
vn 0.9428 -0.1571 0.2941
vn 0.2308 -0.1066 0.9672
vn -0.9607 0.0072 -0.2774
vn -0.7235 0.1079 0.6818
vn -0.7923 0.0248 0.6096
vn -0.7235 0.1078 0.6818
vn -0.9802 0.1514 -0.1277
vn 0.8330 -0.0391 -0.5519
vn -0.5853 -0.0324 -0.8101
vn -0.9348 0.0350 -0.3534
vn -0.9393 -0.2672 0.2154
vn -0.5854 -0.0324 -0.8101
vn 0.6411 -0.0641 -0.7648
vn -0.4080 -0.5176 -0.7521
vn 0.6569 -0.3971 -0.6409
vn 0.5396 -0.8042 0.2492
vn -0.8172 -0.5721 0.0695
vn -0.4079 -0.5176 -0.7521
vn 0.5396 -0.8042 0.2493
vn 0.5167 -0.0744 0.8529
vn 0.9951 0.0763 0.0625
vn 0.7170 0.0755 0.6930
vn 0.7015 0.1719 -0.6916
vn -0.4852 0.1901 -0.8535
vn -0.9435 0.2129 -0.2541
vn -0.8739 0.1256 0.4695
vn -0.7217 0.0813 0.6874
vn -0.8739 0.1257 0.4696
vn -0.9435 0.2129 -0.2540
vn -0.7279 -0.1197 -0.6751
vn 0.1579 0.0914 -0.9832
vn 0.8515 -0.2100 -0.4805
vn -0.7279 -0.1198 -0.6751
vn -0.9403 0.0614 0.3348
vn -0.8861 0.1170 -0.4485
vn 0.9868 -0.0633 -0.1488
vn 0.8515 -0.2099 -0.4805
vn 0.9868 -0.0633 -0.1489
vn 0.8382 -0.0723 0.5405
vn -0.4852 0.1902 -0.8535
vn 0.6569 -0.3972 -0.6409
vn 0.1638 0.0328 -0.9859
vn 0.5166 -0.0745 0.8530
vn 0.1638 0.0329 -0.9859
vn -0.4079 -0.5176 -0.7522
vn -0.6839 0.1592 -0.7120
vn 0.8967 0.1815 -0.4038
vn 0.9868 -0.0634 -0.1488
vn 0.8207 -0.1434 0.5531
vn -0.8861 0.1170 -0.4484
vn -0.6838 0.1591 -0.7121
vn -0.9395 -0.1111 0.3239
vn -0.9403 0.0615 0.3348
vn 0.8382 -0.0724 0.5405
vn 0.8967 0.1815 -0.4037
vn -0.6839 0.1591 -0.7121
vn 0.7169 0.0756 0.6930
vn -0.1119 -0.0458 0.9927
vn 0.7169 0.0755 0.6930
vn -0.8739 0.1256 0.4696
vn 0.1638 0.0329 -0.9860
vn 0.5166 -0.0744 0.8530
vn -0.7504 -0.4274 0.5042
vn 0.2811 0.5718 0.7707
vn -0.6451 0.5761 0.5020
vn -0.7504 -0.4275 0.5042
vn 0.3049 -0.5450 0.7810
vn 0.6439 0.6675 0.3740
vn 0.3048 -0.5450 0.7810
vn 0.6653 -0.7337 0.1383
vn 0.2811 0.5719 0.7707
vn 0.3049 -0.5451 0.7810
vn -0.7814 -0.6101 -0.1311
vn -0.6450 0.5762 0.5020
vn -0.6556 0.7483 0.1016
vn -0.7814 -0.6101 -0.1312
vn -0.6450 0.5761 0.5020
vn -0.6450 0.5761 0.5021
vn 0.2812 0.5719 0.7707
vn -0.6556 0.7482 0.1016
vn 0.6439 0.6674 0.3740
vn -0.6788 0.7237 0.1249
vn -0.6556 0.7482 0.1015
vn 0.6931 0.5977 0.4029
vn -0.6788 0.7236 0.1248
vn 0.6653 -0.7336 0.1383
vn 0.4550 -0.6580 -0.6001
vn 0.6584 -0.1172 -0.7435
vn -0.5295 -0.5560 -0.6407
vn -0.9395 -0.1111 0.3240
vn -0.9392 -0.2673 0.2154
vn -0.5854 -0.0323 -0.8101
vn -0.5853 -0.0324 -0.8102
vn 0.8207 -0.1433 0.5531
vn -0.7984 -0.2991 0.5226
vn -0.8132 -0.1506 0.5621
vn 0.5897 -0.0479 -0.8062
vn 0.8035 0.5868 -0.1007
vn 0.9801 0.1727 -0.0980
vn 0.7119 0.3760 0.5931
vn -0.9802 0.1513 -0.1277
vn -0.7718 0.3083 0.5561
vn 0.3000 -0.2513 0.9203
vn -0.8132 -0.1507 0.5621
vn -0.6102 0.6565 0.4436
vn -0.5499 -0.7799 0.2991
vn 0.7409 -0.6633 -0.1053
vn 0.6653 -0.7336 0.1384
vn -0.8172 -0.5721 0.0694
vn -0.6788 0.7236 0.1249
vn 0.6931 0.5977 0.4030
vn -0.2871 -0.2466 0.9256
vn -0.9395 -0.1112 0.3240
vn -0.2870 -0.2465 0.9256
vt 0.183590 0.480460
vt 0.246100 0.078130
vt 0.011720 0.117180
vt 0.144540 0.527340
vt 0.226570 0.035150
vt 0.148440 0.464850
vt 0.011720 0.082040
vt 0.269540 0.093750
vt 0.183590 0.480460
vt 0.156250 0.035150
vt 0.144540 0.527340
vt 0.089840 0.082040
vt 0.136720 0.082030
vt 0.148440 0.464850
vt 0.011720 0.082040
vt 0.113280 0.093750
vt 0.230460 0.109370
vt 0.152350 0.109370
vt 0.261720 0.121090
vt 0.152350 0.109370
vt 0.230460 0.109370
vt 0.011710 0.117180
vt 0.257820 0.117180
vt 0.191410 0.082040
vt 0.152350 0.109370
vt 0.230470 0.109370
vt 0.230460 0.109370
vt 0.152340 0.109370
vt 0.230460 0.109370
vt 0.152350 0.109370
vt 0.121100 0.121090
vt 0.230460 0.109370
vt 0.152350 0.109370
vt 0.117190 0.117180
vt 0.121090 0.117180
vt 0.230460 0.109370
vt 0.152350 0.109370
vt 0.085940 0.117180
vt 0.230460 0.109370
vt 0.152350 0.109370
vt 0.042970 0.117180
vt 0.042970 0.117180
vt 0.148440 0.394530
vt 0.011710 0.082030
vt 0.191400 0.082030
vt 0.191400 0.031250
vt 0.167970 0.007820
vt 0.082030 0.007820
vt 0.214850 0.007820
vt 0.046880 0.007820
vt 0.070320 0.015620
vt 0.218750 0.445320
vt 0.195310 0.363280
vt 0.089850 0.042970
vt 0.179680 0.378900
vt 0.066400 0.039070
vt 0.054690 0.015630
vt 0.195310 0.359370
vt 0.039060 0.042970
vt 0.179690 0.378900
vt 0.039060 0.082030
vt 0.066400 0.070310
vt 0.089840 0.082040
vt 0.003910 0.093750
vt 0.269540 0.093750
vt 0.117180 0.085930
vt 0.042970 0.117180
vt 0.125000 0.355470
vt 0.089850 0.082030
vt 0.125000 0.093750
vt 0.011720 0.117180
vt 0.128910 0.386710
vt 0.113280 0.093750
vt 0.117180 0.046870
vt 0.128910 0.386710
vt 0.152340 0.382810
vt 0.011720 0.046880
vt 0.152340 0.378900
vt 0.160150 0.507810
vt 0.226570 0.082040
vt 0.191400 0.496090
vt 0.199210 0.375000
vt 0.183590 0.425790
vt 0.187500 0.312500
vt 0.140630 0.289060
vt 0.132820 0.289060
vt 0.148440 0.320320
vt 0.128910 0.316400
vt 0.132820 0.308600
vt 0.113290 0.417960
vt 0.199210 0.242180
vt 0.195320 0.234380
vt 0.191400 0.234370
vt 0.140620 0.281250
vt 0.210930 0.242180
vt 0.007820 0.246100
vt 0.007820 0.244140
vt 0.183600 0.355460
vt 0.175780 0.320320
vt 0.187500 0.390630
vt 0.187500 0.281250
vt 0.179690 0.257810
vt 0.179690 0.265630
vt 0.183600 0.246090
vt 0.144530 0.257820
vt 0.179680 0.269540
vt 0.125000 0.261710
vt 0.039060 0.246100
vt 0.039060 0.244140
vt 0.175790 0.289060
vt 0.156250 0.453120
vt 0.199210 0.261710
vt 0.152350 0.394540
vt 0.214840 0.257810
vt 0.125000 0.394540
vt 0.140620 0.296870
vt 0.156250 0.359370
vt 0.105470 0.464840
vt 0.132820 0.351570
vt 0.121100 0.464840
vt 0.128900 0.503900
vt 0.261720 0.082040
vt 0.109380 0.500000
vt 0.000000 0.078130
vt 0.277340 0.082040
vt 0.132820 0.386710
vt 0.140630 0.273430
vt 0.136720 0.277350
vt 0.023430 0.250000
vt 0.042960 0.218750
vt 0.109380 0.230460
vt 0.023440 0.179680
vt 0.121100 0.179690
vt 0.039060 0.171870
vt 0.328130 0.375000
vt 0.023440 0.542960
vt 0.023440 0.539060
vt 0.019540 0.531250
vt 0.312500 0.375000
vt 0.023440 0.480470
vt 0.371100 0.273430
vt 0.414070 0.214840
vt 0.332040 0.347650
vt 0.070320 0.500000
vt 0.011720 0.136720
vt 0.144540 0.117190
vt 0.144540 0.160160
vt 0.425780 0.136720
vt 0.042970 0.492190
vt 0.355470 0.136720
vt 0.425780 0.136720
vt 0.054680 0.515620
vt 0.074210 0.531250
vt 0.027350 0.136720
vt 0.222660 0.117190
vt 0.140620 0.140630
vt 0.222650 0.160160
vt 0.089850 0.480470
vt 0.414070 0.265620
vt 0.148430 0.218750
vt 0.257810 0.199220
vt 0.191400 0.203130
vt 0.003910 0.214840
vt 0.109380 0.210930
vt 0.121100 0.140630
vt 0.093750 0.535150
vt 0.074210 0.539060
vt 0.035160 0.136720
vt 0.015630 0.214840
vt 0.023430 0.246100
vt 0.023430 0.244140
vt 0.355470 0.136720
vt 0.019540 0.496090
vt 0.308600 0.347650
vt 0.128900 0.214840
vt 0.039070 0.246090
vt 0.125000 0.257820
vt 0.039060 0.244140
vt 0.007820 0.246090
vt 0.210930 0.242180
vt 0.007820 0.244140
vt 0.128910 0.242180
vt 0.183600 0.242180
vt 0.144530 0.257820
vt 0.250000 0.242180
vt 0.042970 0.550780
vt 0.035160 0.542960
vt 0.074210 0.507810
vt 0.054690 0.468750
vt 0.371100 0.273430
vt 0.414070 0.265620
vt 0.437500 0.125000
vt 0.339840 0.308600
vt 0.308600 0.296880
vt 0.023440 0.433600
vt 0.417960 0.074220
vt 0.335940 0.292970
vt 0.429690 0.078130
vt 0.359380 0.070320
vt 0.023440 0.449220
vt 0.304690 0.312500
vt 0.355470 0.136710
vt 0.433600 0.140620
vt 0.414070 0.265620
vt 0.062500 0.496090
vt 0.371100 0.273430
vt 0.421880 0.277340
vt 0.425780 0.136710
vt 0.035160 0.449220
vt 0.035150 0.433600
vt 0.417960 0.097650
vt 0.429690 0.093750
vt 0.359380 0.093750
vt 0.175780 0.324210
vt 0.183590 0.285150
vt 0.187500 0.390630
vt 0.210930 0.253900
vt 0.175780 0.296880
vt 0.183600 0.261710
vt 0.125000 0.394540
vt 0.132820 0.289060
vt 0.128910 0.316400
vt 0.113290 0.417970
vt 0.140630 0.296880
vt 0.136720 0.277350
vt 0.164060 0.253900
vt 0.183600 0.246090
vt 0.195320 0.242190
vt 0.195320 0.234380
vt 0.191410 0.234370
vt 0.156250 0.359370
vt 0.148440 0.328120
vt 0.105470 0.464840
vt 0.125000 0.355470
vt 0.195320 0.261710
vt 0.152340 0.394540
vt 0.183600 0.425780
vt 0.230460 0.488280
vt 0.183600 0.316410
vt 0.160150 0.507810
vt 0.156250 0.082040
vt 0.156250 0.453120
vt 0.191400 0.496090
vt 0.203130 0.582030
vt 0.179690 0.359370
vt 0.175790 0.273440
vt 0.164060 0.257820
vt 0.207030 0.246090
vt 0.175780 0.277350
vt 0.128910 0.253900
vt 0.140630 0.261710
vt 0.128910 0.503900
vt 0.121090 0.082040
vt 0.121100 0.464840
vt 0.109380 0.500000
vt 0.128910 0.386710
vt 0.152340 0.382810
vt 0.105470 0.082040
vt 0.140620 0.281250
vt 0.144530 0.253900
vt 0.312500 0.378900
vt 0.019540 0.542960
vt 0.328130 0.382810
vt 0.023440 0.558590
vt 0.019540 0.539060
vt 0.425780 0.136720
vt 0.332030 0.351560
vt 0.019540 0.500000
vt 0.355470 0.136720
vt 0.308600 0.351560
vt 0.019540 0.492180
vt 0.042970 0.488290
vt 0.414070 0.265620
vt 0.421880 0.277340
vt 0.058590 0.519530
vt 0.070310 0.500000
vt 0.222650 0.160160
vt 0.222660 0.117190
vt 0.160150 0.132820
vt 0.433590 0.140630
vt 0.074210 0.535160
vt 0.140630 0.132820
vt 0.093750 0.554680
vt 0.128910 0.132820
vt 0.089850 0.539070
vt 0.140620 0.132820
vt 0.062500 0.515620
vt 0.085930 0.496090
vt 0.144540 0.160160
vt 0.144540 0.117190
vt 0.160160 0.132820
vt 0.363290 0.148430
vt 0.046880 0.480470
vt 0.371100 0.273430
vt 0.375000 0.273430
vt 0.144530 0.175780
vt 0.128910 0.226560
vt 0.125000 0.222650
vt 0.140630 0.171870
vt 0.128910 0.167960
vt 0.164060 0.218750
vt 0.109380 0.210930
vt 0.152350 0.218750
vt 0.144540 0.210940
vt 0.164060 0.214840
vt 0.257810 0.199220
vt 0.035160 0.546870
vt 0.042970 0.558590
vt 0.144530 0.250000
vt 0.128910 0.250000
vt 0.140630 0.257820
vt 0.160160 0.257820
vt 0.207030 0.242190
vt 0.250000 0.242180
vt 0.160160 0.250000
vt 0.183600 0.242180
vt 0.128910 0.242180
vt 0.191410 0.203120
vt 0.375000 0.085930
vt 0.019540 0.398440
vt 0.308600 0.292960
vt 0.031250 0.414070
vt 0.429690 0.093750
vt 0.035150 0.398440
vt 0.375000 0.105470
vt 0.429680 0.078130
vt 0.019540 0.414070
vt 0.335940 0.289070
vt 0.433590 0.140620
vt 0.355470 0.136720
vt 0.031250 0.437500
vt 0.339840 0.308600
vt 0.019540 0.437500
vt 0.304690 0.312500
vt 0.019540 0.421880
vt 0.363290 0.148430
vt 0.425780 0.136720
vt 0.039070 0.421880
vt 0.414060 0.265620
vt 0.074210 0.492180
vt 0.371100 0.273430
vt 0.058590 0.496090
s 0
usemtl hypnos-t1
f 1/1/1 2/4/2 3/6/3
f 4/9/4 5/11/5 6/14/6
f 7/17/7 8/20/8 9/24/9
f 10/26/10 7/18/7 9/24/9
f 11/27/11 10/25/10 9/24/9
f 12/29/12 11/28/11 9/24/9
f 13/32/13 12/30/14 9/24/9
f 14/36/15 13/33/13 9/24/9
f 15/39/16 14/37/15 9/24/9
f 8/21/17 15/40/18 9/24/9
f 16/44/19 15/41/16 8/22/8
f 17/45/20 1/2/1 10/26/21
f 18/46/22 4/10/23 19/47/24
f 19/47/24 20/49/25 18/46/26
f 21/51/27 22/54/28 23/56/29
f 21/51/30 24/57/31 20/50/25
f 2/5/2 18/46/32 20/49/25
f 25/59/33 24/57/31 23/56/29
f 15/41/18 16/44/19 26/61/34
f 26/61/34 27/62/35 15/41/18
f 8/22/8 28/64/36 16/44/19
f 14/38/15 29/66/37 13/34/13
f 29/66/38 14/38/15 30/69/39
f 5/13/40 17/45/20 11/28/11
f 24/57/31 21/51/41 23/56/29
f 11/28/11 17/45/20 10/26/10
f 20/50/25 19/48/24 21/51/30
f 31/70/42 13/34/13 29/66/37
f 15/41/43 27/62/35 14/38/44
f 27/62/35 30/69/45 14/38/15
f 1/2/1 18/46/32 2/5/46
f 1/2/1 17/45/20 18/46/26
f 8/23/8 3/8/3 28/65/36
f 8/23/17 7/19/7 3/8/3
f 1/2/1 7/19/7 10/26/21
f 1/2/1 3/8/3 7/19/7
f 3/7/47 16/42/48 1/3/49
f 3/7/3 28/63/50 16/42/48
f 22/54/51 27/62/35 23/56/52
f 22/54/51 30/69/45 27/62/35
f 25/59/53 27/62/35 26/61/54
f 25/59/33 23/56/29 27/62/35
f 30/69/55 32/74/56 29/66/37
f 30/69/57 22/54/28 32/74/56
f 26/61/54 33/77/58 25/59/33
f 26/61/34 16/44/19 33/77/58
f 6/15/59 29/67/38 31/71/42
f 6/15/60 5/12/40 29/67/38
f 13/35/13 6/16/6 12/31/14
f 13/35/13 31/73/61 6/16/6
f 5/13/5 12/31/62 6/16/6
f 5/13/5 11/28/11 12/31/62
f 5/13/5 18/46/26 17/45/20
f 5/13/5 4/10/23 18/46/22
f 34/79/63 35/81/64 36/83/65
f 37/85/66 38/87/67 39/89/68
f 40/91/69 41/92/70 42/95/71
f 43/98/72 44/99/73 36/84/74
f 45/101/75 36/84/76 44/99/73
f 46/103/77 45/101/78 47/106/79
f 45/101/78 48/110/80 47/106/79
f 36/83/65 45/100/75 49/111/81
f 45/100/75 50/113/82 49/111/81
f 45/101/78 44/99/73 48/110/83
f 39/88/68 51/116/84 37/86/66
f 40/91/85 42/95/71 51/114/86
f 51/114/87 50/112/88 40/91/69
f 38/87/67 52/117/89 53/119/90
f 34/79/91 36/83/74 49/111/81
f 53/119/90 39/89/68 38/87/67
f 54/120/92 34/79/63 49/111/81
f 54/120/92 55/121/93 34/79/63
f 55/121/94 53/118/90 56/123/95
f 55/121/94 54/120/96 53/118/90
f 48/110/83 38/87/97 37/85/66
f 48/110/80 44/99/73 38/87/67
f 47/106/79 37/85/66 57/127/98
f 47/106/99 48/110/80 37/85/100
f 52/117/101 44/99/73 43/98/72
f 52/117/102 38/87/67 44/99/73
f 40/91/69 45/102/75 46/104/77
f 40/91/69 50/112/88 45/102/75
f 54/120/92 50/113/82 51/115/87
f 54/120/92 49/111/81 50/113/103
f 54/120/96 39/90/68 53/118/90
f 54/120/92 51/115/86 39/90/104
f 51/116/86 57/128/105 37/86/66
f 51/116/87 42/94/71 57/128/106
f 58/130/107 59/132/108 60/134/109
f 61/135/110 62/139/111 63/143/112
f 64/144/113 65/149/114 66/152/115
f 66/152/116 67/153/117 64/144/113
f 68/156/118 69/160/119 60/133/120
f 68/155/121 70/162/122 69/161/123
f 71/163/124 64/145/125 59/132/126
f 64/145/125 67/154/117 59/132/126
f 72/165/127 68/156/121 60/133/128
f 70/162/129 64/146/113 71/164/124
f 70/162/122 68/157/118 64/147/113
f 73/169/130 74/170/131 71/163/124
f 66/152/115 65/149/132 75/173/133
f 76/175/134 69/160/119 77/177/135
f 74/170/131 78/179/136 71/163/124
f 74/170/131 73/169/137 58/130/107
f 69/160/138 79/184/139 77/177/135
f 58/130/107 73/169/130 59/132/126
f 58/131/107 76/175/140 77/177/135
f 77/176/141 74/170/142 58/130/107
f 61/136/110 80/187/143 62/138/111
f 81/188/144 82/189/145 68/158/146
f 80/186/147 61/137/148 72/166/127
f 66/152/115 62/138/111 67/153/117
f 76/175/134 60/133/120 69/160/138
f 60/133/120 76/175/134 58/131/107
f 71/163/124 59/132/108 73/169/130
f 72/166/127 61/137/110 81/188/144
f 81/188/144 68/158/146 72/166/127
f 63/140/149 82/189/145 81/188/144
f 63/140/149 81/188/144 61/137/110
f 62/138/150 66/152/116 75/173/133
f 67/153/117 62/138/111 80/187/151
f 80/187/152 72/167/127 67/153/117
f 62/139/153 75/174/133 63/143/154
f 65/150/155 68/159/121 82/190/145
f 65/150/156 64/148/125 68/159/121
f 60/134/120 67/154/117 72/168/157
f 60/134/120 59/132/126 67/154/158
f 75/172/133 82/191/145 63/141/149
f 75/172/159 65/151/155 82/191/160
f 83/193/161 84/194/162 85/197/163
f 83/193/164 86/201/165 84/194/166
f 87/202/167 88/204/168 89/206/169
f 87/202/167 90/208/170 88/204/171
f 87/202/172 91/211/173 90/208/174
f 87/202/167 92/213/175 91/211/173
f 86/200/176 91/210/177 84/195/162
f 86/200/165 90/209/174 91/210/177
f 87/203/167 85/198/178 92/212/175
f 87/203/167 83/192/161 85/198/163
f 84/196/179 92/213/180 85/199/178
f 84/196/162 91/211/181 92/213/180
f 93/214/182 94/215/183 95/218/184
f 96/221/185 97/222/186 98/224/187
f 99/227/188 100/228/189 96/219/185
f 101/229/190 100/228/191 99/227/188
f 102/231/192 103/232/193 104/234/194
f 105/235/195 96/219/185 100/228/196
f 106/237/197 107/240/198 108/242/199
f 107/240/200 106/237/201 109/243/202
f 93/214/182 110/245/203 106/239/201
f 106/239/197 94/215/183 93/214/182
f 94/215/183 111/246/204 112/249/205
f 95/218/206 94/215/183 112/249/205
f 97/222/186 104/234/194 103/232/193
f 94/216/183 106/237/197 108/242/207
f 105/236/195 94/216/208 108/242/209
f 103/232/193 98/224/187 97/222/210
f 100/228/189 94/217/183 105/235/195
f 100/228/189 111/248/204 94/217/183
f 113/252/211 104/233/194 114/254/212
f 113/252/213 115/255/214 104/233/194
f 114/254/212 107/240/200 113/252/211
f 114/254/212 108/242/199 107/240/200
f 112/249/215 98/224/187 95/218/184
f 112/249/205 116/259/216 98/224/187
f 114/254/212 97/223/186 96/220/185
f 114/254/212 104/233/217 97/223/186
f 114/254/212 105/236/195 108/242/199
f 114/254/212 96/220/185 105/236/195
f 102/231/192 93/214/182 103/232/193
f 102/231/192 110/245/203 93/214/182
f 96/221/185 116/259/216 99/225/218
f 96/221/185 98/224/187 116/259/219
f 95/218/220 103/232/193 93/214/182
f 95/218/184 98/224/187 103/232/193
f 117/261/221 118/263/222 119/267/223
f 120/270/224 117/261/225 119/267/226
f 121/272/227 119/268/223 122/275/228
f 123/276/229 122/275/228 124/281/230
f 118/265/222 124/281/230 122/275/228
f 125/285/231 126/287/232 127/288/233
f 128/293/234 127/288/235 126/287/236
f 129/296/237 130/298/238 131/300/239
f 129/296/240 132/301/241 133/303/242
f 134/304/243 131/299/244 130/297/238
f 131/299/244 134/304/245 135/305/246
f 117/262/221 126/287/236 125/285/247
f 118/265/248 136/307/249 124/281/230
f 121/272/250 122/275/228 123/276/229
f 136/308/251 118/264/222 117/262/252
f 137/309/253 138/310/254 130/298/238
f 134/304/255 130/297/238 138/311/254
f 133/303/242 130/298/238 129/296/240
f 139/312/256 135/305/246 138/311/254
f 133/303/257 137/309/258 130/298/238
f 140/315/259 137/309/258 132/301/260
f 135/305/261 134/304/255 138/311/262
f 128/293/234 126/287/236 120/271/224
f 137/309/263 133/303/242 132/301/260
f 123/277/264 141/318/265 127/289/235
f 127/290/235 141/318/265 132/302/241
f 141/318/265 123/278/264 135/306/261
f 135/305/261 123/279/264 131/299/244
f 123/279/266 124/282/230 131/299/244
f 125/286/247 127/291/267 129/296/240
f 127/291/235 132/301/241 129/296/237
f 117/262/221 125/285/247 136/308/251
f 126/287/232 117/262/252 120/271/224
f 124/283/230 136/308/268 125/285/247
f 122/275/228 119/268/223 118/265/222
f 120/269/224 121/273/269 128/294/234
f 120/269/224 119/266/223 121/273/269
f 131/300/239 125/286/247 129/296/237
f 131/300/239 124/284/230 125/286/231
f 128/295/234 123/280/266 127/292/267
f 128/295/234 121/274/250 123/280/266
f 142/319/270 143/323/271 144/325/272
f 142/319/273 145/326/274 143/323/271
f 146/331/275 145/327/276 147/333/277
f 146/331/275 143/322/278 145/327/279
f 148/335/280 144/324/281 149/338/282
f 148/335/283 142/320/273 144/324/284
f 146/329/275 144/325/285 143/323/286
f 146/329/275 149/336/287 144/325/272
f 146/330/288 150/339/289 149/337/290
f 146/330/275 151/341/291 150/339/292
f 147/332/293 142/321/273 148/334/283
f 147/332/293 145/328/274 142/321/273
f 24/58/31 25/60/33 43/98/72
f 22/55/28 21/53/294 110/245/203
f 25/60/33 33/78/295 52/117/101
f 43/98/72 25/60/53 52/117/101
f 22/55/28 110/245/203 102/231/192
f 32/76/56 22/55/51 102/231/192
f 33/78/58 16/43/19 56/126/95
f 29/68/37 32/75/56 115/257/214
f 36/84/65 35/82/64 24/58/296
f 43/98/72 36/84/76 24/58/31
f 109/244/202 106/238/197 21/52/27
f 106/239/197 110/245/203 21/53/41
f 140/315/297 99/226/298 137/309/263
f 116/260/299 137/309/258 99/226/188
f 138/310/262 137/309/263 112/250/205
f 137/309/263 116/260/300 112/250/205
f 139/312/256 138/311/262 112/251/205
f 111/247/204 139/312/301 112/251/205
f 99/227/188 140/316/297 101/229/190
f 101/229/190 139/313/301 100/228/189
f 139/313/256 111/248/204 100/228/189
f 32/76/56 102/231/192 104/234/217
f 46/104/302 79/183/303 40/91/69
f 79/183/303 41/92/70 40/91/69
f 78/180/136 42/95/71 41/92/70
f 79/184/303 46/105/302 47/107/99
f 77/177/135 79/184/303 47/107/79
f 57/129/98 74/170/131 47/108/79
f 74/171/131 77/178/141 47/109/79
f 74/170/142 57/129/304 42/96/71
f 42/97/71 78/181/136 74/171/142
f 56/124/95 16/44/19 28/64/305
f 3/8/3 34/80/63 55/122/94
f 56/125/306 3/8/3 55/122/94
f 56/125/95 28/65/305 3/8/307
f 52/117/89 33/78/58 53/119/90
f 56/126/95 53/119/90 33/78/58
f 104/234/217 115/256/308 32/76/56
f 29/68/38 115/257/214 31/72/42
f 107/241/200 6/16/6 113/253/213
f 6/16/6 115/258/308 113/253/211
f 31/73/42 115/258/214 6/16/309
f 69/161/123 41/93/310 79/185/311
f 69/161/119 70/162/122 41/93/70
f 78/182/136 70/162/129 71/164/124
f 78/182/136 41/93/70 70/162/122
f 89/207/169 83/192/161 87/203/172
f 89/207/312 63/142/313 83/192/161
f 88/205/168 86/200/314 75/173/133
f 88/205/171 90/209/174 86/200/176
f 86/201/176 63/143/149 75/174/133
f 86/201/176 83/193/161 63/143/149
f 148/334/283 119/267/223 147/332/315
f 148/334/283 120/270/316 119/267/223
f 150/340/317 148/335/283 149/338/287
f 150/340/317 120/271/224 148/335/283
f 151/342/318 147/333/293 119/268/226
f 151/342/291 146/331/275 147/333/277
f 140/317/297 141/318/265 101/230/319
f 140/317/320 132/302/241 141/318/265
f 135/306/261 101/230/321 141/318/265
f 135/306/261 139/314/256 101/230/319
o object0.003
v 0.268439 4.183868 0.346688
v 0.370378 4.271906 -0.239699
v 0.536878 4.322138 0.005810
v -0.268439 4.183868 0.346688
v -0.241255 4.598433 0.346877
v 0.241255 4.598433 0.346877
v 0.530082 4.682577 -0.008505
v 0.271837 5.056360 0.395371
v 0.625225 4.958774 -0.065017
v 0.570858 5.181976 0.200398
v 0.397562 4.690209 -0.259836
v 0.652409 5.174262 -0.350224
v 0.878755 5.582626 -0.176836
v 0.717686 5.428725 0.150186
v 0.736885 5.762014 -0.048084
v 0.722868 5.798410 -0.404271
v 0.363582 5.167792 -0.571210
v 0.288827 5.940928 -0.272742
v 0.000000 5.785382 -0.520026
v -0.288827 5.940928 -0.272742
v 0.000000 5.153229 -0.513687
v -0.363582 5.167792 -0.571210
v -0.722868 5.798410 -0.404271
v -0.652409 5.174262 -0.350224
v -0.736885 5.762014 -0.048084
v -0.878755 5.582626 -0.176836
v -0.570858 5.181976 0.200398
v -0.717686 5.428725 0.150186
v -0.625225 4.958774 -0.065017
v -0.271837 5.056360 0.395371
v -0.397562 4.690209 -0.259836
v -0.530082 4.682577 -0.008505
v -0.536878 4.322138 0.005810
v -0.380572 4.275300 -0.239642
v -0.237857 4.692271 -0.382132
v 0.000000 4.226176 -0.349209
v 0.000000 4.689675 -0.429749
v 0.237857 4.692271 -0.382132
v -0.428143 5.198693 0.418158
v -0.288827 5.796093 0.054433
v 0.000000 5.736625 0.155374
v 0.421347 5.198693 0.418158
v 0.288827 5.796093 0.054433
vn 0.3957 -0.2904 0.8712
vn 0.6242 -0.3801 -0.6825
vn 0.9694 -0.2399 0.0516
vn 0.5171 -0.0327 0.8553
vn 0.3957 -0.2904 0.8713
vn -0.4321 -0.0208 0.9016
vn -0.5459 -0.4058 0.7331
vn 0.5170 -0.0327 0.8553
vn 0.9844 -0.1431 0.1019
vn 0.8989 -0.4211 0.1209
vn 0.4440 -0.3732 0.8146
vn 0.8989 -0.4211 0.1208
vn 0.4441 -0.3731 0.8146
vn 0.7537 -0.4803 0.4486
vn 0.4440 -0.3731 0.8146
vn 0.9949 -0.0817 0.0587
vn 0.7888 -0.2506 -0.5612
vn 0.7591 -0.3384 -0.5562
vn 0.9949 -0.0816 0.0587
vn 0.7117 0.1213 0.6919
vn 0.7118 0.1213 0.6919
vn 0.5345 0.7290 0.4277
vn 0.5974 0.4920 -0.6333
vn 0.5974 0.4921 -0.6333
vn 0.1367 0.9891 -0.0549
vn 0.2239 -0.1623 -0.9610
vn 0.5973 0.4921 -0.6333
vn -0.0000 0.4388 -0.8986
vn -0.1367 0.9891 -0.0549
vn -0.5974 0.4920 -0.6333
vn -0.0000 -0.1759 -0.9844
vn -0.2228 -0.1623 -0.9613
vn -0.5974 0.4921 -0.6333
vn -0.5345 0.7290 0.4277
vn -0.7583 -0.3386 -0.5571
vn -0.9950 -0.0814 0.0587
vn -0.5973 0.4921 -0.6333
vn -0.2229 -0.1623 -0.9613
vn -0.9949 -0.0814 0.0587
vn -0.7545 -0.4844 0.4429
vn -0.7145 0.1204 0.6892
vn -0.9007 -0.4170 0.1222
vn -0.4446 -0.3713 0.8152
vn -0.9854 -0.1351 0.1040
vn -0.9007 -0.4169 0.1222
vn -0.4446 -0.3712 0.8152
vn -0.7544 -0.4844 0.4429
vn -0.9854 -0.1351 0.1039
vn -0.9007 -0.4170 0.1221
vn -0.7915 -0.2455 -0.5597
vn -0.9704 -0.2351 0.0556
vn -0.6293 -0.3726 -0.6820
vn -0.6294 -0.3726 -0.6819
vn -0.5458 -0.4058 0.7331
vn -0.5459 -0.4057 0.7331
vn -0.2986 -0.2428 -0.9230
vn 0.0007 -0.2054 -0.9787
vn -0.6293 -0.3726 -0.6819
vn 0.0007 -0.2055 -0.9787
vn -0.0000 -0.1770 -0.9842
vn 0.2998 -0.2453 -0.9220
vn 0.2998 -0.2452 -0.9220
vn 0.6242 -0.3802 -0.6826
vn 0.2998 -0.2452 -0.9219
vn 0.7591 -0.3384 -0.5561
vn 0.2998 -0.2453 -0.9219
vn -0.0000 -0.1758 -0.9844
vn 0.2997 -0.2452 -0.9220
vn -0.2229 -0.1623 -0.9612
vn -0.2228 -0.1623 -0.9612
vn -0.2229 -0.1622 -0.9613
vn -0.3784 0.0650 0.9234
vn -0.1565 0.7419 0.6520
vn -0.3784 0.0650 0.9233
vn -0.0000 0.6165 0.7874
vn -0.1565 0.7418 0.6521
vn 0.3754 0.0679 0.9244
vn -0.3784 0.0651 0.9234
vn 0.3754 0.0679 0.9243
vn 0.7537 -0.4804 0.4486
vn 0.1562 0.7413 0.6527
vn 0.1563 0.7413 0.6527
vn 0.3755 0.0679 0.9243
vn -0.1565 0.7418 0.6520
vn 0.6242 -0.3802 -0.6825
vn 0.9845 -0.1431 0.1018
vt 0.191410 0.082040
vt 0.398430 0.757820
vt 0.152350 0.109370
vt 0.074210 0.757820
vt 0.230460 0.109370
vt 0.421870 0.773440
vt 0.058600 0.757820
vt 0.191410 0.082040
vt 0.347660 0.757820
vt 0.351570 0.796880
vt 0.394540 0.796880
vt 0.421880 0.804680
vt 0.058600 0.792960
vt 0.398440 0.839850
vt 0.429690 0.832040
vt 0.042960 0.820320
vt 0.425790 0.851570
vt 0.074210 0.796870
vt 0.039070 0.843750
vt 0.449210 0.886710
vt 0.453120 0.890620
vt 0.398440 0.910150
vt 0.191400 0.664070
vt 0.007820 0.882810
vt 0.437500 0.871090
vt 0.437500 0.875000
vt 0.414070 0.855470
vt 0.175790 0.710930
vt 0.437500 0.902340
vt 0.441400 0.902350
vt 0.156250 0.687500
vt 0.437500 0.914060
vt 0.027350 0.906250
vt 0.078130 0.847650
vt 0.089850 0.917960
vt 0.398430 0.925780
vt 0.128910 0.906250
vt 0.167970 0.917960
vt 0.347660 0.925780
vt 0.496090 0.855460
vt 0.128910 0.847650
vt 0.183600 0.847650
vt 0.308600 0.914060
vt 0.230460 0.906250
vt 0.171880 0.562500
vt 0.218750 0.843750
vt 0.179690 0.562500
vt 0.199220 0.523430
vt 0.304690 0.906250
vt 0.441410 0.757820
vt 0.191400 0.554690
vt 0.292970 0.886710
vt 0.250000 0.882810
vt 0.175790 0.488290
vt 0.320320 0.851570
vt 0.203120 0.492180
vt 0.304690 0.875000
vt 0.312500 0.832040
vt 0.214850 0.820310
vt 0.347650 0.839850
vt 0.187500 0.796880
vt 0.199220 0.792960
vt 0.324220 0.804680
vt 0.203120 0.757820
vt 0.230460 0.109370
vt 0.324220 0.773430
vt 0.152350 0.109370
vt 0.183590 0.757810
vt 0.164070 0.796880
vt 0.128900 0.750000
vt 0.128910 0.796880
vt 0.093750 0.796880
vt 0.332040 0.855460
vt 0.347660 0.906250
vt 0.343750 0.910150
vt 0.472660 0.761710
vt 0.371100 0.902350
vt 0.414070 0.855470
vt 0.398440 0.910150
vt 0.398430 0.906250
s 0
usemtl hypnos-t1
f 152/343/322 153/345/323 154/347/324
f 157/353/325 152/344/326 154/348/324
f 156/352/327 155/351/328 152/344/322
f 152/344/322 157/353/329 156/352/327
f 154/348/324 158/354/330 157/353/325
f 160/357/331 157/353/329 158/354/330
f 159/356/332 156/352/327 157/353/325
f 160/357/333 159/356/334 157/353/325
f 160/357/331 161/359/335 159/356/336
f 161/359/335 160/357/331 164/362/337
f 162/360/338 160/358/331 158/355/330
f 160/358/331 162/360/338 163/361/339
f 160/358/331 163/361/339 164/366/340
f 165/367/341 161/359/335 164/363/337
f 165/368/342 164/364/340 166/369/343
f 167/373/344 166/370/343 164/365/337
f 164/366/337 163/361/339 167/375/344
f 167/374/345 169/378/346 166/372/343
f 163/361/339 168/376/347 167/375/348
f 170/379/349 167/375/345 168/376/347
f 167/375/344 170/379/349 169/377/346
f 169/377/346 170/379/349 171/380/350
f 174/386/351 171/380/350 170/379/349
f 168/376/347 172/383/352 170/379/349
f 172/383/352 173/384/353 170/379/349
f 173/384/353 174/386/354 170/379/349
f 174/385/354 176/391/355 171/381/350
f 175/388/356 177/395/357 174/386/351
f 175/388/356 174/386/358 173/384/359
f 177/393/360 176/389/355 174/387/351
f 178/397/361 179/399/362 177/394/357
f 180/400/363 178/397/361 177/394/360
f 175/388/356 180/401/363 177/395/357
f 179/398/362 176/390/355 177/396/357
f 181/402/364 180/400/363 183/405/365
f 180/400/366 181/402/367 178/397/368
f 183/404/369 180/401/370 182/403/371
f 182/403/371 180/401/363 175/388/356
f 184/406/372 183/404/365 182/403/371
f 156/352/327 183/405/369 184/408/372
f 181/402/367 183/405/369 156/352/327
f 185/410/373 184/406/372 182/403/371
f 184/407/372 185/409/374 155/350/375
f 155/351/376 156/352/327 184/408/372
f 185/410/374 182/403/371 186/411/377
f 187/412/378 185/410/379 186/411/377
f 187/412/380 186/411/377 188/413/381
f 189/414/382 153/346/323 187/412/380
f 189/414/383 187/412/380 188/413/381
f 189/414/383 162/360/338 153/346/384
f 163/361/339 162/360/338 189/414/385
f 163/361/386 189/414/387 168/376/347
f 172/383/388 168/376/347 189/414/389
f 189/414/387 188/413/381 172/383/388
f 188/413/381 186/411/377 172/383/388
f 182/403/371 173/384/390 186/411/377
f 186/411/377 173/384/391 172/383/388
f 182/403/371 175/388/356 173/384/392
f 159/356/334 181/402/367 156/352/327
f 190/415/393 181/402/367 159/356/332
f 190/415/393 178/397/368 181/402/367
f 178/397/368 190/415/393 179/399/362
f 191/417/394 179/399/362 190/415/395
f 192/419/396 191/417/397 190/415/393
f 192/419/396 190/415/393 193/420/398
f 190/415/399 159/356/336 193/420/400
f 193/420/398 159/356/334 161/359/401
f 193/420/398 161/359/401 165/368/341
f 194/421/402 192/419/396 193/420/398
f 165/368/341 194/421/403 193/420/404
f 171/381/350 191/416/405 194/422/403
f 191/417/394 192/419/396 194/421/402
f 165/368/341 166/371/343 194/421/402
f 194/422/403 166/372/343 169/378/346
f 171/381/350 194/422/402 169/378/346
f 179/399/362 191/417/394 176/391/355
f 191/418/394 171/382/350 176/392/355
f 154/349/324 153/346/406 162/360/338
f 158/355/407 154/349/324 162/360/338
o object0.004
v -0.037378 6.312706 0.250033
v -0.006796 6.366543 0.281523
v -0.037378 6.366944 0.257744
v -0.132521 6.309593 0.232990
v -0.054367 6.182700 0.302212
v -0.135919 6.384216 0.241044
v -0.224266 6.365037 0.169361
v -0.173296 6.404372 0.254976
v 0.000000 6.379618 0.312327
v 0.013592 6.366543 0.281523
v -0.173296 6.496321 0.242933
v 0.044174 6.366944 0.257744
v 0.180092 6.496321 0.242933
v 0.173296 6.404372 0.254976
v 0.000000 6.471169 0.324064
v 0.142714 6.384216 0.241044
v 0.139316 6.309593 0.232990
v 0.231062 6.365037 0.169361
v 0.197082 6.238542 0.214803
v 0.261643 6.197756 0.013628
v 0.268439 6.367096 0.047064
v 0.268439 6.441893 0.044926
v 0.312613 6.362248 -0.068553
v 0.309215 6.440041 -0.046854
v 0.275235 6.440041 -0.046854
v 0.271837 6.570754 0.060690
v 0.278633 6.362248 -0.068553
v 0.265041 6.578273 -0.183846
v 0.217470 6.737936 -0.181156
v 0.183490 6.654955 -0.298090
v 0.288827 6.394770 -0.183540
v 0.237857 6.190943 -0.186975
v 0.207276 6.421355 -0.349599
v 0.000000 6.690243 -0.375651
v 0.000000 6.426354 -0.444662
v 0.129123 6.175557 -0.282381
v 0.000000 6.190290 -0.350095
v 0.248051 5.791968 -0.305835
v 0.000000 5.851435 -0.406776
v -0.248051 5.791968 -0.305835
v -0.129123 6.175557 -0.282381
v -0.237857 6.190943 -0.186975
v -0.186888 6.421355 -0.349599
v -0.159704 6.651557 -0.298147
v -0.265041 6.578273 -0.183846
v -0.288827 6.394770 -0.183540
v -0.278633 6.362248 -0.068553
v -0.275235 6.440041 -0.046854
v -0.261643 6.197756 0.013628
v -0.207276 6.084620 0.072887
v -0.197082 6.238542 0.214803
v -0.312613 6.362248 -0.068553
v -0.268439 6.367096 0.047064
v -0.217470 6.058932 -0.015896
v -0.118929 5.953925 0.165832
v -0.193684 5.764584 -0.092216
v 0.000000 5.924668 0.087182
v 0.057765 5.929174 0.223182
v 0.197082 5.764584 -0.092216
v -0.047571 5.929174 0.223182
v 0.000000 5.762178 0.050464
v 0.118929 5.953925 0.165832
v 0.217470 6.058932 -0.015896
v 0.207276 6.084620 0.072887
v 0.156306 6.089181 0.205490
v 0.064561 6.091318 0.280284
v 0.061163 5.948811 0.267688
v -0.050969 5.948811 0.267688
v -0.054367 6.091318 0.280284
v -0.146112 6.089181 0.205490
v 0.067959 6.182700 0.302212
v 0.027184 6.198541 0.370441
v -0.020388 6.198541 0.370441
v 0.037378 6.312706 0.250033
v -0.268439 6.441893 0.044926
v -0.271837 6.570754 0.060690
v -0.309215 6.440041 -0.046854
v -0.217470 6.712918 0.093668
v -0.156306 6.642913 0.214820
v 0.000000 6.689101 0.297153
v 0.000000 6.787540 0.101722
v 0.217470 6.716316 0.093725
v 0.000000 6.805821 -0.176614
v -0.217470 6.737936 -0.181156
v 0.156306 6.646311 0.214877
v 0.000000 6.562775 0.332403
vn -0.4446 -0.1210 0.8875
vn -0.5295 -0.2689 0.8045
vn -0.5284 0.1028 0.8428
vn -0.5283 0.1028 0.8428
vn -0.5295 -0.2690 0.8045
vn -0.4184 -0.5149 0.7482
vn -0.3647 -0.5452 0.7548
vn -0.4184 -0.5148 0.7483
vn -0.3969 0.1011 0.9123
vn -0.4446 -0.1209 0.8875
vn -0.3647 -0.5453 0.7548
vn -0.7670 -0.1103 0.6321
vn 0.0129 -0.5425 0.8400
vn -0.5032 -0.4554 0.7345
vn -0.4184 -0.5149 0.7483
vn -0.5296 -0.2690 0.8045
vn 0.5132 -0.2704 0.8146
vn 0.5131 -0.2703 0.8146
vn 0.4223 -0.4798 0.7691
vn -0.7181 0.0609 0.6932
vn -0.0005 -0.1095 0.9940
vn -0.7182 0.0608 0.6932
vn 0.3788 -0.4925 0.7835
vn 0.7195 0.0623 0.6917
vn 0.5021 -0.4038 0.7647
vn 0.7659 -0.1188 0.6319
vn 0.4037 0.0970 0.9097
vn 0.3789 -0.4925 0.7835
vn 0.9573 -0.2887 0.0174
vn 0.7658 -0.1188 0.6319
vn 0.7758 -0.0826 0.6256
vn 0.4038 0.0970 0.9097
vn 0.7757 -0.0826 0.6256
vn 0.9317 -0.0122 0.3629
vn 0.7659 -0.1189 0.6319
vn 0.9317 -0.0122 0.3630
vn 0.9206 0.2446 0.3045
vn 0.5513 0.7612 -0.3415
vn 0.9206 0.2447 0.3045
vn 0.8485 -0.1376 -0.5109
vn 0.7643 0.5228 -0.3775
vn 0.5512 0.7613 -0.3415
vn 0.8486 -0.1376 -0.5109
vn 0.9205 0.2447 0.3045
vn 0.9627 0.1251 0.2400
vn 0.9206 0.2447 0.3044
vn 0.7643 0.5228 -0.3774
vn 0.9639 0.1543 -0.2169
vn 0.7072 -0.0988 -0.7000
vn 0.7072 -0.0988 -0.7001
vn 0.6882 0.6626 -0.2956
vn 0.6882 0.6626 -0.2955
vn 0.6289 0.3674 -0.6852
vn 0.9554 -0.0549 -0.2900
vn 0.6290 0.3674 -0.6852
vn 0.7072 -0.0989 -0.7000
vn 0.9639 0.1544 -0.2169
vn 0.9256 -0.1453 -0.3495
vn 0.6711 -0.1274 -0.7303
vn 0.9554 -0.0550 -0.2900
vn -0.0195 0.5884 -0.8083
vn -0.0124 -0.1621 -0.9867
vn 0.5141 -0.0867 -0.8533
vn -0.0125 -0.1621 -0.9867
vn 0.5141 -0.0867 -0.8534
vn -0.0000 -0.1075 -0.9942
vn -0.0000 0.1756 -0.9845
vn 0.9153 0.0843 -0.3939
vn 0.9256 -0.1452 -0.3495
vn -0.5195 -0.0750 -0.8512
vn -0.9164 0.0813 -0.3920
vn -0.5194 -0.0750 -0.8512
vn -0.9319 -0.1234 -0.3410
vn -0.6628 -0.0812 -0.7444
vn -0.9319 -0.1235 -0.3410
vn -0.6090 0.4194 -0.6732
vn -0.9485 0.2238 -0.2241
vn -0.6091 0.4194 -0.6732
vn -0.9628 0.0160 -0.2696
vn -0.9629 0.0160 -0.2695
vn -0.9319 -0.1234 -0.3411
vn -0.9609 -0.2733 0.0447
vn -0.7550 0.5681 -0.3274
vn -0.7496 -0.0531 -0.6598
vn -0.7551 0.5681 -0.3274
vn -0.9090 -0.3750 0.1820
vn -0.8928 -0.3273 0.3095
vn -0.7554 -0.0828 0.6500
vn -0.8446 -0.1660 -0.5090
vn -0.9264 -0.0246 0.3756
vn -0.9090 -0.3750 0.1819
vn 0.0007 -0.9143 0.4051
vn -0.6997 -0.6880 0.1928
vn -0.7394 -0.1892 0.6461
vn 0.0008 -0.9143 0.4051
vn -0.7394 -0.1891 0.6461
vn -0.2192 -0.9617 0.1648
vn 0.2329 -0.9611 0.1486
vn -0.2192 -0.9617 0.1647
vn 0.7060 -0.6914 0.1532
vn 0.7400 -0.1840 0.6470
vn -0.0029 -0.2014 0.9795
vn 0.9100 -0.3732 0.1807
vn -0.7395 -0.1891 0.6461
vn 0.9099 -0.3733 0.1808
vn 0.9006 -0.3264 0.2870
vn 0.9099 -0.3733 0.1807
vn 0.7400 -0.1840 0.6469
vn 0.9153 0.0843 -0.3940
vn 0.7934 -0.2576 0.5514
vn 0.7934 -0.2577 0.5514
vn 0.7758 -0.0825 0.6256
vn 0.3342 -0.1597 0.9289
vn 0.4931 -0.5314 0.6889
vn 0.4931 -0.5314 0.6888
vn -0.4726 -0.5182 0.7128
vn -0.3183 -0.1545 0.9353
vn -0.7627 -0.2452 0.5985
vn -0.6997 -0.6879 0.1928
vn -0.7554 -0.0827 0.6500
vn -0.7626 -0.2452 0.5985
vn -0.3184 -0.1545 0.9353
vn -0.7555 -0.0827 0.6500
vn -0.3183 -0.1544 0.9353
vn -0.4446 -0.1209 0.8876
vn 0.4484 -0.1116 0.8868
vn -0.4970 -0.1363 0.8570
vn -0.4445 -0.1209 0.8876
vn 0.5131 -0.2704 0.8146
vn 0.4595 -0.1143 0.8808
vn 0.4484 -0.1116 0.8869
vn 0.4595 -0.1142 0.8808
vn -0.4971 -0.1363 0.8569
vn 0.5058 0.1013 0.8567
vn 0.5059 0.1013 0.8566
vn 0.4594 -0.1142 0.8808
vn -0.4971 -0.1363 0.8570
vn -0.9264 -0.0247 0.3756
vn -0.9118 0.2442 0.3301
vn -0.7670 -0.1103 0.6320
vn -0.5664 0.7453 -0.3518
vn -0.9517 0.1530 0.2663
vn -0.9118 0.2443 0.3301
vn -0.5664 0.7453 -0.3517
vn -0.9118 0.2442 0.3302
vn -0.8446 -0.1660 -0.5089
vn -0.5663 0.7454 -0.3517
vn -0.6855 0.6496 0.3289
vn -0.5866 0.4230 0.6906
vn -0.7182 0.0609 0.6932
vn -0.0010 0.6117 0.7911
vn 0.0012 0.9515 0.3078
vn -0.7181 0.0608 0.6932
vn 0.0012 0.9514 0.3078
vn 0.6933 0.6585 0.2927
vn -0.0127 0.9639 -0.2658
vn -0.6619 0.6920 -0.2882
vn -0.0127 0.9640 -0.2658
vn -0.6618 0.6920 -0.2882
vn -0.6855 0.6496 0.3288
vn 0.6933 0.6585 0.2926
vn 0.5957 0.4652 0.6548
vn -0.0054 0.0890 0.9960
vn 0.7195 0.0624 0.6917
vn -0.0054 0.0889 0.9960
vn -0.0005 -0.1096 0.9940
vn -0.6091 0.4193 -0.6732
vn 0.8485 -0.1377 -0.5109
vn 0.9573 -0.2886 0.0173
vt 0.687500 0.820310
vt 0.699220 0.847650
vt 0.687500 0.847660
vt 0.648430 0.820310
vt 0.679680 0.765630
vt 0.644540 0.851570
vt 0.609380 0.839850
vt 0.628900 0.863280
vt 0.707040 0.855460
vt 0.710940 0.847650
vt 0.628900 0.898430
vt 0.726570 0.847650
vt 0.781250 0.898430
vt 0.781250 0.863280
vt 0.707030 0.898440
vt 0.769540 0.851560
vt 0.765620 0.820320
vt 0.804680 0.839850
vt 0.789060 0.789060
vt 0.808590 0.761710
vt 0.863290 0.757820
vt 0.812500 0.832040
vt 0.855470 0.835930
vt 0.855470 0.869140
vt 0.855470 0.871100
vt 0.812500 0.859380
vt 0.894530 0.835930
vt 0.886720 0.871090
vt 0.886720 0.869140
vt 0.890620 0.869140
vt 0.890630 0.871090
vt 0.851570 0.929680
vt 0.839850 0.933600
vt 0.812500 0.914060
vt 0.894530 0.832030
vt 0.964840 0.933600
vt 0.906250 0.921870
vt 0.941400 0.929680
vt 0.914070 0.980460
vt 0.617190 0.953120
vt 0.964840 1.000000
vt 0.937500 0.949210
vt 0.632820 0.933600
vt 0.937500 0.843750
vt 0.898440 0.843750
vt 0.906250 0.761710
vt 0.753910 0.640620
vt 0.937500 0.750000
vt 0.941400 0.851560
vt 0.710940 0.921880
vt 0.984380 0.960930
vt 0.996090 0.855470
vt 0.941410 0.757820
vt 0.875000 0.578130
vt 0.851570 0.710930
vt 0.972660 0.761710
vt 0.753910 0.640620
vt 0.851570 0.710930
vt 0.980470 0.765620
vt 0.753910 0.640620
vt 0.851570 0.710930
vt 0.875000 0.578130
vt 0.875000 0.578130
vt 0.753910 0.640620
vt 0.851570 0.710930
vt 0.753910 0.640620
vt 0.851570 0.714840
vt 0.875000 0.578130
vt 0.875000 0.578130
vt 0.851570 0.710930
vt 0.949210 0.757820
vt 0.875000 0.578130
vt 0.914070 0.765630
vt 0.937500 0.761720
vt 0.523440 0.714840
vt 0.753910 0.640620
vt 0.945310 0.851560
vt 0.785160 0.929680
vt 0.945320 0.945310
vt 0.906250 0.917970
vt 0.960940 0.929690
vt 0.902350 0.843750
vt 0.949210 0.847650
vt 0.894530 0.839850
vt 0.890630 0.875000
vt 0.851570 0.773440
vt 0.601570 0.761720
vt 0.582040 0.757810
vt 0.617190 0.714840
vt 0.621100 0.714850
vt 0.621100 0.789070
vt 0.894530 0.839850
vt 0.847660 0.847650
vt 0.597660 0.832040
vt 0.750000 0.527350
vt 0.593750 0.687500
vt 0.886720 0.742180
vt 0.875000 0.578130
vt 0.851570 0.710930
vt 0.664060 0.667970
vt 0.792970 0.609370
vt 0.671880 0.664060
vt 0.652340 0.660160
vt 0.902340 0.531250
vt 0.753910 0.644530
vt 0.902340 0.535160
vt 0.753910 0.640620
vt 0.714850 0.640620
vt 0.843750 0.578120
vt 0.871100 0.636710
vt 0.753910 0.632810
vt 0.675790 0.628910
vt 0.875000 0.578130
vt 0.753910 0.640620
vt 0.824220 0.636710
vt 0.675790 0.628910
vt 0.769540 0.570320
vt 0.726570 0.535160
vt 0.894540 0.609370
vt 0.816410 0.648440
vt 0.757820 0.660150
vt 0.757810 0.664060
vt 0.933590 0.523440
vt 0.875000 0.691400
vt 0.875000 0.578130
vt 0.851570 0.710930
vt 0.843750 0.707030
vt 0.792960 0.714840
vt 0.773430 0.718750
vt 0.734380 0.722660
vt 0.734370 0.656250
vt 0.757810 0.664060
vt 0.671880 0.664060
vt 0.671880 0.664060
vt 0.679680 0.656250
vt 0.757810 0.664060
vt 0.679690 0.722660
vt 0.640620 0.718750
vt 0.738290 0.765630
vt 0.718750 0.777350
vt 0.695320 0.777350
vt 0.722660 0.820320
vt 0.597660 0.859380
vt 0.851570 0.878900
vt 0.851570 0.937500
vt 0.597660 0.914060
vt 0.890630 0.875000
vt 0.621100 0.972650
vt 0.816400 0.996090
vt 0.847660 1.000000
vt 0.636720 0.957040
vt 0.707030 0.988280
vt 0.707040 1.000000
vt 0.722660 1.000000
vt 0.628910 0.996090
vt 0.792960 0.972650
vt 0.828130 0.996090
vt 0.718750 0.957030
vt 0.816400 0.953120
vt 0.917970 0.976560
vt 0.968750 0.996090
vt 0.773430 0.960930
vt 0.703130 0.937500
s 0
usemtl hypnos-t1
f 199/427/408 196/424/409 195/423/410
f 195/423/411 196/424/412 197/425/413
f 200/428/414 195/423/411 197/425/415
f 200/428/414 198/426/416 195/423/410
f 195/423/410 198/426/416 199/427/417
f 200/428/418 201/429/419 198/426/416
f 203/431/420 200/428/414 197/425/413
f 201/429/419 200/428/414 202/430/421
f 203/431/420 202/430/421 200/428/414
f 197/425/422 196/424/423 203/431/420
f 196/424/412 204/432/424 203/431/420
f 203/431/420 204/432/425 206/434/426
f 202/430/421 203/431/420 205/433/427
f 209/437/428 205/433/429 203/431/420
f 203/431/420 206/434/426 210/438/430
f 209/437/428 203/431/420 207/435/431
f 208/436/432 207/435/431 203/431/420
f 203/431/420 210/438/430 208/436/432
f 212/440/433 208/436/432 210/438/430
f 211/439/434 210/438/435 206/434/426
f 210/438/430 211/439/434 212/440/433
f 214/442/436 212/440/437 213/441/438
f 211/439/439 213/441/440 212/440/433
f 214/442/436 215/444/441 212/440/433
f 212/440/442 215/444/443 207/435/431
f 207/435/431 208/436/432 212/440/433
f 215/444/441 216/448/444 207/435/431
f 215/445/443 218/450/445 216/447/446
f 215/445/441 217/449/447 218/450/445
f 214/443/436 217/449/447 215/445/443
f 219/453/448 218/450/449 217/449/450
f 219/452/448 216/446/451 218/451/449
f 220/454/452 216/447/453 219/453/454
f 220/454/452 219/453/448 222/460/455
f 219/453/448 217/449/447 221/457/456
f 221/457/457 222/460/455 219/453/448
f 223/463/458 220/455/452 222/458/455
f 223/461/459 222/459/455 224/464/460
f 225/467/461 224/464/462 222/459/455
f 221/457/463 225/466/461 222/460/464
f 226/470/465 225/466/461 221/457/456
f 225/467/461 227/471/466 224/464/462
f 225/467/467 226/468/465 227/471/466
f 228/473/468 224/464/460 227/471/466
f 228/473/468 227/471/466 229/474/469
f 227/471/466 230/475/470 229/474/471
f 230/475/472 227/471/466 226/468/465
f 231/478/473 229/474/471 230/475/470
f 233/487/474 231/479/473 230/476/472
f 230/477/470 232/482/475 233/485/474
f 230/477/472 226/469/476 232/484/475
f 231/480/473 233/486/474 235/491/477
f 233/487/474 234/488/478 235/491/477
f 231/481/473 235/493/479 229/474/469
f 235/492/477 234/488/478 236/494/480
f 237/499/481 229/474/471 235/493/477
f 235/493/479 236/495/482 237/499/481
f 238/501/483 229/474/471 237/499/481
f 237/499/481 239/502/484 238/501/485
f 237/499/481 240/504/486 239/502/484
f 240/504/487 237/499/481 236/495/480
f 240/505/486 236/496/488 243/508/489
f 240/505/486 242/507/490 239/503/484
f 240/505/486 243/508/489 241/506/491
f 240/505/487 241/506/491 242/507/492
f 248/518/493 244/511/494 243/510/489
f 244/512/494 245/513/495 243/509/489
f 243/509/489 245/513/495 201/429/419
f 241/506/491 243/508/489 246/514/496
f 243/508/489 247/515/497 246/514/496
f 243/509/489 201/429/419 247/516/497
f 236/497/488 248/518/493 243/510/489
f 248/517/498 251/531/499 249/523/500
f 248/518/493 249/522/500 244/511/494
f 248/519/493 250/526/501 251/530/502
f 234/489/478 250/527/503 248/520/493
f 248/521/493 236/498/488 234/490/478
f 249/523/500 251/531/499 254/537/504
f 251/531/499 252/532/505 254/537/506
f 256/541/507 252/532/505 251/531/499
f 253/535/508 251/529/502 255/539/509
f 257/548/510 251/529/502 253/535/508
f 250/528/511 255/540/509 251/530/502
f 251/531/499 257/545/512 256/541/507
f 258/549/513 257/546/512 214/443/436
f 257/546/512 226/470/465 214/443/436
f 256/542/507 257/546/512 258/549/513
f 232/483/475 226/469/476 257/547/512
f 257/548/514 253/536/515 232/484/516
f 213/441/438 258/550/513 214/442/436
f 213/441/440 259/551/517 258/550/513
f 259/551/518 256/543/507 258/550/513
f 213/441/519 260/552/520 259/551/517
f 261/553/521 256/543/507 259/551/517
f 259/551/517 260/552/520 261/553/522
f 260/552/520 262/557/523 261/553/522
f 254/538/506 261/554/522 262/556/523
f 254/538/504 252/533/505 261/554/522
f 252/534/505 256/544/507 261/555/522
f 260/552/520 263/559/524 262/557/523
f 263/559/524 264/560/525 262/557/523
f 249/525/526 262/557/523 264/560/525
f 254/538/506 262/558/523 249/524/500
f 245/513/527 264/560/528 263/559/529
f 249/525/500 264/560/525 244/512/494
f 264/560/528 245/513/530 244/512/494
f 245/513/495 263/559/531 199/427/532
f 265/561/533 199/427/532 263/559/529
f 265/561/533 263/559/531 260/552/520
f 265/561/533 267/563/534 199/427/535
f 265/561/533 204/432/536 266/562/537
f 265/561/538 266/562/539 267/563/540
f 213/441/519 265/561/533 260/552/520
f 213/441/440 211/439/439 265/561/533
f 265/561/533 268/564/541 204/432/425
f 268/564/542 265/561/533 211/439/439
f 206/434/426 204/432/425 268/564/542
f 211/439/439 206/434/426 268/564/542
f 199/427/417 267/563/534 196/424/423
f 266/562/543 196/424/412 267/563/544
f 266/562/543 204/432/536 196/424/423
f 246/514/496 247/515/545 269/566/546
f 201/429/547 205/433/427 247/516/497
f 247/516/497 205/433/429 269/565/546
f 246/514/496 269/566/546 271/569/548
f 270/568/549 269/565/546 205/433/427
f 269/566/546 270/567/549 239/503/484
f 269/566/550 239/503/484 242/507/490
f 242/507/490 271/569/551 269/566/552
f 241/506/491 246/514/553 271/569/554
f 241/506/491 271/569/551 242/507/490
f 272/572/555 239/503/484 270/567/549
f 273/573/556 272/570/555 270/568/549
f 273/573/556 270/568/549 205/433/557
f 273/573/556 274/574/558 275/575/559
f 274/574/558 273/573/556 205/433/560
f 273/573/556 275/575/559 272/570/555
f 223/462/458 275/576/561 276/577/562
f 274/574/558 276/578/562 275/575/561
f 223/462/459 277/580/563 275/576/561
f 277/580/563 272/571/555 275/576/559
f 228/472/468 278/581/564 277/580/565
f 277/580/563 278/581/566 272/571/567
f 224/465/462 228/472/468 277/580/563
f 224/465/460 277/580/563 223/462/459
f 228/472/468 238/500/485 278/581/564
f 278/582/564 238/501/485 239/502/484
f 272/572/567 278/583/566 239/503/484
f 276/578/568 279/584/569 207/435/431
f 276/578/568 207/435/431 220/456/452
f 274/574/558 279/584/569 276/578/568
f 223/463/458 276/579/568 220/455/452
f 279/584/569 280/585/570 207/435/571
f 279/584/569 274/574/558 280/585/570
f 280/585/572 209/437/573 207/435/431
f 274/574/558 205/433/560 280/585/572
f 280/585/572 205/433/427 209/437/428
f 245/513/530 199/427/417 198/426/416
f 245/513/527 198/426/416 201/429/419
f 238/501/574 228/473/468 229/474/471
f 226/470/465 221/457/457 214/443/436
f 221/457/457 217/449/575 214/443/576
f 220/456/452 207/435/431 216/448/446
f 201/429/547 202/430/421 205/433/560
o object0.005
v 0.604270 5.772575 -0.380920
v 0.612255 5.444760 -0.484988
v 0.471749 5.767927 -0.214491
v 0.807617 5.855119 -0.188187
v 0.834740 5.801726 -0.395854
v 1.016935 5.718201 -0.332458
v 0.877286 5.499186 -0.559956
v 1.103373 5.464771 -0.470196
v 0.771691 5.163841 -0.506398
v 1.107780 4.926741 -0.531366
v 0.704554 5.119684 -0.292966
v 0.768969 4.897970 -0.546913
v 1.072644 5.185479 -0.467950
v 1.150485 5.118967 -0.286974
v 1.222939 5.411759 -0.249821
v 1.100097 5.402541 -0.012230
v 1.070438 5.142172 -0.086476
v 1.015568 5.691374 -0.096147
v 1.094590 5.760856 -0.207459
v 0.832230 5.753136 0.002116
v 0.873370 5.422996 0.081076
v 0.768662 5.105745 -0.054799
v 0.612397 5.425467 0.054984
v 0.607715 5.763557 -0.044660
v 0.762587 4.840851 -0.102062
v 1.104777 4.869873 -0.120662
v 0.827962 4.582265 -0.514078
v 1.108544 4.543499 -0.174860
v 0.825615 4.537586 -0.180636
v 1.108961 4.550172 -0.168127
v 0.832582 4.539917 -0.168213
v 0.832256 4.541055 -0.504631
v 0.789128 4.217888 -0.074057
v 0.783702 4.193889 -0.543352
v 0.879296 3.696437 -0.444824
v 0.881703 3.729071 -0.097750
v 1.228168 4.327215 -0.082843
v 1.108842 4.554749 -0.507896
v 1.225720 4.296137 -0.545438
v 1.158168 3.747434 -0.447579
v 1.160368 3.776676 -0.100552
v 1.155710 3.422908 -0.101989
v 0.907295 3.424505 -0.098521
v 0.905527 3.401449 -0.401286
v 1.175655 3.414420 -0.068126
v 0.900305 3.421484 -0.095162
v 0.873969 3.386139 -0.384498
v 1.186396 3.374260 -0.422102
v 1.018505 2.690171 -0.431423
v 1.306585 2.668890 -0.418177
v 0.788032 2.208268 -0.505933
v 1.270474 2.693496 -0.563961
v 1.079798 2.688394 -0.326111
v 1.119725 2.670042 -0.156454
v 1.322980 2.655342 -0.245051
v 1.134356 2.246942 -0.406921
v 0.756915 1.864418 -0.364501
v 1.150324 2.227023 -0.264467
v 1.313907 2.670497 -0.064731
v 1.244682 2.210330 -0.213739
v 0.930457 1.635383 -0.075411
v 1.245574 2.221561 -0.040271
v 1.312382 2.753314 0.113114
v 1.128650 2.701066 0.027477
v 1.315095 2.243472 0.038176
v 1.143062 1.710119 0.231418
v 1.304083 2.282711 0.208630
v 1.024723 2.948351 0.088650
v 1.099833 3.114689 0.288012
v 0.848830 3.131156 0.210125
v 1.032266 2.733738 0.316800
v 1.030047 2.757176 0.103027
v 0.858855 2.738586 0.242137
v 0.987674 2.231439 0.150220
v 1.153941 3.399853 -0.404755
v 1.110890 4.588178 -0.508303
vn -0.1274 0.2930 -0.9476
vn -0.1466 0.4202 -0.8955
vn -0.7591 -0.0404 -0.6497
vn -0.4156 0.8005 -0.4319
vn -0.6653 -0.2133 -0.7154
vn -0.6671 0.7447 0.0206
vn 0.1492 0.9817 0.1179
vn 0.1492 0.9817 0.1180
vn 0.3026 0.8565 -0.4182
vn 0.4927 0.7002 -0.5166
vn 0.1154 0.1476 -0.9823
vn 0.4927 0.7002 -0.5167
vn -0.1918 0.4472 -0.8736
vn -0.7591 -0.0404 -0.6498
vn 0.5898 0.2081 -0.7802
vn -0.4382 -0.0591 -0.8969
vn -0.4383 -0.0591 -0.8969
vn 0.7966 0.0548 -0.6020
vn -0.7631 -0.0505 -0.6443
vn 0.7966 0.0547 -0.6020
vn 0.5824 0.1013 -0.8066
vn -0.9685 -0.2442 -0.0485
vn -0.9685 -0.2442 -0.0486
vn 0.5898 0.2082 -0.7803
vn 0.5824 0.1014 -0.8066
vn 0.9981 -0.0580 -0.0225
vn 0.9919 0.1021 -0.0758
vn 0.5898 0.2081 -0.7803
vn 0.6378 -0.2377 0.7326
vn 0.9981 -0.0580 -0.0224
vn 0.6749 0.7377 0.0174
vn 0.7163 -0.0300 0.6971
vn 0.5561 0.5772 0.5980
vn 0.7163 -0.0300 0.6972
vn 0.5561 0.5771 0.5981
vn 0.3493 0.7195 0.6002
vn 0.2395 -0.2026 0.9495
vn -0.1802 0.2041 0.9622
vn -0.1722 0.1986 0.9648
vn -0.7662 -0.0691 0.6388
vn -0.4022 -0.3956 0.8257
vn 0.7163 -0.0299 0.6972
vn -0.4022 -0.3956 0.8256
vn -0.6627 -0.2536 0.7047
vn -0.9531 -0.2991 -0.0459
vn -0.7662 -0.0690 0.6388
vn -0.9237 -0.3829 -0.0131
vn -0.4228 0.7775 0.4656
vn -0.1808 0.2727 0.9450
vn -0.7662 -0.0690 0.6389
vn -0.4022 -0.3957 0.8256
vn 0.1492 0.9818 0.1179
vn -0.7713 -0.2438 0.5880
vn -0.7713 -0.2437 0.5880
vn 0.6378 -0.2378 0.7326
vn 0.7877 -0.1403 0.5998
vn 0.7091 0.0562 0.7029
vn 0.7877 -0.1402 0.5998
vn -0.6882 -0.0764 -0.7215
vn -0.5806 0.0334 0.8135
vn 0.7090 0.0562 0.7029
vn -0.5806 0.0335 0.8135
vn -0.8314 0.2041 0.5167
vn -0.6882 -0.0763 -0.7215
vn 0.6605 0.3751 0.6504
vn -0.5807 0.0335 0.8135
vn -0.8315 0.2041 0.5167
vn -0.7104 0.0333 -0.7030
vn -0.7027 0.0709 0.7079
vn -0.8315 0.2042 0.5167
vn -0.7027 0.0708 0.7080
vn 0.6605 0.3751 0.6505
vn -0.7027 0.0709 0.7080
vn -0.7105 0.0333 -0.7030
vn -0.7069 -0.0361 -0.7064
vn -0.7027 0.0708 0.7079
vn -0.6886 -0.2162 -0.6922
vn -0.6883 -0.1102 0.7170
vn 0.6757 0.2156 0.7049
vn -0.6884 -0.1102 0.7169
vn 0.6757 0.2156 0.7050
vn 0.6757 0.2157 0.7049
vn 0.6900 0.1103 -0.7154
vn 0.5284 0.1149 -0.8412
vn 0.5284 0.1148 -0.8412
vn 0.6604 0.3751 0.6505
vn 0.7105 -0.1611 -0.6851
vn 0.6899 0.1103 -0.7154
vn 0.7088 -0.0616 0.7027
vn 0.7104 -0.1611 -0.6851
vn 0.6757 0.2157 0.7050
vn 0.5631 0.6929 0.4504
vn -0.5610 0.6660 0.4916
vn 0.5631 0.6928 0.4504
vn -0.5611 0.6659 0.4916
vn 0.6349 0.6649 0.3935
vn -0.5611 0.6659 0.4917
vn -0.8476 0.2001 -0.4915
vn -0.5610 0.6660 0.4917
vn -0.5208 0.1484 -0.8407
vn -0.5208 0.1483 -0.8407
vn -0.8086 0.3581 0.4669
vn -0.8086 0.3581 0.4668
vn -0.7943 -0.5773 -0.1892
vn 0.6176 0.2699 -0.7387
vn -0.8476 0.2000 -0.4914
vn -0.7943 -0.5773 -0.1891
vn 0.7200 -0.6728 -0.1703
vn -0.8233 -0.5599 0.0936
vn 0.7201 -0.6727 -0.1702
vn 0.3234 -0.9192 -0.2247
vn 0.4361 -0.0653 -0.8975
vn 0.3235 -0.9192 -0.2247
vn 0.6177 0.2699 -0.7387
vn 0.4361 -0.0654 -0.8975
vn -0.8343 -0.5501 0.0371
vn 0.9372 -0.3407 -0.0750
vn -0.8233 -0.5599 0.0935
vn 0.4697 -0.4452 0.7624
vn 0.9372 -0.3407 -0.0749
vn -0.8233 -0.5598 0.0936
vn 0.3864 -0.3211 -0.8646
vn 0.2188 -0.9132 -0.3437
vn 0.2188 -0.9132 -0.3438
vn 0.4696 -0.4453 0.7624
vn 0.7200 -0.6727 -0.1702
vn 0.7200 -0.6728 -0.1702
vn 0.4697 -0.4453 0.7623
vn 0.4696 -0.4452 0.7624
vn 0.4360 -0.0653 -0.8976
vn 0.9570 -0.2799 0.0762
vn 0.4929 -0.2982 -0.8174
vn -0.8342 -0.5502 0.0370
vn 0.4928 -0.2983 -0.8174
vn 0.4883 -0.1774 0.8545
vn 0.4929 -0.2983 -0.8174
vn 0.4883 -0.1773 0.8545
vn 0.3254 -0.9403 0.0996
vn 0.3254 -0.9403 0.0994
vn -0.8342 -0.5501 0.0371
vn 0.3254 -0.9403 0.0995
vn 0.9570 -0.2799 0.0763
vn 0.4462 0.1042 0.8889
vn 0.4462 0.1041 0.8889
vn 0.5257 -0.3221 -0.7874
vn -0.8343 -0.5501 0.0370
vn -0.8269 -0.4722 0.3054
vn 0.5256 -0.3221 -0.7874
vn 0.4784 0.0450 0.8770
vn 0.5256 -0.3222 -0.7873
vn 0.2051 -0.9310 0.3020
vn -0.8268 -0.4723 0.3054
vn 0.4785 0.0450 0.8770
vn 0.4785 0.0451 0.8769
vn 0.2050 -0.9310 0.3020
vn -0.6756 -0.6945 0.2474
vn 0.4877 0.4514 0.7473
vn 0.5812 -0.0883 0.8090
vn 0.4877 0.4514 0.7472
vn -0.6756 -0.6945 0.2475
vn -0.6755 -0.6945 0.2475
vn -0.8086 0.3580 0.4669
vn -0.9670 0.1941 0.1651
vn -0.9670 0.1941 0.1650
vn 0.4354 -0.0880 -0.8959
vn 0.5812 -0.0883 0.8089
vn 0.4354 -0.0881 -0.8959
vn -0.9842 -0.1203 0.1298
vn -0.0322 -0.9738 0.2252
vn -0.9842 -0.1202 0.1299
vn -0.9670 0.1940 0.1651
vn -0.9842 -0.1202 0.1298
vn 0.5812 -0.0882 0.8089
vn 0.4876 0.4514 0.7473
vn -0.9670 0.1940 0.1650
vn 0.4360 -0.0654 -0.8976
vn 0.6348 0.6649 0.3935
vn 0.6027 0.5597 -0.5688
vn -0.5209 0.1484 -0.8407
vn 0.6027 0.5596 -0.5689
vn 0.7105 -0.1611 -0.6850
vn 0.7104 -0.1612 -0.6851
vn -0.5209 0.1483 -0.8407
vn -0.6886 -0.2161 -0.6922
vn 0.6900 0.1104 -0.7154
vn -0.7069 -0.0360 -0.7064
vn 0.8406 0.0207 -0.5412
vn 0.8406 0.0207 -0.5413
vn 0.7878 -0.1402 0.5998
vn -0.7631 -0.0505 -0.6442
vn 0.7090 0.0562 0.7030
vt 0.269530 0.679680
vt 0.246100 0.746090
vt 0.234380 0.656250
vt 0.167970 0.699210
vt 0.250000 0.628910
vt 0.269530 0.679680
vt 0.234380 0.656250
vt 0.250000 0.628910
vt 0.175790 0.710930
vt 0.218750 0.746090
vt 0.210930 0.718750
vt 0.250000 0.703120
vt 0.250000 0.628910
vt 0.234370 0.656250
vt 0.269530 0.679680
vt 0.257810 0.714840
vt 0.167970 0.707030
vt 0.242180 0.699210
vt 0.250000 0.628900
vt 0.244140 0.679680
vt 0.175790 0.667960
vt 0.242180 0.679680
vt 0.244140 0.632820
vt 0.242180 0.632820
vt 0.269530 0.679680
vt 0.199220 0.660150
vt 0.244140 0.648430
vt 0.175790 0.636710
vt 0.242180 0.648430
vt 0.238290 0.667970
vt 0.210930 0.656250
vt 0.207030 0.691400
vt 0.210930 0.601570
vt 0.175790 0.699210
vt 0.171880 0.636720
vt 0.242180 0.707030
vt 0.238280 0.675780
vt 0.179690 0.667960
vt 0.191400 0.664060
vt 0.210940 0.640630
vt 0.175790 0.710940
vt 0.156250 0.687500
vt 0.250000 0.703120
vt 0.191400 0.664070
vt 0.156250 0.687500
vt 0.234380 0.664070
vt 0.191400 0.664070
vt 0.175790 0.710930
vt 0.234380 0.656250
vt 0.156250 0.687500
vt 0.234370 0.695310
vt 0.191400 0.664070
vt 0.183600 0.746090
vt 0.230470 0.632810
vt 0.238280 0.648430
vt 0.179690 0.632820
vt 0.187500 0.605460
vt 0.378910 0.570310
vt 0.449210 0.574210
vt 0.234380 0.609370
vt 0.234370 0.609370
vt 0.433590 0.558590
vt 0.183600 0.593750
vt 0.382820 0.562500
vt 0.230470 0.601570
vt 0.410160 0.546870
vt 0.433600 0.558590
vt 0.382820 0.562500
vt 0.410160 0.542960
vt 0.378910 0.562500
vt 0.449210 0.566400
vt 0.410160 0.464850
vt 0.367190 0.492180
vt 0.464840 0.496090
vt 0.378910 0.390620
vt 0.453130 0.394540
vt 0.410150 0.371090
vt 0.363290 0.511710
vt 0.449210 0.507810
vt 0.417970 0.562500
vt 0.414070 0.503900
vt 0.417970 0.390630
vt 0.382820 0.402340
vt 0.437500 0.394530
vt 0.433600 0.332030
vt 0.390630 0.332030
vt 0.382820 0.605460
vt 0.410150 0.316400
vt 0.382820 0.332030
vt 0.449220 0.335940
vt 0.437500 0.324210
vt 0.402340 0.558590
vt 0.437500 0.566400
vt 0.371100 0.593750
vt 0.410150 0.312500
vt 0.105460 0.695310
vt 0.375000 0.554680
vt 0.382820 0.328120
vt 0.128900 0.687500
vt 0.449210 0.332030
vt 0.496090 0.582030
vt 0.492180 0.332030
vt 0.378910 0.562500
vt 0.496090 0.617180
vt 0.421880 0.312500
vt 0.082040 0.640620
vt 0.367180 0.984370
vt 0.367180 0.960940
vt 0.429690 0.558590
vt 0.128900 0.605470
vt 0.105460 0.695310
vt 0.367180 0.960940
vt 0.320320 0.972650
vt 0.406250 0.988280
vt 0.394540 0.324220
vt 0.367180 0.984370
vt 0.320320 0.972650
vt 0.367180 0.984370
vt 0.437500 0.308600
vt 0.445310 0.542960
vt 0.367180 0.960940
vt 0.101570 0.605470
vt 0.121090 0.605470
vt 0.082040 0.640620
vt 0.367180 0.960940
vt 0.367180 0.984370
vt 0.367180 0.960940
vt 0.367180 0.984370
vt 0.101570 0.605470
vt 0.105460 0.695310
vt 0.406250 0.953130
vt 0.363290 0.351570
vt 0.488290 0.316400
vt 0.367190 0.960930
vt 0.320320 0.972650
vt 0.367190 0.984370
vt 0.367180 0.960940
vt 0.320320 0.972650
vt 0.367190 0.960940
vt 0.367180 0.984370
vt 0.367190 0.984370
vt 0.429680 0.304690
vt 0.367190 0.960930
vt 0.082040 0.640620
vt 0.320320 0.972650
vt 0.406250 0.953130
vt 0.367180 0.960940
vt 0.367180 0.984370
vt 0.320320 0.972650
vt 0.406250 0.988280
vt 0.367180 0.984370
vt 0.367180 0.960940
vt 0.371100 0.312500
vt 0.367190 0.984370
vt 0.406250 0.953130
vt 0.378910 0.335940
vt 0.105460 0.695310
vt 0.367180 0.960940
vt 0.406250 0.988280
vt 0.367180 0.984370
vt 0.402340 0.558590
vt 0.085940 0.609370
vt 0.406250 0.953130
vt 0.367180 0.984370
vt 0.367180 0.960940
vt 0.320320 0.972650
vt 0.406250 0.988280
vt 0.367180 0.984370
vt 0.367180 0.960940
vt 0.371100 0.417960
vt 0.082040 0.640620
vt 0.464840 0.324220
vt 0.406250 0.988280
vt 0.406250 0.953130
vt 0.414070 0.312500
vt 0.406250 0.953130
vt 0.406250 0.988280
vt 0.367190 0.343750
vt 0.367180 0.984370
vt 0.367190 0.960930
vt 0.367180 0.960940
vt 0.367180 0.984370
vt 0.367180 0.960940
vt 0.367190 0.984370
vt 0.320320 0.972650
vt 0.421870 0.320320
vt 0.488280 0.636710
vt 0.234380 0.593750
vt 0.417960 0.566400
s 0
usemtl hypnos-t1
f 281/586/577 285/598/578 282/588/579
f 281/586/580 282/590/581 283/592/582
f 281/587/580 283/595/582 284/596/583
f 284/596/584 285/597/585 281/587/580
f 286/599/586 285/597/585 284/596/584
f 287/600/587 285/597/585 286/599/588
f 285/598/578 287/600/589 282/588/590
f 287/600/587 286/599/586 288/604/591
f 289/607/592 287/601/587 288/603/591
f 282/589/581 287/602/587 289/606/593
f 290/608/594 292/612/595 289/605/593
f 290/609/596 289/607/592 293/615/597
f 282/589/581 289/606/592 291/611/598
f 291/611/599 289/606/592 292/613/595
f 289/607/592 288/603/600 293/615/597
f 290/609/596 293/615/601 294/616/602
f 295/617/603 294/616/602 293/615/597
f 295/617/603 293/615/597 288/603/604
f 295/617/603 297/623/605 294/616/606
f 295/618/603 288/604/604 286/599/586
f 295/618/603 286/599/588 299/625/607
f 295/617/603 296/619/608 297/623/605
f 295/618/603 298/624/609 296/620/610
f 295/618/603 299/625/607 298/624/611
f 298/624/611 299/625/607 284/596/584
f 284/596/584 299/625/607 286/599/588
f 284/596/583 300/626/612 298/624/611
f 301/627/613 298/624/611 300/626/612
f 301/627/613 296/620/610 298/624/611
f 301/627/614 300/626/615 303/632/616
f 302/631/617 296/621/618 301/628/613
f 302/630/619 301/629/613 303/633/620
f 282/590/590 291/610/621 303/634/622
f 283/593/623 282/591/590 303/634/622
f 303/635/620 304/637/624 283/594/582
f 300/626/615 304/637/625 303/635/626
f 291/611/598 302/631/627 303/636/620
f 283/595/582 304/638/624 284/596/628
f 304/638/624 300/626/612 284/596/584
f 302/631/627 291/611/599 305/639/629
f 305/639/630 297/622/605 302/631/627
f 302/631/619 297/622/631 296/621/608
f 305/639/630 306/640/632 297/622/631
f 308/646/633 306/640/634 305/639/629
f 292/613/595 305/639/629 291/611/599
f 305/639/630 292/613/595 307/642/635
f 305/639/630 307/642/635 309/650/636
f 308/646/637 305/639/630 309/650/638
f 311/654/639 309/651/636 307/643/640
f 310/652/641 308/647/633 309/651/642
f 311/654/643 310/652/641 309/651/638
f 312/655/644 311/654/643 307/643/640
f 313/657/645 311/654/646 312/655/644
f 313/657/647 310/652/648 311/654/643
f 313/657/649 312/655/650 314/658/651
f 313/657/652 314/658/651 315/660/653
f 313/657/647 315/660/653 316/662/654
f 317/664/655 313/657/647 316/662/656
f 313/657/647 317/664/657 310/652/648
f 317/663/658 319/666/659 318/665/660
f 317/663/655 318/665/661 310/653/662
f 317/663/657 320/667/663 319/666/664
f 317/663/657 321/668/665 320/667/666
f 317/664/667 316/662/654 321/669/665
f 320/667/663 321/668/665 322/671/668
f 321/669/665 323/673/669 322/670/670
f 321/669/665 316/662/654 323/673/671
f 325/676/672 322/670/670 323/673/673
f 327/683/674 323/673/675 324/674/676
f 315/660/653 324/674/677 323/673/673
f 315/660/653 323/673/673 316/662/656
f 326/680/678 325/676/672 323/673/671
f 327/683/674 326/680/679 323/673/675
f 326/681/679 327/684/674 329/695/680
f 328/690/681 327/685/682 324/675/676
f 328/687/681 329/694/683 327/686/674
f 330/696/684 333/707/685 329/691/683
f 330/697/686 329/692/683 331/702/687
f 329/693/683 332/703/688 331/702/689
f 328/687/690 332/704/691 329/694/683
f 326/681/678 329/695/683 333/708/685
f 326/681/678 333/708/685 334/714/692
f 335/715/693 334/714/692 333/709/694
f 338/725/695 335/720/696 333/710/697
f 336/721/698 337/723/699 333/710/685
f 333/711/685 330/698/686 336/722/698
f 333/711/685 337/723/700 338/724/701
f 330/699/702 335/716/693 338/724/695
f 330/699/703 338/724/704 336/721/698
f 336/722/698 338/725/705 337/723/699
f 335/717/693 330/700/702 332/705/691
f 335/717/693 332/705/706 328/688/690
f 328/689/690 339/727/707 335/718/693
f 339/726/707 340/731/708 335/719/693
f 334/713/709 335/720/693 340/732/710
f 339/726/707 342/735/711 340/731/712
f 340/732/708 342/736/713 341/734/714
f 340/733/708 341/734/715 334/712/716
f 342/736/713 339/730/707 334/712/716
f 334/713/692 341/734/717 342/737/711
f 328/689/690 325/679/672 339/727/718
f 343/738/719 339/727/718 325/679/672
f 343/739/720 345/748/721 339/728/707
f 334/714/722 339/729/718 344/742/723
f 339/730/707 345/750/724 344/745/723
f 343/739/720 347/752/725 345/748/726
f 345/749/724 346/751/727 344/743/728
f 345/750/726 347/753/729 346/751/727
f 347/754/730 343/740/720 344/744/728
f 346/751/731 347/754/725 344/745/723
f 348/755/732 344/746/723 343/741/720
f 334/714/692 344/747/723 348/756/732
f 348/758/732 349/759/733 351/765/734
f 349/760/735 348/757/736 325/678/672
f 325/677/672 348/755/737 343/741/720
f 326/681/738 334/714/692 348/756/732
f 326/682/678 348/757/736 350/763/739
f 350/761/740 348/758/736 352/767/741
f 348/758/732 351/765/742 352/767/743
f 350/761/740 352/767/743 353/768/744
f 354/770/745 352/766/743 351/764/742
f 352/767/741 354/770/745 353/768/744
f 351/765/742 353/769/746 354/770/745
f 350/762/747 353/769/748 351/765/749
f 350/762/747 351/765/742 349/759/750
f 350/763/751 349/760/733 326/682/678
f 349/760/733 325/678/672 326/682/678
f 332/706/752 330/701/703 331/702/687
f 325/679/753 328/689/681 355/772/754
f 328/690/681 324/675/755 355/771/756
f 320/667/666 355/771/756 324/675/676
f 320/667/757 322/671/668 355/771/756
f 355/772/756 322/672/670 325/679/672
f 320/667/758 324/675/759 315/661/653
f 319/666/659 320/667/666 315/661/760
f 319/666/761 314/659/651 312/656/644
f 319/666/761 312/656/650 318/665/660
f 319/666/659 315/661/653 314/659/762
f 318/665/660 307/644/640 356/774/763
f 310/653/641 318/665/660 356/774/764
f 318/665/661 312/656/644 307/644/635
f 356/773/763 290/609/594 306/641/634
f 356/773/763 292/614/595 290/609/596
f 356/773/764 306/641/765 308/648/633
f 356/773/763 307/645/635 292/614/766
f 308/649/767 310/653/641 356/774/764
f 290/609/596 294/616/606 306/641/634
f 294/616/606 297/623/605 306/641/634
o object0.006
v -0.536169 5.776269 -0.051242
v -0.704270 5.841327 -0.187249
v -0.662285 5.259554 0.058985
v -0.662143 5.278733 -0.474193
v -0.536121 5.785104 -0.373913
v -0.769708 5.414301 0.059535
v -0.666803 5.747376 -0.005476
v -0.879722 5.715024 -0.098439
v -0.973215 5.402496 -0.030463
v -1.052405 5.432497 -0.255740
v -0.922184 5.760438 -0.208322
v -0.880817 5.748022 -0.323665
v -0.772811 5.507297 -0.551782
v -0.720097 5.814513 -0.383397
v -0.972331 5.476728 -0.465989
v -0.780112 5.164523 -0.512706
v -0.985354 5.195448 -0.472813
v -1.048243 5.147208 -0.301009
v -1.079805 4.910233 -0.521014
v -1.077670 4.847460 -0.162802
v -0.782031 4.860209 -0.546998
v -1.073803 4.576353 -0.539076
v -0.853141 4.496943 -0.527722
v -0.845033 4.551986 -0.547220
v -1.066590 4.559656 -0.235946
v -1.082063 4.525543 -0.531439
v -1.083375 4.554056 -0.239369
v -1.173468 4.241514 -0.170058
v -0.838509 4.196597 -0.162782
v -0.854712 4.532248 -0.235683
v -0.850757 4.517969 -0.246564
v -0.779796 4.793897 -0.141231
v -0.706908 5.113704 -0.311053
v -0.777779 5.095256 -0.086769
v -0.983589 5.142260 -0.109761
v -0.926344 3.743125 -0.439389
v -0.926986 3.754569 -0.167626
v -0.837128 4.167738 -0.529599
v -1.171697 4.202468 -0.536829
v -1.161411 3.754505 -0.439634
v -1.162050 3.765932 -0.171269
v -1.167192 3.544796 -0.156670
v -1.163033 3.530134 -0.418222
v -0.951734 3.517843 -0.417992
v -0.949496 3.542964 -0.153085
v -0.952640 3.536094 -0.142863
v -0.954857 3.510860 -0.431553
v -1.166168 3.523216 -0.418193
v -0.974205 3.040628 -0.490575
v -1.259979 3.131917 -0.436865
v -1.141201 2.959848 -0.398605
v -1.238154 3.175474 -0.025926
v -0.961985 3.067165 -0.004816
v -1.166932 3.538007 -0.156639
v -1.125216 2.979174 -0.031729
v -0.854908 3.203383 -0.110680
vn 0.1917 0.9629 0.1899
vn 0.1981 0.9726 -0.1218
vn -0.0860 0.9834 0.1600
vn -0.2687 0.7131 0.6475
vn 0.3299 0.0509 0.9427
vn 0.9102 -0.2143 0.3544
vn 0.8161 -0.0530 0.5754
vn 0.9397 -0.2311 -0.2520
vn 0.6647 0.0597 -0.7447
vn 0.8161 -0.0530 0.5755
vn 0.9397 -0.2311 -0.2521
vn 0.8161 -0.0531 0.5755
vn 0.2596 0.1002 0.9605
vn 0.3299 0.0509 0.9426
vn -0.2668 -0.1362 0.9541
vn -0.5760 0.4957 0.6500
vn -0.9821 0.1822 0.0480
vn -0.6793 0.0599 0.7314
vn -0.5760 0.4958 0.6499
vn -0.6985 0.7017 0.1403
vn -0.6985 0.7017 0.1402
vn -0.6126 0.6631 -0.4301
vn -0.0859 0.9834 0.1600
vn -0.6127 0.6631 -0.4301
vn -0.2847 0.0957 -0.9538
vn -0.7441 0.2390 -0.6239
vn -0.2960 0.8693 -0.3958
vn -0.7441 0.2391 -0.6239
vn -0.6687 0.1239 -0.7331
vn 0.3190 -0.1748 -0.9315
vn 0.3190 -0.1747 -0.9315
vn -0.9895 0.1441 0.0146
vn -0.7952 0.1455 -0.5887
vn -0.8034 -0.0184 0.5951
vn -0.7176 0.0414 -0.6952
vn 0.7547 -0.0842 -0.6507
vn -0.7176 0.0413 -0.6952
vn 0.7547 -0.0841 -0.6507
vn -0.7177 0.0414 -0.6952
vn -0.5439 0.0456 0.8379
vn 0.5476 -0.2688 -0.7924
vn -0.6956 0.0648 -0.7155
vn 0.5475 -0.2688 -0.7924
vn 0.8114 -0.1890 -0.5531
vn 0.7546 -0.0842 -0.6507
vn -0.5438 0.0456 0.8380
vn -0.7802 0.3498 0.5186
vn -0.6956 0.0649 -0.7155
vn -0.7801 0.3498 0.5187
vn -0.7177 0.0413 -0.6952
vn -0.7802 0.3498 0.5187
vn 0.7082 0.0903 0.7002
vn -0.5439 0.0455 0.8379
vn 0.6974 0.0212 0.7164
vn -0.7802 0.3497 0.5187
vn -0.7064 0.1616 0.6891
vn 0.7082 0.0902 0.7002
vn 0.8114 -0.1889 -0.5531
vn 0.7009 -0.1224 0.7027
vn -0.5440 0.0456 0.8379
vn 0.7557 -0.2576 0.6021
vn 0.7010 -0.1224 0.7026
vn -0.6375 -0.0743 0.7669
vn 0.9284 -0.3635 -0.0770
vn 0.3060 -0.4260 0.8514
vn 0.7558 -0.2575 0.6021
vn 0.7557 -0.2577 0.6020
vn 0.3059 -0.4260 0.8514
vn -0.6375 -0.0743 0.7668
vn -0.8034 -0.0185 0.5951
vn -0.6793 0.0600 0.7314
vn 0.3060 -0.4261 0.8514
vn 0.2668 -0.6280 0.7310
vn 0.9363 -0.3458 -0.0619
vn 0.4056 -0.5404 -0.7372
vn 0.9284 -0.3634 -0.0770
vn 0.6868 -0.0921 0.7210
vn 0.6950 -0.2211 -0.6842
vn 0.7091 -0.1220 -0.6945
vn 0.6868 -0.0920 0.7210
vn 0.6974 0.0213 0.7164
vn 0.7091 -0.1219 -0.6945
vn 0.5475 -0.2687 -0.7925
vn -0.6949 0.0189 -0.7188
vn 0.6950 -0.2212 -0.6842
vn -0.6949 0.0189 -0.7189
vn -0.6949 0.0190 -0.7188
vn -0.7061 -0.1075 -0.6999
vn -0.7061 -0.1074 -0.6999
vn -0.7338 0.2473 0.6327
vn -0.7152 0.0230 0.6985
vn -0.7152 0.0229 0.6985
vn -0.7614 0.1167 -0.6377
vn -0.7338 0.2472 0.6328
vn 0.8710 0.1715 -0.4604
vn 0.8710 0.1714 -0.4604
vn 0.5754 0.4470 0.6849
vn 0.8673 0.3116 0.3881
vn 0.5754 0.4469 0.6849
vn 0.6095 0.0852 -0.7882
vn -0.7613 0.1166 -0.6378
vn 0.7132 -0.4243 -0.5579
vn 0.6095 0.0853 -0.7882
vn -0.7366 0.0139 -0.6762
vn 0.6095 0.0851 -0.7882
vn -0.7476 -0.2250 -0.6249
vn 0.7132 -0.4243 -0.5580
vn -0.7063 -0.0453 0.7064
vn -0.3359 -0.8668 -0.3686
vn -0.7476 -0.2251 -0.6249
vn -0.7063 -0.0453 0.7065
vn -0.6976 0.5015 0.5117
vn 0.4644 -0.3178 0.8266
vn -0.2679 -0.7767 0.5700
vn -0.2679 -0.7768 0.5699
vn 0.4644 -0.3178 0.8267
vn -0.2679 -0.7768 0.5700
vn -0.6976 0.5015 0.5118
vn 0.8673 0.3117 0.3880
vn 0.8674 0.3116 0.3881
vn 0.5755 0.4470 0.6849
vn -0.7338 0.2473 0.6328
vn 0.9753 -0.0714 0.2090
vn 0.8673 0.3117 0.3881
vn 0.4643 -0.3178 0.8267
vn 0.7132 -0.4244 -0.5579
vn -0.7338 0.2472 0.6327
vn 0.5755 0.4470 0.6848
vn 0.3148 0.3309 -0.8896
vn 0.1345 0.4556 -0.8800
vn -0.2960 0.8693 -0.3959
vt 0.191400 0.554680
vt 0.257820 0.527340
vt 0.253900 0.531250
vt 0.171880 0.562500
vt 0.156250 0.558590
vt 0.179690 0.562500
vt 0.230470 0.472650
vt 0.246100 0.417960
vt 0.304680 0.421870
vt 0.238290 0.488290
vt 0.179690 0.562500
vt 0.292970 0.531250
vt 0.171880 0.562500
vt 0.250000 0.550780
vt 0.203130 0.492180
vt 0.179690 0.550790
vt 0.226560 0.531250
vt 0.195310 0.554680
vt 0.199220 0.523430
vt 0.175780 0.542970
vt 0.199210 0.500000
vt 0.175790 0.488280
vt 0.148440 0.500000
vt 0.156250 0.542970
vt 0.191410 0.535150
vt 0.132820 0.542960
vt 0.207040 0.507810
vt 0.117190 0.554680
vt 0.218750 0.546870
vt 0.191400 0.554690
vt 0.109380 0.503900
vt 0.175790 0.500000
vt 0.218750 0.468750
vt 0.113290 0.472650
vt 0.183600 0.468750
vt 0.148440 0.468750
vt 0.113290 0.437500
vt 0.171880 0.433590
vt 0.164070 0.429680
vt 0.187500 0.433600
vt 0.222660 0.433600
vt 0.117190 0.398440
vt 0.183600 0.394540
vt 0.125000 0.410150
vt 0.222660 0.390630
vt 0.355470 0.074220
vt 0.480460 0.082030
vt 0.218750 0.394540
vt 0.179690 0.402340
vt 0.132810 0.402340
vt 0.171880 0.398440
vt 0.183600 0.390630
vt 0.121100 0.410150
vt 0.460940 0.074220
vt 0.132810 0.398440
vt 0.167970 0.394530
vt 0.433600 0.074220
vt 0.417960 0.074220
vt 0.425790 0.144540
vt 0.429680 0.148440
vt 0.390620 0.160150
vt 0.390620 0.082030
vt 0.207030 0.390630
vt 0.234370 0.394540
vt 0.234380 0.398430
vt 0.207040 0.394540
vt 0.242180 0.429680
vt 0.210930 0.421880
vt 0.242180 0.457040
vt 0.277350 0.382820
vt 0.242180 0.464840
vt 0.210930 0.457040
vt 0.179690 0.460930
vt 0.191410 0.472660
vt 0.472650 0.246100
vt 0.355470 0.238290
vt 0.390630 0.253900
vt 0.343750 0.148430
vt 0.484370 0.152340
vt 0.457040 0.144540
vt 0.453130 0.250000
vt 0.429690 0.250000
vt 0.414070 0.246090
vt 0.429690 0.292960
vt 0.429690 0.291020
vt 0.468750 0.074210
vt 0.410160 0.292960
vt 0.453120 0.292970
vt 0.453120 0.291020
vt 0.472650 0.292960
vt 0.472650 0.291020
vt 0.355470 0.285160
vt 0.468750 0.011720
vt 0.386720 0.296870
vt 0.390620 0.300780
vt 0.464850 0.007820
vt 0.968750 0.035150
vt 0.949210 0.179680
vt 0.472650 0.291020
vt 0.355470 0.289060
vt 0.945320 0.125000
vt 0.472650 0.292970
vt 0.933590 0.300780
vt 0.937500 0.277340
vt 0.953130 0.277340
vt 0.453120 0.296870
vt 0.875000 0.304680
vt 0.882820 0.105470
vt 0.886710 0.269540
vt 0.894540 0.281250
vt 0.863290 0.281250
vt 0.863290 0.273430
vt 0.863290 0.125000
vt 0.894530 0.082030
vt 0.898430 0.210940
vt 0.882820 0.031250
vt 0.882820 0.199210
vt 0.957030 0.230460
vt 0.960940 0.074210
vt 0.429690 0.292970
vt 0.429690 0.291020
vt 0.464850 0.074210
vt 0.863290 0.058590
vt 0.863290 0.210940
vt 0.863290 0.195310
vt 0.910160 0.011720
vt 0.906250 0.179680
s 0
usemtl hypnos-t1
f 357/775/768 361/785/769 358/778/770
f 363/790/771 357/775/768 358/778/770
f 362/789/772 359/781/773 357/777/774
f 357/776/774 359/782/773 360/783/775
f 361/786/776 357/776/777 360/783/778
f 357/777/779 363/791/780 362/789/781
f 362/789/782 363/791/771 364/793/783
f 358/779/770 364/794/783 363/792/771
f 366/797/784 365/795/785 364/794/783
f 362/789/782 364/793/786 365/796/785
f 366/797/784 364/794/783 367/798/787
f 358/779/770 367/798/788 364/794/783
f 366/797/784 367/798/787 368/800/789
f 358/779/790 368/800/791 367/798/787
f 369/801/792 371/806/793 368/799/791
f 369/801/792 368/799/791 370/803/794
f 358/779/770 370/802/794 368/800/789
f 366/797/784 368/800/789 371/805/793
f 366/797/784 371/805/795 373/808/796
f 372/807/797 373/809/796 371/806/793
f 372/807/798 371/806/793 369/801/792
f 366/797/784 373/808/796 374/810/799
f 373/808/796 375/811/800 374/810/799
f 375/812/800 373/809/796 372/807/797
f 374/810/799 375/811/800 376/814/801
f 378/816/802 376/814/801 375/811/800
f 375/812/800 372/807/797 377/815/803
f 378/817/804 375/812/800 377/815/805
f 378/816/806 381/823/807 376/814/801
f 379/819/808 382/826/809 378/817/804
f 379/819/810 378/817/802 380/822/811
f 378/817/806 377/815/812 380/822/811
f 381/824/813 378/818/802 383/829/814
f 382/827/815 383/829/816 378/818/817
f 383/830/818 386/837/819 381/825/820
f 385/835/821 383/832/822 384/834/823
f 384/833/823 383/831/816 382/828/815
f 385/835/821 386/836/824 383/832/822
f 386/838/819 379/819/810 380/822/825
f 385/835/821 379/820/810 386/836/819
f 387/840/826 381/825/827 386/837/819
f 380/822/825 387/839/826 386/838/824
f 388/841/828 387/839/829 380/822/825
f 381/825/820 387/840/829 388/842/828
f 388/842/828 391/847/830 376/813/801
f 381/825/820 388/842/828 376/813/801
f 389/843/831 390/846/832 388/842/828
f 388/841/828 377/815/805 389/845/831
f 388/841/833 380/822/825 377/815/812
f 388/842/834 390/846/835 391/847/830
f 366/797/784 374/810/799 391/848/836
f 391/848/836 374/810/799 376/814/837
f 390/846/832 365/796/838 391/847/830
f 366/797/784 391/848/830 365/795/785
f 362/789/782 390/846/839 359/781/840
f 390/846/832 389/843/831 359/781/840
f 390/846/832 362/789/782 365/796/785
f 389/844/841 360/783/778 359/782/773
f 372/807/797 360/784/842 389/845/831
f 372/807/797 389/845/843 377/815/812
f 385/835/821 393/851/844 392/850/845
f 385/835/821 392/850/845 394/852/846
f 384/834/823 393/851/847 385/835/848
f 385/835/821 394/852/849 379/820/850
f 395/854/851 394/853/849 392/849/852
f 395/854/853 379/821/810 394/853/846
f 384/833/823 395/854/854 396/855/855
f 384/833/823 382/828/815 395/854/851
f 395/854/853 382/828/809 379/821/808
f 395/854/851 392/849/852 396/855/855
f 396/855/856 398/858/857 397/856/858
f 384/833/823 396/855/855 397/856/859
f 396/855/856 399/862/860 398/858/861
f 396/855/856 400/864/862 399/862/860
f 396/855/856 392/849/845 400/864/863
f 400/866/862 401/868/864 402/869/865
f 392/850/845 401/868/866 400/866/862
f 403/873/867 399/863/868 400/865/862
f 402/869/865 403/874/867 400/866/862
f 402/872/865 405/882/869 403/875/870
f 403/876/867 404/880/871 399/862/860
f 403/877/872 406/883/873 404/878/871
f 403/877/867 405/881/874 406/883/873
f 408/889/875 406/884/873 407/886/876
f 405/881/874 407/885/876 406/883/877
f 404/879/871 406/884/873 408/889/878
f 410/893/879 408/888/878 409/890/880
f 411/897/881 409/890/880 408/888/878
f 404/879/871 408/889/875 410/892/879
f 408/889/878 407/886/876 411/898/882
f 409/891/883 411/899/884 407/887/876
f 410/893/885 409/890/880 402/871/886
f 410/896/879 402/870/887 401/867/888
f 410/894/879 399/862/860 404/880/871
f 399/863/860 410/895/879 398/859/861
f 401/867/864 398/860/889 410/896/879
f 412/900/890 402/871/891 409/890/880
f 409/891/892 407/887/876 405/882/869
f 405/882/893 412/901/890 409/891/892
f 412/901/890 405/882/869 402/872/887
f 397/857/858 398/861/894 401/868/864
f 397/857/859 401/868/888 393/851/847
f 392/850/852 393/851/847 401/868/895
f 384/834/823 397/857/858 393/851/847
f 369/801/792 360/784/842 372/807/797
f 369/801/896 370/803/897 361/788/776
f 370/804/898 358/780/790 361/787/769
f 361/788/776 360/784/775 369/801/896
